M48
;Layer_Color=9474304
;FILE_FORMAT=2:5
INCH,TZ
;TYPE=PLATED
T1F00S00C0.01200
T2F00S00C0.01400
T3F00S00C0.01500
T4F00S00C0.02000
T5F00S00C0.02362
T6F00S00C0.02756
T7F00S00C0.03543
T8F00S00C0.04000
T9F00S00C0.07874
T10F00S00C0.11346
T11F00S00C0.28346
%
T01
X136835Y116835
X141165
Y121165
X136835
X137165Y200835
Y205165
X132835
Y200835
X177913Y192087
Y187362
Y182638
Y177913
X182638
Y182638
Y187362
Y192087
X187362
Y187362
Y182638
Y177913
X192087
Y182638
Y187362
Y192087
X194504Y215504
X198835
X203165
X207496
X207500Y220000
X203200
X198800
X194500
X193331Y140831
Y136500
X189000
X184669
Y140831
X189000
Y132169
X184669
X193331
X194504Y224165
X198835
X203165
X207496
Y228496
X203165
X198835
X194504
T02
X95000Y87500
X93244Y109000
X95000Y122500
X99000
X103000
X117244Y122000
X117500Y126500
X112626Y112374
X115000Y105000
X133000Y108500
X148500Y108500
X150500Y123500
X166000Y118500
X169500Y117000
X170000Y108500
X168000Y90000
X171000Y143500
X175000Y146500
X176756Y158500
X171244
X150000Y164256
X150256Y174500
X138500Y174244
X132000Y173500
X124000
X124200Y164700
X134016Y162016
X128000Y148756
Y143244
X128000Y138500
X158500Y139000
X151500Y148756
X154000Y190500
X146500Y191500
X150000Y198244
X150000Y210000
X127000
X132000Y217500
X174000Y209000
X169500Y195000
X179000Y215000
X183000Y211500
X199000Y198000
X205000Y186500
X212500Y190000
X232500Y188500
X232500Y194000
X235000Y182256
X235000Y172500
X231343Y169158
X234944Y165465
X243000Y162657
X242500Y150500
X252500Y155000
X259000Y165000
X245000Y184000
Y188900
Y210000
X240000Y208500
X237000Y210500
X242500Y215000
X247500Y217500
X226500Y223000
X227000Y209900
X228000Y144256
X221756Y132500
X243000Y133000
X251000Y135756
X259000Y131500
X263000
X257244Y119000
X267000Y93542
X270000Y87500
X278500Y85000
X205000Y92276
X207628Y116872
X207000Y121500
X204500Y125000
X200500Y116000
X187000
X180000Y117500
X184500Y108000
X186000Y158744
X195500Y156500
X205000Y153000
X207500Y157500
X202244Y164500
X202500Y145000
X215000Y234000
X225000Y226500
X235000Y234000
X245000Y236500
X242500Y240000
X247500Y232500
X256500Y241500
X259000Y239000
X260000Y272500
X265000Y285000
X242500Y267500
X235500Y265000
Y260000
X222500
Y265000
X216500
Y260000
X188500Y254000
X182500
X180000Y261500
Y265500
X186000Y243244
X188000Y234000
X162000Y227500
X157500Y224500
X150500Y227500
X150000Y234000
X155000Y240000
X149500Y251000
X155000Y261500
Y265500
X160000
Y261500
X165000
Y265500
X170000
Y261500
X175000
Y265500
X132500Y251000
X121500
X123000Y227500
X102500Y230000
X108000Y238000
X90000Y263000
X90949Y292551
T03
X176900Y205000
T04
X269084Y269084
X105000Y265500
T05
X80232Y83768
X83768Y80232
X286232
X289768Y83768
Y286232
X286232Y289768
X83768Y289768
X80232Y286232
T06
X179980Y90134
X179980Y96866
T07
X153000Y93000
X163000
X111000Y140000
Y150000
Y160000
Y170000
Y180000
Y190000
Y200000
Y210000
Y220000
X259000
Y210000
Y200000
Y190000
Y180000
Y170000
Y160000
Y150000
Y140000
X238000Y112000
X228000
X259000Y230000
X111000
T08
X134500Y99500
X117500Y152500
X221000Y155000
T09
X318898Y51181
X51181
X318898Y318898
X51181
T10
X95653Y185004
X274236Y185083
T11
X346457Y23622
X23622
X346457Y346457
X23622
M30
