G04 Layer_Color=16711935*
%FSLAX25Y25*%
%MOIN*%
G70*
G01*
G75*
%ADD135C,0.00394*%
D135*
X134606Y162362D02*
G03*
X134606Y162362I-1969J0D01*
G01*
X138803Y116835D02*
G03*
X138803Y116835I-1969J0D01*
G01*
X195531Y176437D02*
G03*
X195531Y176437I-1969J0D01*
G01*
X194701Y213732D02*
G03*
X194701Y213732I-1969J0D01*
G01*
X197268Y130201D02*
G03*
X197268Y130201I-1969J0D01*
G01*
X132441Y207528D02*
G03*
X132441Y207528I-1969J0D01*
G01*
X129095Y165315D02*
X129685Y165905D01*
X140905D01*
Y154095D02*
Y165905D01*
X129095Y154095D02*
X140905D01*
X129095D02*
Y165315D01*
X116555Y111870D02*
X123445D01*
X116555Y108130D02*
X123445D01*
X116555D02*
Y111870D01*
X123445Y108130D02*
Y111870D01*
X92555Y116870D02*
X99445Y116870D01*
X92555Y113130D02*
X99445D01*
X92555D02*
Y116870D01*
X99445Y113130D02*
Y116870D01*
X92773Y101125D02*
X101125Y92773D01*
X88876Y97227D02*
X97227Y88876D01*
X101125Y92773D01*
X88876Y97227D02*
X92773Y101125D01*
Y268876D02*
X101125Y277227D01*
X88876Y272773D02*
X97227Y281124D01*
X88876Y272773D02*
X92773Y268876D01*
X97227Y281124D02*
X101125Y277227D01*
X301886Y306758D02*
X306758Y301886D01*
X299242Y304114D02*
X304114Y299242D01*
X299242Y304114D02*
X301886Y306758D01*
X304114Y299242D02*
X306758Y301886D01*
X277242Y293886D02*
X282114Y298758D01*
X279887Y291242D02*
X284758Y296113D01*
X277242Y293886D02*
X279887Y291242D01*
X282114Y298758D02*
X284758Y296113D01*
X270555Y253130D02*
X277445Y253130D01*
X270555Y256870D02*
X277445D01*
X277445Y253130D02*
X277445Y256870D01*
X270555Y253130D02*
Y256870D01*
X268876Y277227D02*
X277227Y268876D01*
X272773Y281124D02*
X281124Y272773D01*
X268876Y277227D02*
X272773Y281124D01*
X277227Y268876D02*
X281124Y272773D01*
X65303Y299489D02*
X70175Y304361D01*
X62659Y302134D02*
X67530Y307006D01*
X70175Y304361D01*
X62659Y302134D02*
X65303Y299489D01*
X85242Y295614D02*
X90114Y290742D01*
X87887Y298258D02*
X92758Y293387D01*
X90114Y290742D02*
X92758Y293387D01*
X85242Y295614D02*
X87887Y298258D01*
X92555Y253130D02*
X99445Y253130D01*
X92555Y256870D02*
X99445Y256870D01*
Y253130D02*
Y256870D01*
X92555Y253130D02*
X92555Y256870D01*
X87886Y71242D02*
X92758Y76114D01*
X85242Y73887D02*
X90114Y78758D01*
X92758Y76114D01*
X85242Y73887D02*
X87886Y71242D01*
X63242Y68114D02*
X68114Y63242D01*
X65886Y70758D02*
X70758Y65886D01*
X68114Y63242D02*
X70758Y65886D01*
X63242Y68114D02*
X65886Y70758D01*
X268876Y92773D02*
X277227Y101125D01*
X272773Y88875D02*
X281124Y97227D01*
X277227Y101125D02*
X281124Y97227D01*
X268876Y92773D02*
X272773Y88875D01*
X277445Y113130D02*
Y116870D01*
X270555Y113130D02*
Y116870D01*
Y113130D02*
X277445D01*
X270555Y116870D02*
X277445Y116870D01*
X279886Y78758D02*
X284758Y73886D01*
X277242Y76113D02*
X282114Y71242D01*
X277242Y76113D02*
X279886Y78758D01*
X282114Y71242D02*
X284758Y73886D01*
X299242Y65886D02*
X304114Y70758D01*
X301887Y63242D02*
X306758Y68113D01*
X299242Y65886D02*
X301887Y63242D01*
X304114Y70758D02*
X306758Y68113D01*
X139055Y252870D02*
X145945D01*
X139055Y249130D02*
X145945D01*
X139055D02*
Y252870D01*
X145945Y249130D02*
Y252870D01*
X144055Y181630D02*
X150945D01*
X144055Y185370D02*
X150945D01*
Y181630D02*
Y185370D01*
X144055Y181630D02*
Y185370D01*
Y172630D02*
X150945D01*
X144055Y176370D02*
X150945D01*
Y172630D02*
Y176370D01*
X144055Y172630D02*
Y176370D01*
X151870Y158055D02*
Y164945D01*
X148130Y158055D02*
Y164945D01*
X151870D01*
X148130Y158055D02*
X151870D01*
X137055Y215130D02*
X143945D01*
X137055Y218870D02*
X143945D01*
Y215130D02*
Y218870D01*
X137055Y215130D02*
Y218870D01*
X151870Y197555D02*
Y204445D01*
X148130Y197555D02*
Y204445D01*
X151870D01*
X148130Y197555D02*
X151870D01*
X136630Y173555D02*
Y180445D01*
X140370Y173555D02*
Y180445D01*
X136630Y173555D02*
X140370D01*
X136630Y180445D02*
X140370D01*
X147055Y154870D02*
X153945D01*
X147055Y151130D02*
X153945D01*
X147055D02*
Y154870D01*
X153945Y151130D02*
Y154870D01*
X228555Y241130D02*
X235445D01*
X228555Y244870D02*
X235445D01*
Y241130D02*
Y244870D01*
X228555Y241130D02*
Y244870D01*
X217555Y241130D02*
X224445D01*
X217555Y244870D02*
X224445D01*
Y241130D02*
Y244870D01*
X217555Y241130D02*
Y244870D01*
X202165Y251819D02*
Y254181D01*
X197835Y251819D02*
Y254181D01*
Y251819D02*
X202165D01*
X197835Y254181D02*
X202165D01*
X197835Y241319D02*
Y243681D01*
X202165Y241319D02*
Y243681D01*
X197835D02*
X202165D01*
X197835Y241319D02*
X202165D01*
X197835Y260819D02*
Y263181D01*
X202165Y260819D02*
Y263181D01*
X197835D02*
X202165D01*
X197835Y260819D02*
X202165D01*
X228555Y251130D02*
X235445D01*
X228555Y254870D02*
X235445D01*
Y251130D02*
Y254870D01*
X228555Y251130D02*
Y254870D01*
X217555Y251130D02*
X224445D01*
X217555Y254870D02*
X224445D01*
Y251130D02*
Y254870D01*
X217555Y251130D02*
Y254870D01*
X206555Y251130D02*
X213445D01*
X206555Y254870D02*
X213445D01*
Y251130D02*
Y254870D01*
X206555Y251130D02*
Y254870D01*
Y241130D02*
X213445D01*
X206555Y244870D02*
X213445D01*
Y241130D02*
Y244870D01*
X206555Y241130D02*
Y244870D01*
X224870Y209055D02*
Y215945D01*
X221130Y209055D02*
Y215945D01*
X224870D01*
X221130Y209055D02*
X224870D01*
X185555Y263870D02*
X192445D01*
X185555Y260130D02*
X192445D01*
X185555D02*
Y263870D01*
X192445Y260130D02*
Y263870D01*
X188055Y201370D02*
X194945D01*
X188055Y197630D02*
X194945D01*
X188055D02*
Y201370D01*
X194945Y197630D02*
Y201370D01*
X159130Y251055D02*
Y257945D01*
X162870Y251055D02*
Y257945D01*
X159130Y251055D02*
X162870D01*
X159130Y257945D02*
X162870D01*
X159130Y234055D02*
Y240945D01*
X162870Y234055D02*
Y240945D01*
X159130Y234055D02*
X162870D01*
X159130Y240945D02*
X162870D01*
X167307Y235764D02*
Y256236D01*
X180693Y235764D02*
Y256236D01*
X167307Y235764D02*
X180693D01*
X167307Y256236D02*
X180693D01*
X170555Y229870D02*
X177445D01*
X170555Y226130D02*
X177445D01*
X170555D02*
Y229870D01*
X177445Y226130D02*
Y229870D01*
X206555Y260130D02*
X213445D01*
X206555Y263870D02*
X213445D01*
Y260130D02*
Y263870D01*
X206555Y260130D02*
Y263870D01*
X193870Y242555D02*
Y249445D01*
X190130Y242555D02*
Y249445D01*
X193870D01*
X190130Y242555D02*
X193870D01*
X187870D02*
Y249445D01*
X184130Y242555D02*
Y249445D01*
X187870D01*
X184130Y242555D02*
X187870D01*
X198898Y93457D02*
X211102D01*
X198898Y100543D02*
X211102D01*
X198898Y93457D02*
Y100543D01*
X211102Y93457D02*
Y100543D01*
X131555Y141130D02*
X138445D01*
X131555Y144870D02*
X138445D01*
Y141130D02*
Y144870D01*
X131555Y141130D02*
Y144870D01*
X250130Y116445D02*
X250130Y109555D01*
X253870D02*
Y116445D01*
X250130Y109555D02*
X253870D01*
X250130Y116445D02*
X253870D01*
X147370Y130555D02*
Y137445D01*
X143630Y130555D02*
Y137445D01*
X147370D01*
X143630Y130555D02*
X147370D01*
X134370D02*
Y137445D01*
X130630Y130555D02*
Y137445D01*
X134370D01*
X130630Y130555D02*
X134370D01*
X216130Y93555D02*
Y100445D01*
X219870Y93555D02*
Y100445D01*
X216130Y93555D02*
X219870D01*
X216130Y100445D02*
X219870D01*
X116555Y132870D02*
X123445Y132870D01*
X116555Y129130D02*
X123445D01*
X116555D02*
Y132870D01*
X123445Y129130D02*
Y132870D01*
X116555Y123870D02*
X123445Y123870D01*
X116555Y120130D02*
X123445D01*
X116555D02*
Y123870D01*
X123445Y120130D02*
Y123870D01*
X116555Y117870D02*
X123445Y117870D01*
X116555Y114130D02*
X123445D01*
X116555D02*
Y117870D01*
X123445Y114130D02*
Y117870D01*
X127130Y105945D02*
X127130Y99055D01*
X130870D02*
Y105945D01*
X127130Y99055D02*
X130870D01*
X127130Y105945D02*
X130870D01*
X116555Y101870D02*
X123445Y101870D01*
X116555Y98130D02*
X123445D01*
X116555D02*
Y101870D01*
X123445Y98130D02*
Y101870D01*
X159555Y110370D02*
X166445D01*
X159555Y106630D02*
X166445D01*
X159555D02*
Y110370D01*
X166445Y106630D02*
Y110370D01*
X154555Y102870D02*
X161445D01*
X154555Y99130D02*
X161445D01*
Y102870D01*
X154555Y99130D02*
Y102870D01*
X139055D02*
X145945D01*
X139055Y99130D02*
X145945D01*
Y102870D01*
X139055Y99130D02*
Y102870D01*
X110594Y119756D02*
X122406D01*
X110594Y114244D02*
X122406D01*
X110594D02*
Y119756D01*
X122406Y114244D02*
Y119756D01*
X135870Y127555D02*
Y134445D01*
X132130Y127555D02*
Y134445D01*
Y127555D02*
X135870D01*
X132130Y134445D02*
X135870D01*
X126130Y127555D02*
X126130Y134445D01*
X129870Y127555D02*
Y134445D01*
X126130D02*
X129870D01*
X126130Y127555D02*
X129870D01*
X126130Y142555D02*
Y149445D01*
X129870Y142555D02*
Y149445D01*
X126130D02*
X129870D01*
X126130Y142555D02*
X129870D01*
X149630D02*
Y149445D01*
X153370Y142555D02*
Y149445D01*
X149630D02*
X153370D01*
X149630Y142555D02*
X153370D01*
X155630D02*
Y149445D01*
X159370Y142555D02*
Y149445D01*
X155630D02*
X159370D01*
X155630Y142555D02*
X159370D01*
X146957Y125398D02*
Y137602D01*
X154043Y125398D02*
Y137602D01*
X146957Y125398D02*
X154043D01*
X146957Y137602D02*
X154043D01*
X170130Y121055D02*
Y127945D01*
X173870Y121055D02*
Y127945D01*
X170130D02*
X173870D01*
X170130Y121055D02*
X173870D01*
X154870Y110555D02*
Y117445D01*
X151130Y110555D02*
Y117445D01*
Y110555D02*
X154870D01*
X151130Y117445D02*
X154870D01*
X164130Y121055D02*
Y127945D01*
X167870Y121055D02*
Y127945D01*
X164130D02*
X167870D01*
X164130Y121055D02*
X167870D01*
X178130Y107555D02*
Y114445D01*
X181870Y107555D02*
Y114445D01*
X178130Y107555D02*
X181870D01*
X178130Y114445D02*
X181870D01*
X185343Y120331D02*
X190657D01*
X185343Y111669D02*
X190657D01*
Y120331D01*
X185343Y111669D02*
Y120331D01*
X215555Y130630D02*
X222445D01*
X215555Y134370D02*
X222445D01*
X215555Y130630D02*
Y134370D01*
X222445Y130630D02*
Y134370D01*
X215555Y146370D02*
X222445D01*
X215555Y142630D02*
X222445D01*
Y146370D01*
X215555Y142630D02*
Y146370D01*
X215555Y136630D02*
X222445D01*
X215555Y140370D02*
X222445D01*
X215555Y136630D02*
Y140370D01*
X222445Y136630D02*
Y140370D01*
X217870Y112055D02*
Y118945D01*
X214130Y112055D02*
Y118945D01*
Y112055D02*
X217870D01*
X214130Y118945D02*
X217870D01*
X223870Y112055D02*
Y118945D01*
X220130Y112055D02*
Y118945D01*
Y112055D02*
X223870D01*
X220130Y118945D02*
X223870D01*
X227555Y101870D02*
X234445D01*
X227555Y98130D02*
X234445D01*
Y101870D01*
X227555Y98130D02*
Y101870D01*
X241130Y96555D02*
Y103445D01*
X244870Y96555D02*
Y103445D01*
X241130D02*
X244870D01*
X241130Y96555D02*
X244870D01*
X249095Y107756D02*
X260906D01*
X249095Y102244D02*
X260906D01*
X249095D02*
Y107756D01*
X260906Y102244D02*
Y107756D01*
X238543Y118898D02*
Y131102D01*
X231457Y118898D02*
Y131102D01*
X238543D01*
X231457Y118898D02*
X238543D01*
X233555Y146370D02*
X240445D01*
X233555Y142630D02*
X240445D01*
Y146370D01*
X233555Y142630D02*
Y146370D01*
X226130Y138055D02*
Y144945D01*
X229870Y138055D02*
Y144945D01*
X226130D02*
X229870D01*
X226130Y138055D02*
X229870D01*
X249130Y118055D02*
Y124945D01*
X252870Y118055D02*
Y124945D01*
X249130D02*
X252870D01*
X249130Y118055D02*
X252870D01*
X249130Y129555D02*
Y136445D01*
X252870Y129555D02*
Y136445D01*
X249130D02*
X252870D01*
X249130Y129555D02*
X252870D01*
X256555Y117130D02*
X263445D01*
X256555Y120870D02*
X263445D01*
X256555Y117130D02*
Y120870D01*
X263445Y117130D02*
Y120870D01*
X256555Y123130D02*
X263445D01*
X256555Y126870D02*
X263445D01*
X256555Y123130D02*
Y126870D01*
X263445Y123130D02*
Y126870D01*
X245555Y101870D02*
X252445Y101870D01*
X245555Y98130D02*
X252445D01*
X245555D02*
Y101870D01*
X252445Y98130D02*
Y101870D01*
X201555Y166370D02*
X208445D01*
X201555Y162630D02*
X208445D01*
Y166370D01*
X201555Y162630D02*
Y166370D01*
X170555Y203130D02*
X177445D01*
X170555Y206870D02*
X177445D01*
X170555Y203130D02*
Y206870D01*
X177445Y203130D02*
Y206870D01*
X192555Y203130D02*
X199445D01*
X192555Y206870D02*
X199445D01*
X192555Y203130D02*
Y206870D01*
X199445Y203130D02*
Y206870D01*
X222555Y192130D02*
X229445D01*
X222555Y195870D02*
X229445D01*
X222555Y192130D02*
Y195870D01*
X229445Y192130D02*
Y195870D01*
X222555Y186130D02*
X229445D01*
X222555Y189870D02*
X229445D01*
X222555Y186130D02*
Y189870D01*
X229445Y186130D02*
Y189870D01*
X233130Y176055D02*
Y182945D01*
X236870Y176055D02*
Y182945D01*
X233130D02*
X236870D01*
X233130Y176055D02*
X236870D01*
X233074Y159264D02*
Y166154D01*
X236814Y159264D02*
Y166154D01*
X233074D02*
X236814D01*
X233074Y159264D02*
X236814D01*
X215807Y181236D02*
X229193D01*
X215807Y160764D02*
X229193D01*
X215807D02*
Y181236D01*
X229193Y160764D02*
Y181236D01*
X170555Y156630D02*
X177445D01*
X170555Y160370D02*
X177445D01*
X170555Y156630D02*
Y160370D01*
X177445Y156630D02*
Y160370D01*
X170555Y162630D02*
X177445D01*
X170555Y166370D02*
X177445D01*
X170555Y162630D02*
Y166370D01*
X177445Y162630D02*
Y166370D01*
X184130Y164945D02*
X187870D01*
X184130Y158055D02*
X187870D01*
X184130D02*
Y164945D01*
X187870Y158055D02*
Y164945D01*
X209370Y170555D02*
Y177445D01*
X205630Y170555D02*
Y177445D01*
Y170555D02*
X209370D01*
X205630Y177445D02*
X209370D01*
X125157Y239906D02*
X144843D01*
X125157Y228095D02*
X144843D01*
Y239906D01*
X125157Y228095D02*
Y239906D01*
X144709Y113291D02*
Y124709D01*
X133291Y113291D02*
Y124709D01*
X144709D01*
X133291Y113291D02*
X144709D01*
X172894Y172894D02*
Y197106D01*
X197106Y172894D02*
Y197106D01*
X172894D02*
X197106D01*
X172894Y172894D02*
X197106D01*
X212811Y210189D02*
Y233811D01*
X189189Y210189D02*
Y233811D01*
X212811D01*
X189189Y210189D02*
X212811D01*
X179157Y126657D02*
Y146343D01*
X198843Y126657D02*
Y146343D01*
X179157D02*
X198843D01*
X179157Y126657D02*
X198843D01*
X126929Y194929D02*
Y211071D01*
X143071Y194929D02*
Y211071D01*
X126929D02*
X143071D01*
X126929Y194929D02*
X143071D01*
M02*
