G04 Layer_Color=16711935*
%FSLAX25Y25*%
%MOIN*%
G70*
G01*
G75*
%ADD135C,0.00394*%
%ADD136C,0.00197*%
D135*
X327316Y13045D02*
G03*
X356932Y42557I19086J10463D01*
G01*
X271317Y174874D02*
G03*
X266130Y169768I152J-5342D01*
G01*
X266091Y200398D02*
G03*
X271244Y195282I5350J236D01*
G01*
X274655Y174887D02*
G03*
X274576Y195282I-419J10196D01*
G01*
X95314Y195203D02*
G03*
X95235Y174808I340J-10199D01*
G01*
X98646Y195203D02*
G03*
X103799Y200319I-197J5352D01*
G01*
X103760Y169689D02*
G03*
X98572Y174795I-5339J-236D01*
G01*
X151559Y270161D02*
G03*
X160038Y277691I-1381J10095D01*
G01*
X163685Y279965D02*
G03*
X161326Y279348I-118J-4370D01*
G01*
X161318Y279362D02*
G03*
X160066Y277678I3312J-3768D01*
G01*
X146716Y270842D02*
G03*
X151559Y270161I4783J16468D01*
G01*
X218331D02*
G03*
X223174Y270842I60J17149D01*
G01*
X209852Y277691D02*
G03*
X218331Y270161I9860J2565D01*
G01*
X208564Y279348D02*
G03*
X206205Y279965I-2241J-3754D01*
G01*
X209823Y277678D02*
G03*
X208572Y279362I-4564J-2083D01*
G01*
X239276Y94177D02*
G03*
X232233Y95663I-6983J-15663D01*
G01*
X232154Y95663D02*
G03*
X223347Y85558I1381J-10095D01*
G01*
X146267Y85401D02*
G03*
X137460Y95506I-10189J10D01*
G01*
X137460Y95506D02*
G03*
X130458Y94038I-60J-17149D01*
G01*
X13144Y42672D02*
G03*
X42655Y13057I10463J-19086D01*
G01*
X356746Y327572D02*
G03*
X327235Y357188I-10463J19086D01*
G01*
X42692Y356963D02*
G03*
X13076Y327451I-19086J-10463D01*
G01*
X266126Y169767D02*
G03*
X293408Y98400I147047J15315D01*
G01*
X293296Y271684D02*
G03*
X266069Y200271I119877J-86601D01*
G01*
X103820Y200193D02*
G03*
X76593Y271605I-147104J-15189D01*
G01*
X76655Y98562D02*
G03*
X103764Y169689I-119938J86442D01*
G01*
X271441Y76579D02*
G03*
X239352Y94131I-86417J-119882D01*
G01*
X285225Y65279D02*
G03*
X271441Y76578I-84493J-89015D01*
G01*
X130139Y93925D02*
G03*
X98527Y76539I54884J-137228D01*
G01*
X319465Y25700D02*
G03*
X303019Y47155I-122669J-76995D01*
G01*
X303019Y47155D02*
G03*
X295604Y55191I-106224J-90576D01*
G01*
X327316Y13045D02*
G03*
X319465Y25699I-130520J-72215D01*
G01*
X344329Y50405D02*
G03*
X356982Y42554I84868J122670D01*
G01*
X322872Y66851D02*
G03*
X344328Y50405I98450J106224D01*
G01*
X314836Y74266D02*
G03*
X322872Y66851I98613J98809D01*
G01*
X293449Y98429D02*
G03*
X304749Y84645I100315J70709D01*
G01*
X98527Y76539D02*
G03*
X84743Y65240I70709J-100315D01*
G01*
X74364Y55152D02*
G03*
X66949Y47116I98809J-98613D01*
G01*
X66949Y47116D02*
G03*
X50504Y25660I106224J-98450D01*
G01*
X50503Y25659D02*
G03*
X42653Y13006I122670J-84868D01*
G01*
X13144Y42673D02*
G03*
X25797Y50523I-72215J130520D01*
G01*
X65377Y84763D02*
G03*
X76677Y98547I-89015J84493D01*
G01*
X47254Y66969D02*
G03*
X55290Y74384I-90576J106224D01*
G01*
X25798Y50524D02*
G03*
X47254Y66969I-76995J122669D01*
G01*
X271363Y293705D02*
G03*
X285147Y305004I-70709J100315D01*
G01*
X295526Y315092D02*
G03*
X302941Y323128I-98809J98613D01*
G01*
X302941Y323128D02*
G03*
X319386Y344584I-106224J98450D01*
G01*
X319387Y344585D02*
G03*
X327237Y357238I-122670J84868D01*
G01*
X356746Y327572D02*
G03*
X344093Y319721I72215J-130520D01*
G01*
X304119Y284840D02*
G03*
X292609Y270798I90675J-86069D01*
G01*
X322636Y303275D02*
G03*
X314600Y295860I90576J-106224D01*
G01*
X344092Y319721D02*
G03*
X322636Y303275I76995J-122669D01*
G01*
X82752Y306994D02*
G03*
X146716Y270842I102217J106189D01*
G01*
X50543Y344308D02*
G03*
X66989Y322853I122669J76995D01*
G01*
X66989Y322853D02*
G03*
X74404Y314817I106224J90576D01*
G01*
X42692Y356962D02*
G03*
X50542Y344309I130520J72215D01*
G01*
X25679Y319603D02*
G03*
X13026Y327453I-84868J-122670D01*
G01*
X47136Y303157D02*
G03*
X25680Y319602I-98450J-106224D01*
G01*
X55172Y295742D02*
G03*
X47136Y303157I-98613J-98809D01*
G01*
X76559Y271579D02*
G03*
X65259Y285363I-100315J-70709D01*
G01*
X223174Y270842D02*
G03*
X271355Y293714I-38150J142548D01*
G01*
X271244Y195280D02*
X274576D01*
X271317Y174874D02*
X274655Y174886D01*
X95235Y174807D02*
X98572Y174795D01*
X95314Y195201D02*
X98646D01*
X163685Y279965D02*
X184984D01*
X184906D02*
X206205D01*
X285226Y65278D02*
X295604Y55191D01*
X146267Y85401D02*
X223347D01*
X304749Y84644D02*
X314837Y74265D01*
X74364Y55152D02*
X84742Y65239D01*
X55289Y74384D02*
X65377Y84762D01*
X304175Y284890D02*
X314600Y295860D01*
X285147Y305005D02*
X295526Y315092D01*
X55171Y295742D02*
X65259Y285364D01*
X74404Y314817D02*
X82752Y306994D01*
X129764Y93779D02*
X130591Y94095D01*
D136*
X129862Y93779D02*
G03*
X129665Y93779I-98J0D01*
G01*
D02*
G03*
X129862Y93779I98J0D01*
G01*
M02*
