G04 Layer_Color=16711935*
%FSLAX25Y25*%
%MOIN*%
G70*
G01*
G75*
%ADD89R,0.03950X0.04343*%
%ADD98R,0.04343X0.03950*%
%ADD101R,0.10249X0.08674*%
%ADD113C,0.03556*%
%ADD114P,0.06699X4X360.0*%
%ADD115C,0.04737*%
%ADD116P,0.06699X4X90.0*%
%ADD117C,0.29934*%
%ADD118C,0.08674*%
%ADD119R,0.06706X0.06706*%
%ADD120C,0.06706*%
%ADD121R,0.06706X0.06706*%
%ADD122C,0.16084*%
%ADD123R,0.03162X0.06509*%
%ADD124R,0.05918X0.03556*%
%ADD125R,0.03950X0.02375*%
%ADD126R,0.01784X0.10642*%
%ADD127R,0.08280X0.08280*%
%ADD128R,0.17729X0.17729*%
%ADD129O,0.05328X0.01784*%
%ADD130O,0.01784X0.05328*%
%ADD131R,0.13123X0.13123*%
%ADD132R,0.04934X0.01784*%
%ADD133R,0.01784X0.04934*%
%ADD134R,0.02768X0.02768*%
D89*
X160756Y101000D02*
D03*
X155244D02*
D03*
X145256D02*
D03*
X139744D02*
D03*
X216244Y132500D02*
D03*
X221756D02*
D03*
X221756Y144500D02*
D03*
X216244D02*
D03*
X216244Y138500D02*
D03*
X221756D02*
D03*
X233756Y100000D02*
D03*
X228244D02*
D03*
X239756Y144500D02*
D03*
X234244D02*
D03*
X257244Y119000D02*
D03*
X262756D02*
D03*
X257244Y125000D02*
D03*
X262756D02*
D03*
X207756Y164500D02*
D03*
X202244D02*
D03*
X171244Y205000D02*
D03*
X176756D02*
D03*
X193244D02*
D03*
X198756D02*
D03*
X223244Y194000D02*
D03*
X228756D02*
D03*
X223244Y188000D02*
D03*
X228756D02*
D03*
X171244Y158500D02*
D03*
X176756D02*
D03*
X171244Y164500D02*
D03*
X176756D02*
D03*
D98*
X134000Y128244D02*
D03*
Y133756D02*
D03*
X128000Y133756D02*
D03*
Y128244D02*
D03*
Y148756D02*
D03*
Y143244D02*
D03*
X151500Y148756D02*
D03*
Y143244D02*
D03*
X157500Y148756D02*
D03*
Y143244D02*
D03*
X172000Y127256D02*
D03*
Y121744D02*
D03*
X153000Y111244D02*
D03*
Y116756D02*
D03*
X166000Y127256D02*
D03*
Y121744D02*
D03*
X216000Y112744D02*
D03*
Y118256D02*
D03*
X222000Y112744D02*
D03*
Y118256D02*
D03*
X243000Y102756D02*
D03*
Y97244D02*
D03*
X228000Y144256D02*
D03*
Y138744D02*
D03*
X251000Y124256D02*
D03*
Y118744D02*
D03*
Y135756D02*
D03*
Y130244D02*
D03*
X235000Y182256D02*
D03*
Y176744D02*
D03*
X234944Y165465D02*
D03*
Y159953D02*
D03*
X186000Y164256D02*
D03*
Y158744D02*
D03*
X207500Y171244D02*
D03*
Y176756D02*
D03*
D101*
X222500Y178874D02*
D03*
Y163126D02*
D03*
D113*
X179980Y96866D02*
D03*
X179980Y90134D02*
D03*
D114*
X80232Y83768D02*
D03*
X289768Y286232D02*
D03*
D115*
X83768Y80232D02*
D03*
X289768Y83768D02*
D03*
X286232Y289768D02*
D03*
X80232Y286232D02*
D03*
D116*
X286232Y80232D02*
D03*
X83768Y289768D02*
D03*
D117*
X23622Y346457D02*
D03*
X346457D02*
D03*
Y23622D02*
D03*
X23622D02*
D03*
D118*
X51181Y51181D02*
D03*
Y318898D02*
D03*
X318898D02*
D03*
Y51181D02*
D03*
D119*
X111000Y230000D02*
D03*
X259000Y140000D02*
D03*
D120*
X111000Y220000D02*
D03*
Y200000D02*
D03*
Y190000D02*
D03*
Y180000D02*
D03*
Y170000D02*
D03*
Y160000D02*
D03*
Y150000D02*
D03*
Y140000D02*
D03*
Y210000D02*
D03*
X259000Y160000D02*
D03*
Y230000D02*
D03*
Y220000D02*
D03*
Y210000D02*
D03*
Y200000D02*
D03*
Y190000D02*
D03*
Y180000D02*
D03*
Y170000D02*
D03*
Y150000D02*
D03*
X238000Y112000D02*
D03*
X163000Y93000D02*
D03*
D121*
X228000Y112000D02*
D03*
X153000Y93000D02*
D03*
D122*
X95653Y185004D02*
D03*
X274236Y185083D02*
D03*
D123*
X112760Y121626D02*
D03*
X120240D02*
D03*
X116500Y112374D02*
D03*
X251260Y109626D02*
D03*
X258740D02*
D03*
X255000Y100374D02*
D03*
D124*
X145776Y127760D02*
D03*
Y131500D02*
D03*
Y135240D02*
D03*
X155224D02*
D03*
Y131500D02*
D03*
Y127760D02*
D03*
X239724Y128740D02*
D03*
Y125000D02*
D03*
Y121260D02*
D03*
X230276D02*
D03*
Y125000D02*
D03*
Y128740D02*
D03*
D125*
X192232Y113441D02*
D03*
Y116000D02*
D03*
Y118559D02*
D03*
X183768D02*
D03*
Y116000D02*
D03*
Y113441D02*
D03*
D126*
X207118Y103092D02*
D03*
X204559D02*
D03*
X202000D02*
D03*
X199441D02*
D03*
X196882D02*
D03*
D127*
X217551Y90908D02*
D03*
X186449D02*
D03*
D128*
X185000Y185000D02*
D03*
D129*
X196516Y177126D02*
D03*
Y179095D02*
D03*
Y181063D02*
D03*
Y183031D02*
D03*
Y185000D02*
D03*
Y186969D02*
D03*
Y188937D02*
D03*
Y190905D02*
D03*
Y192874D02*
D03*
X173484D02*
D03*
Y190905D02*
D03*
Y188937D02*
D03*
Y186969D02*
D03*
Y185000D02*
D03*
Y183031D02*
D03*
Y181063D02*
D03*
Y179095D02*
D03*
Y177126D02*
D03*
D130*
X192874Y196516D02*
D03*
X190905D02*
D03*
X188937D02*
D03*
X186969D02*
D03*
X185000D02*
D03*
X179095D02*
D03*
X177126D02*
D03*
Y173484D02*
D03*
X179095D02*
D03*
X181063D02*
D03*
X183031D02*
D03*
X185000D02*
D03*
X186969D02*
D03*
X188937D02*
D03*
X190905D02*
D03*
X192874D02*
D03*
X181063Y196516D02*
D03*
X183031D02*
D03*
D131*
X189000Y136500D02*
D03*
D132*
X198055Y130595D02*
D03*
Y132563D02*
D03*
Y134531D02*
D03*
Y136500D02*
D03*
Y138469D02*
D03*
Y140437D02*
D03*
Y142405D02*
D03*
X179945D02*
D03*
Y140437D02*
D03*
Y138469D02*
D03*
Y136500D02*
D03*
Y134531D02*
D03*
Y132563D02*
D03*
Y130595D02*
D03*
D133*
X194905Y145555D02*
D03*
X192937D02*
D03*
X190969D02*
D03*
X189000D02*
D03*
X187031D02*
D03*
X185063D02*
D03*
X183095D02*
D03*
Y127445D02*
D03*
X185063D02*
D03*
X187031D02*
D03*
X189000D02*
D03*
X190969D02*
D03*
X192937D02*
D03*
X194905D02*
D03*
D134*
X197500Y128000D02*
D03*
M02*
