G04 Layer_Physical_Order=1*
G04 Layer_Color=255*
%FSLAX25Y25*%
%MOIN*%
G70*
G01*
G75*
%ADD10R,0.01181X0.04724*%
%ADD11R,0.04724X0.01181*%
%ADD12R,0.03150X0.03543*%
%ADD13R,0.03543X0.06693*%
%ADD14R,0.07874X0.03937*%
G04:AMPARAMS|DCode=15|XSize=11.81mil|YSize=25.59mil|CornerRadius=0mil|HoleSize=0mil|Usage=FLASHONLY|Rotation=135.000|XOffset=0mil|YOffset=0mil|HoleType=Round|Shape=Rectangle|*
%AMROTATEDRECTD15*
4,1,4,0.01322,0.00487,-0.00487,-0.01322,-0.01322,-0.00487,0.00487,0.01322,0.01322,0.00487,0.0*
%
%ADD15ROTATEDRECTD15*%

G04:AMPARAMS|DCode=16|XSize=11.81mil|YSize=25.59mil|CornerRadius=0mil|HoleSize=0mil|Usage=FLASHONLY|Rotation=45.000|XOffset=0mil|YOffset=0mil|HoleType=Round|Shape=Rectangle|*
%AMROTATEDRECTD16*
4,1,4,0.00487,-0.01322,-0.01322,0.00487,-0.00487,0.01322,0.01322,-0.00487,0.00487,-0.01322,0.0*
%
%ADD16ROTATEDRECTD16*%

G04:AMPARAMS|DCode=17|XSize=23.62mil|YSize=57.09mil|CornerRadius=0mil|HoleSize=0mil|Usage=FLASHONLY|Rotation=315.000|XOffset=0mil|YOffset=0mil|HoleType=Round|Shape=Rectangle|*
%AMROTATEDRECTD17*
4,1,4,-0.02854,-0.01183,0.01183,0.02854,0.02854,0.01183,-0.01183,-0.02854,-0.02854,-0.01183,0.0*
%
%ADD17ROTATEDRECTD17*%

G04:AMPARAMS|DCode=18|XSize=23.62mil|YSize=57.09mil|CornerRadius=0mil|HoleSize=0mil|Usage=FLASHONLY|Rotation=225.000|XOffset=0mil|YOffset=0mil|HoleType=Round|Shape=Rectangle|*
%AMROTATEDRECTD18*
4,1,4,-0.01183,0.02854,0.02854,-0.01183,0.01183,-0.02854,-0.02854,0.01183,-0.01183,0.02854,0.0*
%
%ADD18ROTATEDRECTD18*%

G04:AMPARAMS|DCode=19|XSize=35.43mil|YSize=31.5mil|CornerRadius=0mil|HoleSize=0mil|Usage=FLASHONLY|Rotation=225.000|XOffset=0mil|YOffset=0mil|HoleType=Round|Shape=Rectangle|*
%AMROTATEDRECTD19*
4,1,4,0.00139,0.02366,0.02366,0.00139,-0.00139,-0.02366,-0.02366,-0.00139,0.00139,0.02366,0.0*
%
%ADD19ROTATEDRECTD19*%

G04:AMPARAMS|DCode=20|XSize=35.43mil|YSize=31.5mil|CornerRadius=0mil|HoleSize=0mil|Usage=FLASHONLY|Rotation=315.000|XOffset=0mil|YOffset=0mil|HoleType=Round|Shape=Rectangle|*
%AMROTATEDRECTD20*
4,1,4,-0.02366,0.00139,-0.00139,0.02366,0.02366,-0.00139,0.00139,-0.02366,-0.02366,0.00139,0.0*
%
%ADD20ROTATEDRECTD20*%

%ADD21R,0.03543X0.03150*%
%ADD22R,0.05512X0.07874*%
%ADD23R,0.02362X0.01968*%
%ADD24R,0.09449X0.07874*%
%ADD25R,0.02756X0.05118*%
%ADD26R,0.02362X0.06299*%
%ADD27R,0.06890X0.06890*%
%ADD28R,0.02362X0.00984*%
%ADD29R,0.00984X0.02362*%
%ADD30R,0.18110X0.18110*%
%ADD31R,0.03347X0.00787*%
%ADD32R,0.00787X0.03347*%
%ADD33R,0.03347X0.01181*%
%ADD34R,0.01181X0.03347*%
%ADD35R,0.11024X0.11024*%
%ADD36C,0.04000*%
%ADD37C,0.00800*%
%ADD38C,0.02000*%
%ADD39C,0.03000*%
%ADD40C,0.02756*%
%ADD41P,0.05568X4X360.0*%
%ADD42C,0.03937*%
%ADD43P,0.05568X4X90.0*%
%ADD44C,0.29134*%
%ADD45C,0.07874*%
%ADD46R,0.05905X0.05905*%
%ADD47C,0.05905*%
%ADD48R,0.05905X0.05905*%
%ADD49C,0.02800*%
%ADD50C,0.02400*%
%ADD51C,0.02000*%
%ADD52C,0.03000*%
%ADD53C,0.05000*%
%ADD54C,0.15283*%
G36*
X134256Y131968D02*
X134280Y131900D01*
X134321Y131840D01*
X134378Y131788D01*
X134451Y131744D01*
X134540Y131708D01*
X134645Y131680D01*
X134767Y131660D01*
X134905Y131648D01*
X135060Y131644D01*
Y130844D01*
X134905Y130840D01*
X134767Y130828D01*
X134645Y130808D01*
X134540Y130780D01*
X134451Y130744D01*
X134378Y130700D01*
X134321Y130648D01*
X134280Y130588D01*
X134256Y130520D01*
X134248Y130444D01*
Y132044D01*
X134256Y131968D01*
D02*
G37*
G36*
X130752Y130444D02*
X130744Y130520D01*
X130720Y130588D01*
X130679Y130648D01*
X130622Y130700D01*
X130549Y130744D01*
X130460Y130780D01*
X130354Y130808D01*
X130233Y130828D01*
X130095Y130840D01*
X129940Y130844D01*
Y131644D01*
X130095Y131648D01*
X130233Y131660D01*
X130354Y131680D01*
X130460Y131708D01*
X130549Y131744D01*
X130622Y131788D01*
X130679Y131840D01*
X130720Y131900D01*
X130744Y131968D01*
X130752Y132044D01*
Y130444D01*
D02*
G37*
G36*
X263406Y133559D02*
X263423Y133438D01*
X263452Y133318D01*
X263493Y133198D01*
X263545Y133080D01*
X263609Y132962D01*
X263684Y132845D01*
X263771Y132729D01*
X263870Y132614D01*
X263980Y132500D01*
X262020D01*
X262130Y132614D01*
X262229Y132729D01*
X262316Y132845D01*
X262391Y132962D01*
X262455Y133080D01*
X262507Y133198D01*
X262548Y133318D01*
X262577Y133438D01*
X262594Y133559D01*
X262600Y133682D01*
X263400D01*
X263406Y133559D01*
D02*
G37*
G36*
X143752Y130444D02*
X143744Y130520D01*
X143720Y130588D01*
X143679Y130648D01*
X143622Y130700D01*
X143549Y130744D01*
X143460Y130780D01*
X143354Y130808D01*
X143233Y130828D01*
X143095Y130840D01*
X142940Y130844D01*
Y131644D01*
X143095Y131648D01*
X143233Y131660D01*
X143354Y131680D01*
X143460Y131708D01*
X143549Y131744D01*
X143622Y131788D01*
X143679Y131840D01*
X143720Y131900D01*
X143744Y131968D01*
X143752Y132044D01*
Y130444D01*
D02*
G37*
G36*
X124315Y131724D02*
X124339Y131656D01*
X124380Y131596D01*
X124437Y131544D01*
X124510Y131500D01*
X124599Y131464D01*
X124705Y131436D01*
X124826Y131416D01*
X124964Y131404D01*
X125119Y131400D01*
Y130600D01*
X124964Y130596D01*
X124826Y130584D01*
X124705Y130564D01*
X124599Y130536D01*
X124510Y130500D01*
X124437Y130456D01*
X124380Y130404D01*
X124339Y130344D01*
X124315Y130276D01*
X124307Y130200D01*
Y131800D01*
X124315Y131724D01*
D02*
G37*
G36*
X138417Y126329D02*
X138455Y125753D01*
X138467Y125713D01*
X138481Y125689D01*
X138496Y125681D01*
X137536D01*
X137551Y125689D01*
X137565Y125713D01*
X137576Y125753D01*
X137587Y125809D01*
X137596Y125881D01*
X137609Y126073D01*
X137616Y126481D01*
X138416D01*
X138417Y126329D01*
D02*
G37*
G36*
X136448Y126306D02*
X136486Y125750D01*
X136498Y125712D01*
X136512Y125689D01*
X136527Y125681D01*
X135567D01*
X135582Y125689D01*
X135596Y125712D01*
X135608Y125750D01*
X135618Y125804D01*
X135627Y125874D01*
X135640Y126059D01*
X135647Y126453D01*
X136447D01*
X136448Y126306D01*
D02*
G37*
G36*
X115681Y130200D02*
X115673Y130276D01*
X115649Y130344D01*
X115609Y130404D01*
X115553Y130456D01*
X115481Y130500D01*
X115393Y130536D01*
X115289Y130564D01*
X115169Y130584D01*
X115033Y130596D01*
X114881Y130600D01*
Y131400D01*
X115033Y131404D01*
X115169Y131416D01*
X115289Y131436D01*
X115393Y131464D01*
X115481Y131500D01*
X115553Y131544D01*
X115609Y131596D01*
X115649Y131656D01*
X115673Y131724D01*
X115681Y131800D01*
Y130200D01*
D02*
G37*
G36*
X260403Y131327D02*
X260414Y131176D01*
X260435Y131033D01*
X260464Y130897D01*
X260502Y130769D01*
X260549Y130648D01*
X260605Y130535D01*
X260670Y130429D01*
X260743Y130331D01*
X260825Y130240D01*
X260260Y129674D01*
X260169Y129757D01*
X260071Y129830D01*
X259965Y129895D01*
X259852Y129951D01*
X259732Y129998D01*
X259603Y130036D01*
X259467Y130065D01*
X259324Y130086D01*
X259173Y130097D01*
X259014Y130100D01*
X260400Y131486D01*
X260403Y131327D01*
D02*
G37*
G36*
X159143Y138225D02*
X159092Y138160D01*
X159047Y138090D01*
X159008Y138016D01*
X158975Y137938D01*
X158948Y137856D01*
X158927Y137769D01*
X158912Y137678D01*
X158903Y137583D01*
X158900Y137484D01*
X158100D01*
X158097Y137583D01*
X158088Y137678D01*
X158073Y137769D01*
X158052Y137856D01*
X158025Y137938D01*
X157992Y138016D01*
X157953Y138090D01*
X157908Y138160D01*
X157857Y138225D01*
X157800Y138286D01*
X159200D01*
X159143Y138225D01*
D02*
G37*
G36*
X128870Y137386D02*
X128771Y137271D01*
X128684Y137155D01*
X128609Y137038D01*
X128545Y136920D01*
X128493Y136802D01*
X128452Y136682D01*
X128423Y136562D01*
X128406Y136441D01*
X128400Y136318D01*
X127600D01*
X127594Y136441D01*
X127577Y136562D01*
X127548Y136682D01*
X127507Y136802D01*
X127455Y136920D01*
X127391Y137038D01*
X127316Y137155D01*
X127229Y137271D01*
X127130Y137386D01*
X127020Y137500D01*
X128980D01*
X128870Y137386D01*
D02*
G37*
G36*
X158903Y140417D02*
X158912Y140322D01*
X158927Y140231D01*
X158948Y140144D01*
X158975Y140062D01*
X159008Y139984D01*
X159047Y139910D01*
X159092Y139840D01*
X159143Y139775D01*
X159200Y139714D01*
X157800D01*
X157857Y139775D01*
X157908Y139840D01*
X157953Y139910D01*
X157992Y139984D01*
X158025Y140062D01*
X158052Y140144D01*
X158073Y140231D01*
X158088Y140322D01*
X158097Y140417D01*
X158100Y140516D01*
X158900D01*
X158903Y140417D01*
D02*
G37*
G36*
X145904Y138967D02*
X145916Y138831D01*
X145936Y138711D01*
X145964Y138607D01*
X146000Y138519D01*
X146044Y138447D01*
X146096Y138391D01*
X146156Y138351D01*
X146224Y138327D01*
X146300Y138319D01*
X144700D01*
X144776Y138327D01*
X144844Y138351D01*
X144904Y138391D01*
X144956Y138447D01*
X145000Y138519D01*
X145036Y138607D01*
X145064Y138711D01*
X145084Y138831D01*
X145096Y138967D01*
X145100Y139119D01*
X145900D01*
X145904Y138967D01*
D02*
G37*
G36*
X143752Y135956D02*
X143744Y136032D01*
X143720Y136100D01*
X143679Y136160D01*
X143622Y136212D01*
X143549Y136256D01*
X143460Y136292D01*
X143354Y136320D01*
X143233Y136340D01*
X143095Y136352D01*
X142940Y136356D01*
Y137156D01*
X143095Y137160D01*
X143233Y137172D01*
X143354Y137192D01*
X143460Y137220D01*
X143549Y137256D01*
X143622Y137300D01*
X143679Y137352D01*
X143720Y137412D01*
X143744Y137480D01*
X143752Y137556D01*
Y135956D01*
D02*
G37*
G36*
X250000Y134776D02*
X249886Y134886D01*
X249771Y134985D01*
X249655Y135072D01*
X249538Y135147D01*
X249420Y135211D01*
X249302Y135263D01*
X249182Y135304D01*
X249062Y135333D01*
X248941Y135350D01*
X248818Y135356D01*
Y136156D01*
X248941Y136162D01*
X249062Y136179D01*
X249182Y136208D01*
X249302Y136249D01*
X249420Y136301D01*
X249538Y136365D01*
X249655Y136440D01*
X249771Y136527D01*
X249886Y136626D01*
X250000Y136736D01*
Y134776D01*
D02*
G37*
G36*
X244826Y134260D02*
X244743Y134169D01*
X244670Y134071D01*
X244605Y133966D01*
X244549Y133852D01*
X244502Y133731D01*
X244464Y133603D01*
X244435Y133467D01*
X244414Y133324D01*
X244403Y133173D01*
X244400Y133014D01*
X243014Y134400D01*
X243173Y134403D01*
X243324Y134414D01*
X243467Y134435D01*
X243603Y134464D01*
X243731Y134502D01*
X243852Y134549D01*
X243966Y134605D01*
X244071Y134670D01*
X244169Y134743D01*
X244260Y134826D01*
X244826Y134260D01*
D02*
G37*
G36*
X134256Y137480D02*
X134280Y137412D01*
X134321Y137352D01*
X134378Y137300D01*
X134451Y137256D01*
X134540Y137220D01*
X134645Y137192D01*
X134767Y137172D01*
X134905Y137160D01*
X135060Y137156D01*
Y136356D01*
X134905Y136352D01*
X134767Y136340D01*
X134645Y136320D01*
X134540Y136292D01*
X134451Y136256D01*
X134378Y136212D01*
X134321Y136160D01*
X134280Y136100D01*
X134256Y136032D01*
X134248Y135956D01*
Y137556D01*
X134256Y137480D01*
D02*
G37*
G36*
X252825Y137016D02*
X252743Y136925D01*
X252670Y136827D01*
X252605Y136722D01*
X252549Y136608D01*
X252502Y136487D01*
X252464Y136359D01*
X252435Y136223D01*
X252414Y136080D01*
X252403Y135929D01*
X252400Y135770D01*
X251014Y137156D01*
X251173Y137159D01*
X251324Y137170D01*
X251467Y137191D01*
X251603Y137220D01*
X251731Y137258D01*
X251852Y137305D01*
X251965Y137361D01*
X252071Y137426D01*
X252169Y137499D01*
X252260Y137581D01*
X252825Y137016D01*
D02*
G37*
G36*
X95643Y121248D02*
X95592Y121201D01*
X95547Y121144D01*
X95508Y121078D01*
X95475Y121004D01*
X95448Y120921D01*
X95427Y120829D01*
X95412Y120728D01*
X95403Y120618D01*
X95400Y120500D01*
X94600D01*
X94597Y120618D01*
X94588Y120728D01*
X94573Y120829D01*
X94552Y120921D01*
X94525Y121004D01*
X94492Y121078D01*
X94453Y121144D01*
X94408Y121201D01*
X94357Y121248D01*
X94300Y121288D01*
X95700D01*
X95643Y121248D01*
D02*
G37*
G36*
X145689Y120449D02*
X145713Y120436D01*
X145753Y120423D01*
X145809Y120413D01*
X145881Y120404D01*
X146073Y120391D01*
X146481Y120384D01*
Y119584D01*
X146329Y119583D01*
X145753Y119545D01*
X145713Y119533D01*
X145689Y119519D01*
X145681Y119504D01*
Y120464D01*
X145689Y120449D01*
D02*
G37*
G36*
X124315Y122724D02*
X124339Y122656D01*
X124380Y122596D01*
X124437Y122544D01*
X124510Y122500D01*
X124599Y122464D01*
X124705Y122436D01*
X124826Y122416D01*
X124964Y122404D01*
X125119Y122400D01*
Y121600D01*
X124964Y121596D01*
X124826Y121584D01*
X124705Y121564D01*
X124599Y121536D01*
X124510Y121500D01*
X124437Y121456D01*
X124380Y121404D01*
X124339Y121344D01*
X124315Y121276D01*
X124307Y121200D01*
Y122800D01*
X124315Y122724D01*
D02*
G37*
G36*
X206000Y120520D02*
X205886Y120630D01*
X205771Y120729D01*
X205655Y120816D01*
X205538Y120891D01*
X205420Y120955D01*
X205302Y121007D01*
X205182Y121048D01*
X205062Y121077D01*
X204941Y121094D01*
X204818Y121100D01*
Y121900D01*
X204941Y121906D01*
X205062Y121923D01*
X205182Y121952D01*
X205302Y121993D01*
X205420Y122045D01*
X205538Y122109D01*
X205655Y122184D01*
X205771Y122271D01*
X205886Y122370D01*
X206000Y122480D01*
Y120520D01*
D02*
G37*
G36*
X132319Y119504D02*
X132311Y119519D01*
X132287Y119533D01*
X132247Y119545D01*
X132191Y119555D01*
X132119Y119564D01*
X131927Y119577D01*
X131519Y119584D01*
Y120384D01*
X131671Y120385D01*
X132247Y120423D01*
X132287Y120436D01*
X132311Y120449D01*
X132319Y120464D01*
Y119504D01*
D02*
G37*
G36*
X252404Y117964D02*
X252416Y117826D01*
X252436Y117705D01*
X252464Y117599D01*
X252500Y117510D01*
X252544Y117437D01*
X252596Y117380D01*
X252656Y117339D01*
X252724Y117315D01*
X252800Y117307D01*
X251200D01*
X251276Y117315D01*
X251344Y117339D01*
X251404Y117380D01*
X251456Y117437D01*
X251500Y117510D01*
X251536Y117599D01*
X251564Y117705D01*
X251584Y117826D01*
X251596Y117964D01*
X251600Y118119D01*
X252400D01*
X252404Y117964D01*
D02*
G37*
G36*
X171326Y118260D02*
X171243Y118169D01*
X171170Y118071D01*
X171105Y117965D01*
X171049Y117852D01*
X171002Y117731D01*
X170964Y117603D01*
X170935Y117467D01*
X170914Y117324D01*
X170903Y117173D01*
X170900Y117014D01*
X169514Y118400D01*
X169673Y118403D01*
X169824Y118414D01*
X169967Y118435D01*
X170103Y118464D01*
X170231Y118502D01*
X170352Y118549D01*
X170466Y118605D01*
X170571Y118670D01*
X170669Y118743D01*
X170760Y118825D01*
X171326Y118260D01*
D02*
G37*
G36*
X145689Y118481D02*
X145713Y118467D01*
X145753Y118455D01*
X145809Y118445D01*
X145881Y118436D01*
X146073Y118423D01*
X146481Y118416D01*
Y117616D01*
X146329Y117615D01*
X145753Y117577D01*
X145713Y117564D01*
X145689Y117551D01*
X145681Y117536D01*
Y118496D01*
X145689Y118481D01*
D02*
G37*
G36*
X132319Y117536D02*
X132311Y117551D01*
X132287Y117564D01*
X132247Y117577D01*
X132191Y117587D01*
X132119Y117596D01*
X131927Y117608D01*
X131519Y117616D01*
Y118416D01*
X131671Y118417D01*
X132247Y118455D01*
X132287Y118467D01*
X132311Y118481D01*
X132319Y118496D01*
Y117536D01*
D02*
G37*
G36*
X142429Y125236D02*
X142453Y125168D01*
X142494Y125108D01*
X142551Y125056D01*
X142624Y125012D01*
X142713Y124976D01*
X142819Y124948D01*
X142941Y124928D01*
X143079Y124916D01*
X143233Y124912D01*
Y124112D01*
X143079Y124108D01*
X142941Y124096D01*
X142819Y124076D01*
X142713Y124048D01*
X142624Y124012D01*
X142551Y123968D01*
X142494Y123916D01*
X142453Y123856D01*
X142429Y123788D01*
X142421Y123712D01*
Y125312D01*
X142429Y125236D01*
D02*
G37*
G36*
X204304Y123614D02*
X204195Y123624D01*
X204088Y123623D01*
X203982Y123611D01*
X203878Y123588D01*
X203775Y123553D01*
X203674Y123508D01*
X203574Y123452D01*
X203475Y123385D01*
X203378Y123306D01*
X203283Y123217D01*
X202717Y123783D01*
X202806Y123878D01*
X202885Y123975D01*
X202952Y124074D01*
X203008Y124174D01*
X203053Y124275D01*
X203087Y124378D01*
X203111Y124482D01*
X203123Y124588D01*
X203124Y124695D01*
X203114Y124804D01*
X204304Y123614D01*
D02*
G37*
G36*
X118614Y127370D02*
X118729Y127271D01*
X118845Y127184D01*
X118962Y127109D01*
X119079Y127045D01*
X119198Y126993D01*
X119318Y126952D01*
X119438Y126923D01*
X119559Y126906D01*
X119682Y126900D01*
Y126100D01*
X119559Y126094D01*
X119438Y126077D01*
X119318Y126048D01*
X119198Y126007D01*
X119079Y125955D01*
X118962Y125891D01*
X118845Y125816D01*
X118729Y125729D01*
X118614Y125630D01*
X118500Y125520D01*
Y127480D01*
X118614Y127370D01*
D02*
G37*
G36*
X139516Y123712D02*
X139508Y123788D01*
X139484Y123856D01*
X139443Y123916D01*
X139386Y123968D01*
X139313Y124012D01*
X139224Y124048D01*
X139118Y124076D01*
X139000Y124095D01*
X138882Y124076D01*
X138776Y124048D01*
X138687Y124012D01*
X138614Y123968D01*
X138557Y123916D01*
X138516Y123856D01*
X138492Y123788D01*
X138484Y123712D01*
Y125312D01*
X138492Y125236D01*
X138516Y125168D01*
X138557Y125108D01*
X138614Y125056D01*
X138687Y125012D01*
X138776Y124976D01*
X138882Y124948D01*
X139000Y124928D01*
X139118Y124948D01*
X139224Y124976D01*
X139313Y125012D01*
X139386Y125056D01*
X139443Y125108D01*
X139484Y125168D01*
X139508Y125236D01*
X139516Y125312D01*
Y123712D01*
D02*
G37*
G36*
X103406Y124559D02*
X103423Y124438D01*
X103452Y124318D01*
X103493Y124198D01*
X103545Y124080D01*
X103609Y123962D01*
X103684Y123845D01*
X103771Y123729D01*
X103870Y123614D01*
X103980Y123500D01*
X102020D01*
X102130Y123614D01*
X102229Y123729D01*
X102316Y123845D01*
X102391Y123962D01*
X102455Y124080D01*
X102507Y124198D01*
X102548Y124318D01*
X102577Y124438D01*
X102594Y124559D01*
X102600Y124682D01*
X103400D01*
X103406Y124559D01*
D02*
G37*
G36*
X145689Y122418D02*
X145713Y122404D01*
X145753Y122392D01*
X145809Y122382D01*
X145881Y122373D01*
X146073Y122360D01*
X146481Y122353D01*
Y121553D01*
X146329Y121552D01*
X145753Y121513D01*
X145713Y121502D01*
X145689Y121488D01*
X145681Y121473D01*
Y122433D01*
X145689Y122418D01*
D02*
G37*
G36*
X132319Y121473D02*
X132311Y121488D01*
X132287Y121502D01*
X132247Y121513D01*
X132191Y121524D01*
X132119Y121533D01*
X131927Y121546D01*
X131519Y121553D01*
Y122353D01*
X131671Y122354D01*
X132247Y122392D01*
X132287Y122404D01*
X132311Y122418D01*
X132319Y122433D01*
Y121473D01*
D02*
G37*
G36*
X116244Y121020D02*
X116130Y121130D01*
X116015Y121229D01*
X115899Y121316D01*
X115782Y121391D01*
X115681Y121446D01*
Y121200D01*
X115673Y121276D01*
X115649Y121344D01*
X115609Y121404D01*
X115553Y121456D01*
X115481Y121500D01*
X115393Y121536D01*
X115289Y121564D01*
X115169Y121584D01*
X115033Y121596D01*
X114881Y121600D01*
Y122400D01*
X115033Y122404D01*
X115169Y122416D01*
X115289Y122436D01*
X115393Y122464D01*
X115481Y122500D01*
X115553Y122544D01*
X115609Y122596D01*
X115649Y122656D01*
X115673Y122724D01*
X115681Y122800D01*
Y122554D01*
X115782Y122609D01*
X115899Y122684D01*
X116015Y122771D01*
X116130Y122870D01*
X116244Y122980D01*
Y121020D01*
D02*
G37*
G36*
X150404Y122103D02*
X150268Y122108D01*
X150137Y122101D01*
X150010Y122085D01*
X149888Y122057D01*
X149769Y122020D01*
X149655Y121972D01*
X149545Y121913D01*
X149439Y121844D01*
X149337Y121765D01*
X149240Y121675D01*
X148674Y122240D01*
X148765Y122337D01*
X148844Y122439D01*
X148913Y122545D01*
X148972Y122655D01*
X149020Y122769D01*
X149057Y122888D01*
X149085Y123010D01*
X149101Y123137D01*
X149108Y123268D01*
X149103Y123404D01*
X150404Y122103D01*
D02*
G37*
G36*
X148252Y158216D02*
X148244Y158292D01*
X148220Y158360D01*
X148179Y158420D01*
X148122Y158472D01*
X148049Y158516D01*
X147960Y158552D01*
X147854Y158580D01*
X147733Y158600D01*
X147595Y158612D01*
X147440Y158616D01*
Y159416D01*
X147595Y159420D01*
X147733Y159432D01*
X147854Y159452D01*
X147960Y159480D01*
X148049Y159516D01*
X148122Y159560D01*
X148179Y159612D01*
X148220Y159672D01*
X148244Y159740D01*
X148252Y159816D01*
Y158216D01*
D02*
G37*
G36*
X187014Y159729D02*
X187269Y159559D01*
X187395Y159491D01*
X187519Y159432D01*
X187643Y159385D01*
X187765Y159348D01*
X187886Y159321D01*
X188006Y159305D01*
X188125Y159300D01*
X188219Y158500D01*
X188094Y158494D01*
X187972Y158475D01*
X187853Y158444D01*
X187737Y158401D01*
X187624Y158345D01*
X187513Y158277D01*
X187406Y158197D01*
X187302Y158104D01*
X187201Y157999D01*
X187103Y157881D01*
X186884Y159829D01*
X187014Y159729D01*
D02*
G37*
G36*
X207906Y159559D02*
X207923Y159438D01*
X207952Y159318D01*
X207993Y159198D01*
X208045Y159080D01*
X208109Y158962D01*
X208184Y158845D01*
X208271Y158729D01*
X208370Y158614D01*
X208480Y158500D01*
X206520D01*
X206630Y158614D01*
X206729Y158729D01*
X206816Y158845D01*
X206891Y158962D01*
X206955Y159080D01*
X207007Y159198D01*
X207048Y159318D01*
X207077Y159438D01*
X207094Y159559D01*
X207100Y159682D01*
X207900D01*
X207906Y159559D01*
D02*
G37*
G36*
X143854Y159560D02*
X143878Y159530D01*
X143918Y159503D01*
X143974Y159480D01*
X144046Y159460D01*
X144134Y159444D01*
X144238Y159432D01*
X144494Y159417D01*
X144646Y159416D01*
Y158616D01*
X144494Y158614D01*
X144134Y158587D01*
X144046Y158571D01*
X143974Y158552D01*
X143918Y158528D01*
X143878Y158502D01*
X143854Y158471D01*
X143846Y158437D01*
Y159594D01*
X143854Y159560D01*
D02*
G37*
G36*
X147424Y157966D02*
X147558Y157963D01*
X147628Y157957D01*
Y156569D01*
X152236D01*
Y155643D01*
X152207Y155577D01*
X152203Y155442D01*
X152197Y155372D01*
X151081D01*
Y150628D01*
X152500D01*
Y147500D01*
X146148D01*
X146098Y148000D01*
X146390Y148058D01*
X146721Y148279D01*
X148465Y150023D01*
X148686Y150354D01*
X148734Y150595D01*
X148749Y150628D01*
X149919D01*
Y155372D01*
X145569D01*
Y150628D01*
X145569D01*
X145622Y150501D01*
X145280Y150020D01*
X139422D01*
X139325Y150117D01*
X139143Y150542D01*
X139143Y150542D01*
X139143D01*
X139143Y150542D01*
Y151063D01*
X139181Y151154D01*
X139151Y151226D01*
X139163Y151303D01*
X139143Y151331D01*
Y156466D01*
X137561D01*
X137370Y156928D01*
X138093Y157651D01*
X138534Y157825D01*
Y157825D01*
X138534Y157825D01*
X143669D01*
X143697Y157805D01*
X143774Y157818D01*
X143846Y157788D01*
X143937Y157825D01*
X144458D01*
Y157960D01*
X144522Y157965D01*
X144654Y157966D01*
X144723Y157996D01*
X147357D01*
X147424Y157966D01*
D02*
G37*
G36*
X126154Y156469D02*
X126146Y156503D01*
X126122Y156533D01*
X126082Y156560D01*
X126026Y156583D01*
X125954Y156603D01*
X125866Y156619D01*
X125762Y156631D01*
X125506Y156646D01*
X125354Y156647D01*
Y157447D01*
X125506Y157449D01*
X125866Y157476D01*
X125954Y157492D01*
X126026Y157511D01*
X126082Y157535D01*
X126122Y157562D01*
X126146Y157592D01*
X126154Y157626D01*
Y156469D01*
D02*
G37*
G36*
X196614Y157370D02*
X196729Y157271D01*
X196845Y157184D01*
X196962Y157109D01*
X197080Y157045D01*
X197198Y156993D01*
X197318Y156952D01*
X197438Y156923D01*
X197559Y156906D01*
X197682Y156900D01*
Y156100D01*
X197559Y156094D01*
X197438Y156077D01*
X197318Y156048D01*
X197198Y156007D01*
X197080Y155955D01*
X196962Y155891D01*
X196845Y155816D01*
X196729Y155729D01*
X196614Y155630D01*
X196500Y155520D01*
Y157480D01*
X196614Y157370D01*
D02*
G37*
G36*
X177870Y159370D02*
X177985Y159271D01*
X178101Y159184D01*
X178218Y159109D01*
X178335Y159045D01*
X178454Y158993D01*
X178574Y158952D01*
X178694Y158923D01*
X178815Y158906D01*
X178937Y158900D01*
Y158100D01*
X178815Y158094D01*
X178694Y158077D01*
X178574Y158048D01*
X178454Y158007D01*
X178335Y157955D01*
X178218Y157891D01*
X178101Y157816D01*
X177985Y157729D01*
X177870Y157630D01*
X177756Y157520D01*
Y159480D01*
X177870Y159370D01*
D02*
G37*
G36*
X130862Y157592D02*
X130886Y157562D01*
X130926Y157535D01*
X130982Y157511D01*
X131054Y157492D01*
X131142Y157476D01*
X131246Y157463D01*
X131502Y157449D01*
X131654Y157447D01*
Y156647D01*
X131502Y156646D01*
X131142Y156619D01*
X131054Y156603D01*
X130982Y156583D01*
X130926Y156560D01*
X130886Y156533D01*
X130862Y156503D01*
X130854Y156469D01*
Y157626D01*
X130862Y157592D01*
D02*
G37*
G36*
X258000Y164020D02*
X257886Y164130D01*
X257771Y164229D01*
X257655Y164316D01*
X257538Y164391D01*
X257420Y164455D01*
X257302Y164507D01*
X257182Y164548D01*
X257062Y164577D01*
X256941Y164594D01*
X256818Y164600D01*
Y165400D01*
X256941Y165406D01*
X257062Y165423D01*
X257182Y165452D01*
X257302Y165493D01*
X257420Y165545D01*
X257538Y165609D01*
X257655Y165684D01*
X257771Y165771D01*
X257886Y165870D01*
X258000Y165980D01*
Y164020D01*
D02*
G37*
G36*
X128908Y164177D02*
X128920Y164039D01*
X128940Y163917D01*
X128968Y163812D01*
X129004Y163722D01*
X129048Y163649D01*
X129100Y163592D01*
X129160Y163552D01*
X129228Y163527D01*
X129304Y163519D01*
X127704D01*
X127780Y163527D01*
X127848Y163552D01*
X127908Y163592D01*
X127960Y163649D01*
X128004Y163722D01*
X128040Y163812D01*
X128068Y163917D01*
X128088Y164039D01*
X128100Y164177D01*
X128104Y164331D01*
X128904D01*
X128908Y164177D01*
D02*
G37*
G36*
X230343Y168177D02*
X230229Y168288D01*
X230114Y168386D01*
X229998Y168473D01*
X229881Y168549D01*
X229763Y168613D01*
X229644Y168665D01*
X229525Y168705D01*
X229404Y168734D01*
X229283Y168752D01*
X229161Y168757D01*
Y169557D01*
X229283Y169563D01*
X229404Y169581D01*
X229525Y169610D01*
X229644Y169650D01*
X229763Y169702D01*
X229881Y169766D01*
X229998Y169842D01*
X230114Y169929D01*
X230229Y170027D01*
X230343Y170138D01*
Y168177D01*
D02*
G37*
G36*
X132965Y192690D02*
X132966Y192559D01*
X132996Y192489D01*
Y188984D01*
X133074Y188594D01*
X133295Y188263D01*
X137480Y184078D01*
Y182202D01*
X137451Y182135D01*
X137447Y182001D01*
X137441Y181931D01*
X136128D01*
Y177581D01*
X140872D01*
Y179197D01*
X140942Y179203D01*
X141077Y179207D01*
X141143Y179236D01*
X142322D01*
X143725Y177834D01*
Y177143D01*
X143695Y177076D01*
X143691Y176942D01*
X143685Y176872D01*
X142569D01*
Y172128D01*
X144996D01*
X145092Y171991D01*
X145186Y171628D01*
X144279Y170721D01*
X144058Y170390D01*
X143980Y170000D01*
Y164422D01*
X143701Y164143D01*
X139600D01*
X139150Y164344D01*
X139143Y164352D01*
Y169458D01*
X133103D01*
X133098Y169522D01*
X133097Y169654D01*
X133067Y169723D01*
Y171808D01*
X133442Y172058D01*
X133884Y172720D01*
X134039Y173500D01*
X133884Y174280D01*
X133442Y174942D01*
X132780Y175384D01*
X132000Y175539D01*
X131220Y175384D01*
X130558Y174942D01*
X130116Y174280D01*
X130024Y173815D01*
X129524Y173864D01*
Y188082D01*
X130800Y189358D01*
X131021Y189689D01*
X131098Y190079D01*
Y192489D01*
X131128Y192559D01*
X131130Y192696D01*
X131133Y192754D01*
X132960D01*
X132965Y192690D01*
D02*
G37*
G36*
X138506Y164138D02*
X138484Y164114D01*
X138464Y164074D01*
X138447Y164018D01*
X138433Y163946D01*
X138421Y163858D01*
X138405Y163634D01*
X138400Y163346D01*
X137600D01*
X137598Y163498D01*
X137580Y163754D01*
X137564Y163858D01*
X137544Y163946D01*
X137519Y164018D01*
X137489Y164074D01*
X137455Y164114D01*
X137417Y164138D01*
X137374Y164146D01*
X138531D01*
X138506Y164138D01*
D02*
G37*
G36*
X126154Y160406D02*
X126146Y160440D01*
X126122Y160470D01*
X126082Y160497D01*
X126026Y160520D01*
X125954Y160540D01*
X125866Y160556D01*
X125762Y160568D01*
X125506Y160582D01*
X125354Y160584D01*
Y161384D01*
X125506Y161386D01*
X125866Y161413D01*
X125954Y161429D01*
X126026Y161449D01*
X126082Y161472D01*
X126122Y161498D01*
X126146Y161529D01*
X126154Y161563D01*
Y160406D01*
D02*
G37*
G36*
X152236Y169322D02*
Y160919D01*
X147628D01*
Y160075D01*
X147558Y160069D01*
X147424Y160065D01*
X147357Y160035D01*
X144723D01*
X144654Y160065D01*
X144516Y160067D01*
X144458Y160070D01*
Y160206D01*
X143937D01*
X143846Y160244D01*
X143774Y160214D01*
X143697Y160226D01*
X143669Y160206D01*
X139020D01*
Y161762D01*
X144458D01*
Y162088D01*
X144674Y162232D01*
X145721Y163279D01*
X145942Y163610D01*
X146020Y164000D01*
Y169578D01*
X146422Y169980D01*
X151578D01*
X152236Y169322D01*
D02*
G37*
G36*
X134418Y164146D02*
X134594D01*
X134560Y164138D01*
X134530Y164114D01*
X134503Y164074D01*
X134480Y164018D01*
X134460Y163946D01*
X134452Y163900D01*
X134468Y163833D01*
X134509Y163714D01*
X134561Y163595D01*
X134625Y163478D01*
X134700Y163361D01*
X134787Y163245D01*
X134886Y163130D01*
X134996Y163016D01*
X133036D01*
X133146Y163130D01*
X133245Y163245D01*
X133332Y163361D01*
X133407Y163478D01*
X133471Y163595D01*
X133523Y163714D01*
X133564Y163833D01*
X133580Y163900D01*
X133571Y163946D01*
X133552Y164018D01*
X133528Y164074D01*
X133502Y164114D01*
X133471Y164138D01*
X133437Y164146D01*
X133613D01*
X133616Y164197D01*
X134416D01*
X134418Y164146D01*
D02*
G37*
G36*
X244385Y162378D02*
X244387Y162230D01*
X244398Y162089D01*
X244420Y161956D01*
X244452Y161829D01*
X244494Y161709D01*
X244547Y161596D01*
X244610Y161490D01*
X244683Y161391D01*
X244767Y161299D01*
X244154Y160780D01*
X244065Y160861D01*
X243969Y160935D01*
X243864Y161001D01*
X243751Y161060D01*
X243630Y161112D01*
X243501Y161156D01*
X243363Y161193D01*
X243218Y161223D01*
X243064Y161246D01*
X242903Y161261D01*
X244394Y162532D01*
X244385Y162378D01*
D02*
G37*
G36*
X228406Y146315D02*
X228423Y146194D01*
X228452Y146074D01*
X228493Y145954D01*
X228545Y145835D01*
X228609Y145718D01*
X228684Y145601D01*
X228771Y145485D01*
X228870Y145370D01*
X228980Y145256D01*
X227020D01*
X227130Y145370D01*
X227229Y145485D01*
X227316Y145601D01*
X227391Y145718D01*
X227455Y145835D01*
X227507Y145954D01*
X227548Y146074D01*
X227577Y146194D01*
X227594Y146315D01*
X227600Y146438D01*
X228400D01*
X228406Y146315D01*
D02*
G37*
G36*
X138157Y145150D02*
X138177Y144872D01*
X138186Y144827D01*
X138197Y144792D01*
X138210Y144767D01*
X138224Y144753D01*
X138240Y144748D01*
X137271D01*
X137287Y144753D01*
X137302Y144767D01*
X137314Y144792D01*
X137326Y144827D01*
X137335Y144872D01*
X137342Y144926D01*
X137353Y145065D01*
X137356Y145244D01*
X138156D01*
X138157Y145150D01*
D02*
G37*
G36*
X202906Y147059D02*
X202923Y146938D01*
X202952Y146818D01*
X202993Y146698D01*
X203045Y146580D01*
X203109Y146462D01*
X203184Y146345D01*
X203271Y146229D01*
X203370Y146114D01*
X203480Y146000D01*
X201520D01*
X201630Y146114D01*
X201729Y146229D01*
X201816Y146345D01*
X201891Y146462D01*
X201955Y146580D01*
X202007Y146698D01*
X202048Y146818D01*
X202077Y146938D01*
X202094Y147059D01*
X202100Y147182D01*
X202900D01*
X202906Y147059D01*
D02*
G37*
G36*
X260538Y147446D02*
X260299Y147229D01*
X260088Y147013D01*
X259906Y146796D01*
X259751Y146580D01*
X259625Y146363D01*
X259526Y146147D01*
X259456Y145931D01*
X259414Y145716D01*
X259400Y145500D01*
X258600D01*
X258586Y145716D01*
X258544Y145931D01*
X258473Y146147D01*
X258375Y146363D01*
X258249Y146580D01*
X258094Y146796D01*
X257911Y147013D01*
X257701Y147229D01*
X257462Y147446D01*
X257195Y147663D01*
X260805D01*
X260538Y147446D01*
D02*
G37*
G36*
X128404Y145231D02*
X128418Y145108D01*
X128439Y144991D01*
X128470Y144881D01*
X128509Y144778D01*
X128557Y144682D01*
X128614Y144593D01*
X128680Y144510D01*
X128754Y144435D01*
X128837Y144366D01*
X127163D01*
X127246Y144435D01*
X127320Y144510D01*
X127386Y144593D01*
X127443Y144682D01*
X127491Y144778D01*
X127530Y144881D01*
X127561Y144991D01*
X127583Y145108D01*
X127596Y145231D01*
X127600Y145362D01*
X128400D01*
X128404Y145231D01*
D02*
G37*
G36*
X132722Y141247D02*
X132706Y141232D01*
X132691Y141207D01*
X132679Y141171D01*
X132668Y141125D01*
X132659Y141069D01*
X132648Y140927D01*
X132644Y140744D01*
X131844D01*
X131843Y140841D01*
X131829Y141069D01*
X131820Y141125D01*
X131809Y141171D01*
X131797Y141207D01*
X131782Y141232D01*
X131766Y141247D01*
X131748Y141252D01*
X132740D01*
X132722Y141247D01*
D02*
G37*
G36*
X129783Y139717D02*
X129694Y139622D01*
X129615Y139525D01*
X129548Y139426D01*
X129492Y139326D01*
X129447Y139225D01*
X129412Y139122D01*
X129389Y139018D01*
X129377Y138912D01*
X129376Y138805D01*
X129386Y138696D01*
X128196Y139886D01*
X128305Y139876D01*
X128412Y139877D01*
X128518Y139889D01*
X128622Y139912D01*
X128725Y139947D01*
X128826Y139992D01*
X128926Y140048D01*
X129025Y140115D01*
X129122Y140194D01*
X129217Y140283D01*
X129783Y139717D01*
D02*
G37*
G36*
X139327Y144224D02*
X139351Y144156D01*
X139391Y144096D01*
X139447Y144044D01*
X139519Y144000D01*
X139607Y143964D01*
X139711Y143936D01*
X139831Y143916D01*
X139967Y143904D01*
X140119Y143900D01*
Y143100D01*
X139967Y143096D01*
X139831Y143084D01*
X139711Y143064D01*
X139607Y143036D01*
X139519Y143000D01*
X139447Y142956D01*
X139391Y142904D01*
X139351Y142844D01*
X139327Y142776D01*
X139319Y142700D01*
Y144300D01*
X139327Y144224D01*
D02*
G37*
G36*
X172114Y144370D02*
X172229Y144271D01*
X172345Y144184D01*
X172462Y144109D01*
X172580Y144045D01*
X172698Y143993D01*
X172818Y143952D01*
X172938Y143923D01*
X173059Y143906D01*
X173182Y143900D01*
Y143100D01*
X173059Y143094D01*
X172938Y143077D01*
X172818Y143048D01*
X172698Y143007D01*
X172580Y142955D01*
X172462Y142891D01*
X172345Y142816D01*
X172229Y142729D01*
X172114Y142630D01*
X172000Y142520D01*
Y144480D01*
X172114Y144370D01*
D02*
G37*
G36*
X251288Y154300D02*
X251249Y154357D01*
X251201Y154408D01*
X251144Y154453D01*
X251078Y154492D01*
X251004Y154525D01*
X250921Y154552D01*
X250829Y154573D01*
X250728Y154588D01*
X250619Y154597D01*
X250500Y154600D01*
Y155400D01*
X250619Y155403D01*
X250728Y155412D01*
X250829Y155427D01*
X250921Y155448D01*
X251004Y155475D01*
X251078Y155508D01*
X251144Y155547D01*
X251201Y155592D01*
X251249Y155643D01*
X251288Y155700D01*
Y154300D01*
D02*
G37*
G36*
X205403Y154882D02*
X205412Y154772D01*
X205427Y154671D01*
X205448Y154579D01*
X205475Y154496D01*
X205508Y154422D01*
X205547Y154356D01*
X205592Y154299D01*
X205643Y154252D01*
X205700Y154212D01*
X204300D01*
X204357Y154252D01*
X204408Y154299D01*
X204453Y154356D01*
X204492Y154422D01*
X204525Y154496D01*
X204552Y154579D01*
X204573Y154671D01*
X204588Y154772D01*
X204597Y154882D01*
X204600Y155000D01*
X205400D01*
X205403Y154882D01*
D02*
G37*
G36*
X260750Y157571D02*
X260217Y156972D01*
X260000Y156693D01*
X259817Y156427D01*
X259667Y156175D01*
X259550Y155937D01*
X259467Y155712D01*
X259417Y155500D01*
X259400Y155303D01*
X258600D01*
X258583Y155500D01*
X258533Y155712D01*
X258450Y155937D01*
X258333Y156175D01*
X258183Y156427D01*
X258000Y156693D01*
X257783Y156972D01*
X257250Y157571D01*
X256933Y157891D01*
X261067D01*
X260750Y157571D01*
D02*
G37*
G36*
X153660Y155405D02*
X153672Y155267D01*
X153692Y155146D01*
X153720Y155040D01*
X153756Y154951D01*
X153800Y154878D01*
X153852Y154821D01*
X153912Y154780D01*
X153980Y154756D01*
X154056Y154748D01*
X152456D01*
X152532Y154756D01*
X152600Y154780D01*
X152660Y154821D01*
X152712Y154878D01*
X152756Y154951D01*
X152792Y155040D01*
X152820Y155146D01*
X152840Y155267D01*
X152852Y155405D01*
X152856Y155560D01*
X153656D01*
X153660Y155405D01*
D02*
G37*
G36*
X148222Y151247D02*
X148206Y151232D01*
X148191Y151207D01*
X148179Y151171D01*
X148168Y151125D01*
X148160Y151069D01*
X148148Y150927D01*
X148144Y150744D01*
X147344D01*
X147343Y150841D01*
X147329Y151069D01*
X147320Y151125D01*
X147309Y151171D01*
X147297Y151207D01*
X147283Y151232D01*
X147266Y151247D01*
X147248Y151252D01*
X148240D01*
X148222Y151247D01*
D02*
G37*
G36*
X113768Y151066D02*
X113860Y150926D01*
X113963Y150803D01*
X114077Y150696D01*
X114203Y150605D01*
X114340Y150531D01*
X114488Y150474D01*
X114647Y150433D01*
X114818Y150408D01*
X115000Y150400D01*
Y149600D01*
X114818Y149592D01*
X114647Y149567D01*
X114488Y149526D01*
X114340Y149469D01*
X114203Y149395D01*
X114077Y149304D01*
X113963Y149197D01*
X113860Y149074D01*
X113768Y148934D01*
X113688Y148778D01*
Y151222D01*
X113768Y151066D01*
D02*
G37*
G36*
X125346Y155998D02*
X125484Y155996D01*
X125542Y155993D01*
Y155857D01*
X126063D01*
X126154Y155819D01*
X126226Y155849D01*
X126303Y155837D01*
X126331Y155857D01*
X130677D01*
X130705Y155837D01*
X130857Y155355D01*
Y150542D01*
X136897D01*
X136902Y150478D01*
X136903Y150346D01*
X136933Y150277D01*
Y150047D01*
X137011Y149657D01*
X137232Y149326D01*
X138279Y148279D01*
X138610Y148058D01*
X138901Y148000D01*
X138852Y147500D01*
X136942D01*
X136221Y148221D01*
X135890Y148442D01*
X135500Y148520D01*
X130138D01*
X129748Y148442D01*
X129417Y148221D01*
X128696Y147500D01*
X122149D01*
X121942Y148000D01*
X123221Y149279D01*
X123442Y149610D01*
X123520Y150000D01*
Y155672D01*
X123875Y156028D01*
X125277D01*
X125346Y155998D01*
D02*
G37*
G36*
X138497Y151146D02*
X138467Y151122D01*
X138440Y151082D01*
X138417Y151026D01*
X138397Y150954D01*
X138381Y150866D01*
X138369Y150762D01*
X138355Y150506D01*
X138353Y150354D01*
X137553D01*
X137551Y150506D01*
X137524Y150866D01*
X137508Y150954D01*
X137488Y151026D01*
X137465Y151082D01*
X137438Y151122D01*
X137408Y151146D01*
X137374Y151154D01*
X138531D01*
X138497Y151146D01*
D02*
G37*
G36*
X243814Y151009D02*
X244097Y150548D01*
X244171Y150445D01*
X244403Y150166D01*
X244483Y150083D01*
X244277Y149157D01*
X244179Y149246D01*
X244080Y149318D01*
X243978Y149374D01*
X243875Y149413D01*
X243770Y149435D01*
X243664Y149441D01*
X243555Y149430D01*
X243445Y149403D01*
X243333Y149359D01*
X243219Y149299D01*
X243747Y151137D01*
X243814Y151009D01*
D02*
G37*
G36*
X277160Y117405D02*
X277172Y117267D01*
X277192Y117146D01*
X277220Y117040D01*
X277256Y116951D01*
X277300Y116878D01*
X277352Y116821D01*
X277412Y116780D01*
X277480Y116756D01*
X277556Y116748D01*
X275956D01*
X276032Y116756D01*
X276100Y116780D01*
X276160Y116821D01*
X276212Y116878D01*
X276256Y116951D01*
X276292Y117040D01*
X276320Y117146D01*
X276340Y117267D01*
X276352Y117405D01*
X276356Y117560D01*
X277156D01*
X277160Y117405D01*
D02*
G37*
G36*
X189846Y94204D02*
X189871Y94136D01*
X189911Y94076D01*
X189968Y94024D01*
X190041Y93980D01*
X190130Y93944D01*
X190236Y93916D01*
X190358Y93896D01*
X190496Y93884D01*
X190650Y93880D01*
Y93080D01*
X190496Y93076D01*
X190358Y93064D01*
X190236Y93044D01*
X190130Y93016D01*
X190041Y92980D01*
X189968Y92936D01*
X189911Y92884D01*
X189871Y92824D01*
X189846Y92756D01*
X189838Y92680D01*
Y94280D01*
X189846Y94204D01*
D02*
G37*
G36*
X218724Y92673D02*
X218656Y92649D01*
X218596Y92609D01*
X218544Y92553D01*
X218500Y92481D01*
X218464Y92393D01*
X218436Y92289D01*
X218416Y92169D01*
X218404Y92033D01*
X218400Y91881D01*
X217600D01*
X217596Y92033D01*
X217584Y92169D01*
X217564Y92289D01*
X217536Y92393D01*
X217500Y92481D01*
X217456Y92553D01*
X217404Y92609D01*
X217344Y92649D01*
X217276Y92673D01*
X217200Y92681D01*
X218800D01*
X218724Y92673D01*
D02*
G37*
G36*
X269524Y93551D02*
X269406Y93642D01*
X269275Y93698D01*
X269129Y93717D01*
X268969Y93700D01*
X268794Y93647D01*
X268605Y93557D01*
X268402Y93431D01*
X268185Y93269D01*
X267953Y93070D01*
X267707Y92835D01*
X266293Y94249D01*
X266528Y94495D01*
X266727Y94727D01*
X266889Y94945D01*
X267015Y95148D01*
X267105Y95336D01*
X267158Y95511D01*
X267175Y95671D01*
X267156Y95817D01*
X267100Y95948D01*
X267008Y96066D01*
X269524Y93551D01*
D02*
G37*
G36*
X173665Y94204D02*
X173690Y94136D01*
X173730Y94076D01*
X173787Y94024D01*
X173860Y93980D01*
X173949Y93944D01*
X174055Y93916D01*
X174177Y93896D01*
X174315Y93884D01*
X174469Y93880D01*
Y93080D01*
X174315Y93076D01*
X174177Y93064D01*
X174055Y93044D01*
X173949Y93016D01*
X173860Y92980D01*
X173787Y92936D01*
X173730Y92884D01*
X173690Y92824D01*
X173665Y92756D01*
X173657Y92680D01*
Y94280D01*
X173665Y94204D01*
D02*
G37*
G36*
X210102Y93000D02*
X210127Y92932D01*
X210167Y92872D01*
X210224Y92820D01*
X210297Y92776D01*
X210386Y92740D01*
X210492Y92712D01*
X210614Y92692D01*
X210752Y92680D01*
X210906Y92676D01*
Y91876D01*
X210752Y91872D01*
X210614Y91860D01*
X210492Y91840D01*
X210386Y91812D01*
X210297Y91776D01*
X210224Y91732D01*
X210167Y91680D01*
X210127Y91620D01*
X210102Y91552D01*
X210094Y91476D01*
Y93076D01*
X210102Y93000D01*
D02*
G37*
G36*
X205870Y91162D02*
X205771Y91047D01*
X205684Y90931D01*
X205609Y90814D01*
X205545Y90696D01*
X205493Y90577D01*
X205452Y90458D01*
X205423Y90338D01*
X205406Y90216D01*
X205400Y90094D01*
X204600D01*
X204594Y90216D01*
X204577Y90338D01*
X204548Y90458D01*
X204507Y90577D01*
X204455Y90696D01*
X204391Y90814D01*
X204316Y90931D01*
X204229Y91047D01*
X204130Y91162D01*
X204020Y91276D01*
X205980D01*
X205870Y91162D01*
D02*
G37*
G36*
X205724Y89732D02*
X205656Y89708D01*
X205596Y89667D01*
X205544Y89611D01*
X205500Y89538D01*
X205464Y89448D01*
X205436Y89343D01*
X205416Y89221D01*
X205416Y89218D01*
X205423Y89155D01*
X205451Y89007D01*
X205490Y88863D01*
X205541Y88724D01*
X205604Y88590D01*
X205677Y88460D01*
X205762Y88336D01*
X205858Y88216D01*
X205966Y88100D01*
X205566Y87369D01*
X205454Y87471D01*
X205344Y87554D01*
X205236Y87616D01*
X205130Y87657D01*
X205026Y87678D01*
X204925Y87678D01*
X204825Y87657D01*
X204727Y87616D01*
X204632Y87555D01*
X204539Y87473D01*
X204034Y88100D01*
X204142Y88216D01*
X204238Y88336D01*
X204323Y88460D01*
X204396Y88590D01*
X204459Y88724D01*
X204509Y88863D01*
X204549Y89007D01*
X204577Y89155D01*
X204584Y89218D01*
X204584Y89221D01*
X204564Y89343D01*
X204536Y89448D01*
X204500Y89538D01*
X204456Y89611D01*
X204404Y89667D01*
X204344Y89708D01*
X204276Y89732D01*
X204200Y89741D01*
X205800D01*
X205724Y89732D01*
D02*
G37*
G36*
X199906Y91476D02*
X199898Y91552D01*
X199873Y91620D01*
X199833Y91680D01*
X199776Y91732D01*
X199703Y91776D01*
X199614Y91812D01*
X199508Y91840D01*
X199386Y91860D01*
X199248Y91872D01*
X199094Y91876D01*
Y92676D01*
X199248Y92680D01*
X199386Y92692D01*
X199508Y92712D01*
X199614Y92740D01*
X199703Y92776D01*
X199776Y92820D01*
X199833Y92872D01*
X199873Y92932D01*
X199898Y93000D01*
X199906Y93076D01*
Y91476D01*
D02*
G37*
G36*
X168406Y92059D02*
X168423Y91938D01*
X168452Y91818D01*
X168493Y91698D01*
X168545Y91580D01*
X168609Y91462D01*
X168684Y91345D01*
X168771Y91229D01*
X168870Y91114D01*
X168980Y91000D01*
X167020D01*
X167130Y91114D01*
X167229Y91229D01*
X167316Y91345D01*
X167391Y91462D01*
X167455Y91580D01*
X167507Y91698D01*
X167548Y91818D01*
X167577Y91938D01*
X167594Y92059D01*
X167600Y92182D01*
X168400D01*
X168406Y92059D01*
D02*
G37*
G36*
X115681Y99200D02*
X115673Y99276D01*
X115649Y99344D01*
X115609Y99404D01*
X115553Y99456D01*
X115481Y99500D01*
X115393Y99536D01*
X115289Y99564D01*
X115169Y99584D01*
X115033Y99596D01*
X114881Y99600D01*
Y100400D01*
X115033Y100404D01*
X115169Y100416D01*
X115289Y100436D01*
X115393Y100464D01*
X115481Y100500D01*
X115553Y100544D01*
X115609Y100596D01*
X115649Y100656D01*
X115673Y100724D01*
X115681Y100800D01*
Y99200D01*
D02*
G37*
G36*
X199894Y104271D02*
Y99177D01*
X199854Y99429D01*
X199734Y99654D01*
X199534Y99852D01*
X199254Y100024D01*
X198894Y100169D01*
X198454Y100288D01*
X197934Y100381D01*
X197334Y100447D01*
X195894Y100500D01*
Y104500D01*
X199894Y104271D01*
D02*
G37*
G36*
X127252Y99200D02*
X127244Y99276D01*
X127220Y99344D01*
X127179Y99404D01*
X127122Y99456D01*
X127049Y99500D01*
X126960Y99536D01*
X126855Y99564D01*
X126733Y99584D01*
X126595Y99596D01*
X126440Y99600D01*
Y100400D01*
X126595Y100404D01*
X126733Y100416D01*
X126855Y100436D01*
X126960Y100464D01*
X127049Y100500D01*
X127122Y100544D01*
X127179Y100596D01*
X127220Y100656D01*
X127244Y100724D01*
X127252Y100800D01*
Y99200D01*
D02*
G37*
G36*
X124315Y100724D02*
X124339Y100656D01*
X124380Y100596D01*
X124437Y100544D01*
X124510Y100500D01*
X124599Y100464D01*
X124705Y100436D01*
X124826Y100416D01*
X124964Y100404D01*
X125119Y100400D01*
Y99600D01*
X124964Y99596D01*
X124826Y99584D01*
X124705Y99564D01*
X124599Y99536D01*
X124510Y99500D01*
X124437Y99456D01*
X124380Y99404D01*
X124339Y99344D01*
X124315Y99276D01*
X124307Y99200D01*
Y100800D01*
X124315Y100724D01*
D02*
G37*
G36*
X216252Y98956D02*
X216244Y99032D01*
X216220Y99100D01*
X216179Y99160D01*
X216122Y99212D01*
X216049Y99256D01*
X215960Y99292D01*
X215855Y99320D01*
X215733Y99340D01*
X215595Y99352D01*
X215440Y99356D01*
Y100156D01*
X215595Y100160D01*
X215733Y100172D01*
X215855Y100192D01*
X215960Y100220D01*
X216049Y100256D01*
X216122Y100300D01*
X216179Y100352D01*
X216220Y100412D01*
X216244Y100480D01*
X216252Y100556D01*
Y98956D01*
D02*
G37*
G36*
X266637Y99490D02*
X267801Y98476D01*
X267864Y98454D01*
X267901Y98463D01*
X266248Y96810D01*
X266256Y96846D01*
X266234Y96909D01*
X266181Y96998D01*
X266098Y97112D01*
X265984Y97253D01*
X265457Y97829D01*
X264953Y98343D01*
X266367Y99757D01*
X266637Y99490D01*
D02*
G37*
G36*
X158769Y95941D02*
X157976Y95119D01*
X156729Y93647D01*
X156275Y92996D01*
X155935Y92402D01*
X155707Y91865D01*
X155593Y91385D01*
X155592Y90961D01*
X155704Y90594D01*
X155929Y90284D01*
X153000Y93213D01*
X150071Y90284D01*
X150296Y90594D01*
X150408Y90961D01*
X150407Y91385D01*
X150293Y91865D01*
X150065Y92402D01*
X149725Y92996D01*
X149271Y93647D01*
X148704Y94355D01*
X147231Y95941D01*
X150059Y98769D01*
X150881Y97976D01*
X152353Y96729D01*
X153000Y96278D01*
X153647Y96729D01*
X154355Y97296D01*
X155941Y98769D01*
X158769Y95941D01*
D02*
G37*
G36*
X209464Y99181D02*
X209396Y99157D01*
X209336Y99116D01*
X209284Y99059D01*
X209240Y98986D01*
X209204Y98897D01*
X209176Y98791D01*
X209156Y98670D01*
X209144Y98532D01*
X209140Y98377D01*
X208340D01*
X208336Y98532D01*
X208324Y98670D01*
X208304Y98791D01*
X208276Y98897D01*
X208240Y98986D01*
X208196Y99059D01*
X208144Y99116D01*
X208084Y99157D01*
X208016Y99181D01*
X207940Y99189D01*
X209540D01*
X209464Y99181D01*
D02*
G37*
G36*
X103774Y97919D02*
X103668Y97807D01*
X103579Y97701D01*
X103507Y97601D01*
X103452Y97506D01*
X103414Y97418D01*
X103394Y97335D01*
X103390Y97258D01*
X103404Y97187D01*
X103435Y97122D01*
X103483Y97062D01*
X102351Y98193D01*
X102411Y98145D01*
X102476Y98115D01*
X102547Y98101D01*
X102624Y98104D01*
X102707Y98125D01*
X102796Y98163D01*
X102890Y98217D01*
X102990Y98289D01*
X103096Y98378D01*
X103208Y98485D01*
X103774Y97919D01*
D02*
G37*
G36*
X290275Y77385D02*
X291261Y76531D01*
X291384Y76457D01*
X291483Y76415D01*
X291558Y76405D01*
X291608Y76426D01*
X289815Y74634D01*
X289837Y74684D01*
X289827Y74758D01*
X289785Y74857D01*
X289710Y74981D01*
X289604Y75129D01*
X289465Y75302D01*
X288857Y75967D01*
X288591Y76237D01*
X290005Y77651D01*
X290275Y77385D01*
D02*
G37*
G36*
X86520Y71389D02*
X86461Y71437D01*
X86396Y71468D01*
X86325Y71482D01*
X86247Y71478D01*
X86165Y71458D01*
X86076Y71420D01*
X85982Y71365D01*
X85881Y71293D01*
X85775Y71204D01*
X85663Y71098D01*
X85098Y71663D01*
X85204Y71775D01*
X85293Y71881D01*
X85365Y71982D01*
X85420Y72076D01*
X85458Y72165D01*
X85478Y72247D01*
X85482Y72325D01*
X85468Y72396D01*
X85437Y72461D01*
X85389Y72520D01*
X86520Y71389D01*
D02*
G37*
G36*
X288798Y80003D02*
X288721Y79840D01*
X288685Y79664D01*
X288692Y79473D01*
X288742Y79268D01*
X288834Y79049D01*
X288968Y78815D01*
X289145Y78568D01*
X289364Y78306D01*
X289626Y78030D01*
X288211Y76616D01*
X287937Y76879D01*
X287439Y77286D01*
X287216Y77431D01*
X287010Y77535D01*
X286820Y77601D01*
X286648Y77626D01*
X286492Y77612D01*
X286354Y77558D01*
X286232Y77465D01*
X288919Y80152D01*
X288798Y80003D01*
D02*
G37*
G36*
X81410Y76237D02*
X81143Y75967D01*
X80290Y74981D01*
X80215Y74857D01*
X80173Y74758D01*
X80163Y74684D01*
X80185Y74634D01*
X78392Y76426D01*
X78442Y76405D01*
X78517Y76415D01*
X78616Y76457D01*
X78739Y76531D01*
X78887Y76638D01*
X79060Y76776D01*
X79725Y77385D01*
X79995Y77651D01*
X81410Y76237D01*
D02*
G37*
G36*
X284563Y72461D02*
X284532Y72396D01*
X284518Y72325D01*
X284522Y72247D01*
X284542Y72165D01*
X284580Y72076D01*
X284635Y71982D01*
X284707Y71881D01*
X284796Y71775D01*
X284902Y71663D01*
X284337Y71098D01*
X284225Y71204D01*
X284119Y71293D01*
X284018Y71365D01*
X283924Y71420D01*
X283835Y71458D01*
X283752Y71478D01*
X283676Y71482D01*
X283604Y71468D01*
X283539Y71437D01*
X283480Y71389D01*
X284611Y72520D01*
X284563Y72461D01*
D02*
G37*
G36*
X300512Y63380D02*
X300452Y63429D01*
X300387Y63460D01*
X300317Y63474D01*
X300240Y63471D01*
X300158Y63451D01*
X300071Y63415D01*
X299977Y63361D01*
X299878Y63290D01*
X299774Y63202D01*
X299663Y63098D01*
X299098Y63663D01*
X299202Y63774D01*
X299290Y63878D01*
X299361Y63977D01*
X299414Y64071D01*
X299451Y64158D01*
X299471Y64240D01*
X299474Y64317D01*
X299460Y64387D01*
X299429Y64452D01*
X299380Y64512D01*
X300512Y63380D01*
D02*
G37*
G36*
X70571Y64452D02*
X70540Y64387D01*
X70526Y64317D01*
X70529Y64240D01*
X70549Y64158D01*
X70586Y64071D01*
X70639Y63977D01*
X70710Y63878D01*
X70798Y63774D01*
X70902Y63663D01*
X70337Y63098D01*
X70226Y63202D01*
X70122Y63290D01*
X70023Y63361D01*
X69929Y63415D01*
X69842Y63451D01*
X69760Y63471D01*
X69683Y63474D01*
X69613Y63460D01*
X69547Y63429D01*
X69488Y63380D01*
X70619Y64512D01*
X70571Y64452D01*
D02*
G37*
G36*
X67144Y70476D02*
X67038Y70364D01*
X66949Y70258D01*
X66877Y70157D01*
X66822Y70063D01*
X66784Y69974D01*
X66764Y69892D01*
X66760Y69815D01*
X66774Y69744D01*
X66805Y69678D01*
X66853Y69619D01*
X65721Y70750D01*
X65781Y70702D01*
X65846Y70671D01*
X65917Y70658D01*
X65994Y70661D01*
X66077Y70682D01*
X66166Y70719D01*
X66260Y70774D01*
X66360Y70846D01*
X66466Y70935D01*
X66578Y71042D01*
X67144Y70476D01*
D02*
G37*
G36*
X303534Y70935D02*
X303640Y70846D01*
X303740Y70774D01*
X303834Y70719D01*
X303923Y70682D01*
X304006Y70661D01*
X304083Y70658D01*
X304154Y70671D01*
X304219Y70702D01*
X304279Y70750D01*
X303147Y69619D01*
X303195Y69678D01*
X303226Y69744D01*
X303240Y69815D01*
X303236Y69892D01*
X303216Y69974D01*
X303178Y70063D01*
X303123Y70157D01*
X303051Y70258D01*
X302962Y70364D01*
X302856Y70476D01*
X303422Y71042D01*
X303534Y70935D01*
D02*
G37*
G36*
X80011Y81768D02*
X79872Y81740D01*
X79689Y81657D01*
X79627Y81620D01*
X80160Y81090D01*
X80011Y81210D01*
X79848Y81287D01*
X79671Y81322D01*
X79479Y81314D01*
X79273Y81264D01*
X79053Y81171D01*
X78893Y81078D01*
X78524Y80774D01*
X77318Y79648D01*
X76531Y78739D01*
X76457Y78616D01*
X76415Y78517D01*
X76405Y78442D01*
X76426Y78392D01*
X74634Y80185D01*
X74684Y80163D01*
X74758Y80173D01*
X74857Y80215D01*
X74981Y80290D01*
X75129Y80396D01*
X75302Y80535D01*
X75837Y81024D01*
X77503Y82927D01*
X77535Y82990D01*
X77601Y83180D01*
X77626Y83352D01*
X77612Y83508D01*
X77558Y83646D01*
X77465Y83768D01*
X77857Y83378D01*
X77899Y83447D01*
X77982Y83630D01*
X78009Y83769D01*
X80011Y81768D01*
D02*
G37*
G36*
X279903Y84827D02*
X279914Y84676D01*
X279935Y84533D01*
X279964Y84397D01*
X280002Y84268D01*
X280049Y84148D01*
X280105Y84035D01*
X280170Y83929D01*
X280243Y83831D01*
X280326Y83740D01*
X279760Y83175D01*
X279669Y83257D01*
X279571Y83330D01*
X279466Y83395D01*
X279352Y83451D01*
X279232Y83498D01*
X279103Y83536D01*
X278967Y83565D01*
X278824Y83586D01*
X278673Y83597D01*
X278514Y83600D01*
X279900Y84986D01*
X279903Y84827D01*
D02*
G37*
G36*
X268622Y89100D02*
X268722Y89027D01*
X268828Y88966D01*
X268940Y88917D01*
X269058Y88880D01*
X269182Y88855D01*
X269312Y88842D01*
X269447Y88841D01*
X269589Y88852D01*
X269737Y88875D01*
X268620Y87265D01*
X268589Y87429D01*
X268510Y87730D01*
X268463Y87868D01*
X268411Y87997D01*
X268353Y88117D01*
X268290Y88229D01*
X268222Y88332D01*
X268149Y88427D01*
X268070Y88512D01*
X268529Y89185D01*
X268622Y89100D01*
D02*
G37*
G36*
X95870Y86386D02*
X95771Y86271D01*
X95684Y86155D01*
X95609Y86038D01*
X95545Y85921D01*
X95493Y85802D01*
X95452Y85682D01*
X95423Y85562D01*
X95406Y85441D01*
X95400Y85318D01*
X94600D01*
X94594Y85441D01*
X94577Y85562D01*
X94548Y85682D01*
X94507Y85802D01*
X94455Y85921D01*
X94391Y86038D01*
X94316Y86155D01*
X94229Y86271D01*
X94130Y86386D01*
X94020Y86500D01*
X95980D01*
X95870Y86386D01*
D02*
G37*
G36*
X291746Y83803D02*
X291775Y83694D01*
X291820Y83580D01*
X291879Y83461D01*
X291953Y83336D01*
X292042Y83205D01*
X292146Y83068D01*
X292399Y82779D01*
X292547Y82625D01*
X291265Y81079D01*
X291112Y81226D01*
X290820Y81471D01*
X290681Y81569D01*
X290546Y81650D01*
X290417Y81714D01*
X290292Y81762D01*
X290171Y81794D01*
X290056Y81809D01*
X289945Y81807D01*
X291731Y83906D01*
X291746Y83803D01*
D02*
G37*
G36*
X277774Y78798D02*
X277878Y78710D01*
X277977Y78639D01*
X278071Y78585D01*
X278158Y78549D01*
X278240Y78529D01*
X278317Y78526D01*
X278387Y78540D01*
X278452Y78571D01*
X278512Y78619D01*
X277380Y77488D01*
X277429Y77548D01*
X277460Y77613D01*
X277474Y77683D01*
X277471Y77760D01*
X277451Y77842D01*
X277414Y77929D01*
X277361Y78023D01*
X277290Y78122D01*
X277202Y78226D01*
X277098Y78337D01*
X277663Y78902D01*
X277774Y78798D01*
D02*
G37*
G36*
X83906Y78269D02*
X83803Y78254D01*
X83694Y78225D01*
X83580Y78180D01*
X83461Y78121D01*
X83336Y78047D01*
X83205Y77958D01*
X83068Y77854D01*
X82779Y77601D01*
X82625Y77453D01*
X81079Y78735D01*
X81226Y78888D01*
X81471Y79180D01*
X81569Y79319D01*
X81650Y79454D01*
X81714Y79583D01*
X81762Y79708D01*
X81794Y79829D01*
X81809Y79944D01*
X81807Y80055D01*
X83906Y78269D01*
D02*
G37*
G36*
X92902Y78337D02*
X92798Y78226D01*
X92710Y78122D01*
X92639Y78023D01*
X92585Y77929D01*
X92549Y77842D01*
X92529Y77760D01*
X92526Y77683D01*
X92540Y77613D01*
X92571Y77548D01*
X92620Y77488D01*
X91488Y78619D01*
X91548Y78571D01*
X91613Y78540D01*
X91683Y78526D01*
X91760Y78529D01*
X91842Y78549D01*
X91929Y78585D01*
X92023Y78639D01*
X92122Y78710D01*
X92226Y78798D01*
X92337Y78902D01*
X92902Y78337D01*
D02*
G37*
G36*
X294034Y81143D02*
X295019Y80290D01*
X295143Y80215D01*
X295242Y80173D01*
X295316Y80163D01*
X295366Y80185D01*
X293574Y78392D01*
X293596Y78442D01*
X293585Y78517D01*
X293543Y78616D01*
X293468Y78739D01*
X293362Y78887D01*
X293224Y79060D01*
X292616Y79725D01*
X292349Y79995D01*
X293763Y81410D01*
X294034Y81143D01*
D02*
G37*
G36*
X269681Y113240D02*
X269661Y113385D01*
X269601Y113514D01*
X269501Y113628D01*
X269361Y113726D01*
X269181Y113810D01*
X268961Y113878D01*
X268701Y113932D01*
X268401Y113970D01*
X268061Y113992D01*
X267681Y114000D01*
Y116000D01*
X268061Y116008D01*
X268701Y116068D01*
X268961Y116121D01*
X269181Y116190D01*
X269361Y116273D01*
X269501Y116372D01*
X269601Y116486D01*
X269661Y116615D01*
X269681Y116760D01*
Y113240D01*
D02*
G37*
G36*
X277480Y113244D02*
X277412Y113220D01*
X277352Y113179D01*
X277300Y113122D01*
X277256Y113049D01*
X277220Y112960D01*
X277192Y112855D01*
X277172Y112733D01*
X277160Y112595D01*
X277156Y112440D01*
X276356D01*
X276352Y112595D01*
X276340Y112733D01*
X276320Y112855D01*
X276292Y112960D01*
X276256Y113049D01*
X276212Y113122D01*
X276160Y113179D01*
X276100Y113220D01*
X276032Y113244D01*
X275956Y113252D01*
X277556D01*
X277480Y113244D01*
D02*
G37*
G36*
X117968Y114244D02*
X117900Y114220D01*
X117840Y114179D01*
X117788Y114122D01*
X117744Y114049D01*
X117708Y113960D01*
X117680Y113855D01*
X117660Y113733D01*
X117648Y113595D01*
X117644Y113440D01*
X116844D01*
X116840Y113595D01*
X116828Y113733D01*
X116808Y113855D01*
X116780Y113960D01*
X116744Y114049D01*
X116700Y114122D01*
X116648Y114179D01*
X116588Y114220D01*
X116520Y114244D01*
X116444Y114252D01*
X118044D01*
X117968Y114244D01*
D02*
G37*
G36*
X113032Y114433D02*
X113049Y114312D01*
X113078Y114192D01*
X113119Y114072D01*
X113171Y113953D01*
X113235Y113836D01*
X113310Y113719D01*
X113397Y113603D01*
X113496Y113488D01*
X113606Y113374D01*
X111646D01*
X111756Y113488D01*
X111855Y113603D01*
X111942Y113719D01*
X112017Y113836D01*
X112081Y113953D01*
X112133Y114072D01*
X112174Y114192D01*
X112203Y114312D01*
X112220Y114433D01*
X112226Y114556D01*
X113026D01*
X113032Y114433D01*
D02*
G37*
G36*
X117648Y112405D02*
X117660Y112267D01*
X117680Y112145D01*
X117708Y112040D01*
X117744Y111951D01*
X117788Y111878D01*
X117840Y111821D01*
X117900Y111780D01*
X117968Y111756D01*
X118044Y111748D01*
X116444D01*
X116520Y111756D01*
X116588Y111780D01*
X116648Y111821D01*
X116700Y111878D01*
X116744Y111951D01*
X116780Y112040D01*
X116808Y112145D01*
X116828Y112267D01*
X116840Y112405D01*
X116844Y112560D01*
X117644D01*
X117648Y112405D01*
D02*
G37*
G36*
X138481Y112311D02*
X138467Y112287D01*
X138455Y112247D01*
X138445Y112191D01*
X138436Y112119D01*
X138423Y111927D01*
X138416Y111519D01*
X137616D01*
X137615Y111671D01*
X137576Y112247D01*
X137565Y112287D01*
X137551Y112311D01*
X137536Y112319D01*
X138496D01*
X138481Y112311D01*
D02*
G37*
G36*
X94700Y113220D02*
X94604Y113160D01*
X94520Y113060D01*
X94447Y112920D01*
X94385Y112740D01*
X94334Y112520D01*
X94295Y112260D01*
X94267Y111960D01*
X94244Y111240D01*
X92244D01*
X92238Y111620D01*
X92193Y112260D01*
X92154Y112520D01*
X92103Y112740D01*
X92041Y112920D01*
X91968Y113060D01*
X91884Y113160D01*
X91788Y113220D01*
X91681Y113240D01*
X94807D01*
X94700Y113220D01*
D02*
G37*
G36*
X142418Y112311D02*
X142404Y112287D01*
X142392Y112247D01*
X142382Y112191D01*
X142373Y112119D01*
X142360Y111927D01*
X142353Y111519D01*
X141553D01*
X141552Y111671D01*
X141514Y112247D01*
X141501Y112287D01*
X141488Y112311D01*
X141473Y112319D01*
X142433D01*
X142418Y112311D01*
D02*
G37*
G36*
X140449D02*
X140436Y112287D01*
X140424Y112247D01*
X140413Y112191D01*
X140404Y112119D01*
X140392Y111927D01*
X140384Y111519D01*
X139584D01*
X139583Y111671D01*
X139545Y112247D01*
X139533Y112287D01*
X139519Y112311D01*
X139504Y112319D01*
X140464D01*
X140449Y112311D01*
D02*
G37*
G36*
X145689Y116512D02*
X145713Y116498D01*
X145753Y116487D01*
X145809Y116476D01*
X145881Y116467D01*
X146073Y116455D01*
X146481Y116447D01*
Y115647D01*
X146329Y115647D01*
X145753Y115608D01*
X145713Y115596D01*
X145689Y115582D01*
X145681Y115567D01*
Y116527D01*
X145689Y116512D01*
D02*
G37*
G36*
X132319Y115567D02*
X132311Y115573D01*
X132287Y115579D01*
X132247Y115584D01*
X132119Y115592D01*
X131519Y115600D01*
Y116400D01*
X131671Y116401D01*
X132119Y116432D01*
X132191Y116446D01*
X132247Y116462D01*
X132287Y116481D01*
X132311Y116503D01*
X132319Y116527D01*
Y115567D01*
D02*
G37*
G36*
X98627Y117445D02*
X98946Y117169D01*
X99097Y117057D01*
X99241Y116963D01*
X99380Y116885D01*
X99512Y116825D01*
X99638Y116782D01*
X99758Y116756D01*
X99872Y116748D01*
X97609D01*
X97713Y116753D01*
X97794Y116771D01*
X97852Y116800D01*
X97886Y116840D01*
X97898Y116892D01*
X97886Y116956D01*
X97852Y117031D01*
X97794Y117117D01*
X97713Y117216D01*
X97609Y117325D01*
X98457Y117608D01*
X98627Y117445D01*
D02*
G37*
G36*
X199331Y117743D02*
X199429Y117670D01*
X199534Y117605D01*
X199648Y117549D01*
X199768Y117502D01*
X199897Y117464D01*
X200033Y117435D01*
X200176Y117414D01*
X200327Y117403D01*
X200486Y117400D01*
X199100Y116014D01*
X199097Y116173D01*
X199086Y116324D01*
X199065Y116467D01*
X199036Y116603D01*
X198998Y116732D01*
X198951Y116852D01*
X198895Y116965D01*
X198830Y117071D01*
X198757Y117169D01*
X198674Y117260D01*
X199240Y117825D01*
X199331Y117743D01*
D02*
G37*
G36*
X180870Y116386D02*
X180771Y116271D01*
X180684Y116155D01*
X180609Y116038D01*
X180545Y115920D01*
X180493Y115802D01*
X180452Y115682D01*
X180447Y115662D01*
X180464Y115599D01*
X180500Y115510D01*
X180544Y115437D01*
X180596Y115380D01*
X180656Y115339D01*
X180724Y115315D01*
X180800Y115307D01*
X179200D01*
X179276Y115315D01*
X179344Y115339D01*
X179404Y115380D01*
X179456Y115437D01*
X179500Y115510D01*
X179536Y115599D01*
X179553Y115662D01*
X179548Y115682D01*
X179507Y115802D01*
X179455Y115920D01*
X179391Y116038D01*
X179316Y116155D01*
X179229Y116271D01*
X179130Y116386D01*
X179020Y116500D01*
X180980D01*
X180870Y116386D01*
D02*
G37*
G36*
X100315Y115724D02*
X100339Y115656D01*
X100380Y115596D01*
X100437Y115544D01*
X100510Y115500D01*
X100599Y115464D01*
X100705Y115436D01*
X100826Y115416D01*
X100964Y115404D01*
X101119Y115400D01*
Y114600D01*
X100964Y114596D01*
X100826Y114584D01*
X100705Y114564D01*
X100599Y114536D01*
X100510Y114500D01*
X100437Y114456D01*
X100380Y114404D01*
X100339Y114344D01*
X100315Y114276D01*
X100307Y114200D01*
Y115800D01*
X100315Y115724D01*
D02*
G37*
G36*
X187870Y114886D02*
X187771Y114771D01*
X187684Y114655D01*
X187609Y114538D01*
X187545Y114420D01*
X187493Y114302D01*
X187452Y114182D01*
X187423Y114062D01*
X187406Y113941D01*
X187400Y113818D01*
X186600D01*
X186594Y113941D01*
X186577Y114062D01*
X186548Y114182D01*
X186507Y114302D01*
X186455Y114420D01*
X186391Y114538D01*
X186316Y114655D01*
X186229Y114771D01*
X186130Y114886D01*
X186020Y115000D01*
X187980D01*
X187870Y114886D01*
D02*
G37*
G36*
X124315Y116724D02*
X124339Y116656D01*
X124380Y116596D01*
X124437Y116544D01*
X124510Y116500D01*
X124599Y116464D01*
X124705Y116436D01*
X124826Y116416D01*
X124964Y116404D01*
X125119Y116400D01*
Y115600D01*
X124964Y115596D01*
X124826Y115584D01*
X124705Y115564D01*
X124599Y115536D01*
X124510Y115500D01*
X124437Y115456D01*
X124380Y115404D01*
X124339Y115344D01*
X124315Y115276D01*
X124307Y115200D01*
Y116800D01*
X124315Y116724D01*
D02*
G37*
G36*
X253756Y116480D02*
X253780Y116412D01*
X253821Y116352D01*
X253878Y116300D01*
X253951Y116256D01*
X254040Y116220D01*
X254146Y116192D01*
X254267Y116172D01*
X254405Y116160D01*
X254560Y116156D01*
Y115356D01*
X254405Y115352D01*
X254267Y115340D01*
X254146Y115320D01*
X254040Y115292D01*
X253951Y115256D01*
X253878Y115212D01*
X253821Y115160D01*
X253780Y115100D01*
X253756Y115032D01*
X253748Y114956D01*
Y116556D01*
X253756Y116480D01*
D02*
G37*
G36*
X116825Y106260D02*
X116743Y106169D01*
X116670Y106071D01*
X116605Y105965D01*
X116549Y105852D01*
X116502Y105731D01*
X116464Y105603D01*
X116435Y105467D01*
X116414Y105324D01*
X116403Y105173D01*
X116400Y105014D01*
X115014Y106400D01*
X115173Y106403D01*
X115324Y106414D01*
X115467Y106435D01*
X115603Y106464D01*
X115732Y106502D01*
X115852Y106549D01*
X115965Y106605D01*
X116071Y106670D01*
X116169Y106743D01*
X116260Y106825D01*
X116825Y106260D01*
D02*
G37*
G36*
X127252Y104456D02*
X127244Y104532D01*
X127220Y104600D01*
X127179Y104660D01*
X127122Y104712D01*
X127049Y104756D01*
X126960Y104792D01*
X126855Y104820D01*
X126733Y104840D01*
X126595Y104852D01*
X126440Y104856D01*
Y105656D01*
X126595Y105660D01*
X126733Y105672D01*
X126855Y105692D01*
X126960Y105720D01*
X127049Y105756D01*
X127122Y105800D01*
X127179Y105852D01*
X127220Y105912D01*
X127244Y105980D01*
X127252Y106056D01*
Y104456D01*
D02*
G37*
G36*
X132453Y107211D02*
X132324Y107260D01*
X132198Y107292D01*
X132077Y107310D01*
X131958Y107313D01*
X131844Y107301D01*
X131733Y107274D01*
X131626Y107232D01*
X131522Y107175D01*
X131422Y107103D01*
X131326Y107016D01*
X131008Y107830D01*
X131079Y107906D01*
X131150Y107992D01*
X131221Y108087D01*
X131360Y108307D01*
X131429Y108431D01*
X131634Y108860D01*
X131701Y109021D01*
X132453Y107211D01*
D02*
G37*
G36*
X131325Y107016D02*
X131157Y106842D01*
X130894Y106534D01*
X130799Y106401D01*
X130729Y106281D01*
X130684Y106175D01*
X130663Y106082D01*
X130667Y106002D01*
X130695Y105937D01*
X130748Y105884D01*
X129431Y106807D01*
X129501Y106771D01*
X129581Y106757D01*
X129670Y106763D01*
X129769Y106790D01*
X129877Y106837D01*
X129995Y106905D01*
X130122Y106994D01*
X130260Y107103D01*
X130563Y107384D01*
X131325Y107016D01*
D02*
G37*
G36*
X276049Y102025D02*
X275943Y101913D01*
X275853Y101807D01*
X275781Y101707D01*
X275727Y101612D01*
X275689Y101524D01*
X275668Y101441D01*
X275665Y101364D01*
X275679Y101293D01*
X275710Y101228D01*
X275758Y101168D01*
X274626Y102300D01*
X274686Y102252D01*
X274751Y102221D01*
X274822Y102207D01*
X274899Y102210D01*
X274982Y102231D01*
X275070Y102269D01*
X275165Y102324D01*
X275265Y102396D01*
X275371Y102485D01*
X275483Y102591D01*
X276049Y102025D01*
D02*
G37*
G36*
X218404Y101964D02*
X218416Y101826D01*
X218436Y101705D01*
X218464Y101599D01*
X218500Y101510D01*
X218544Y101437D01*
X218596Y101380D01*
X218656Y101339D01*
X218724Y101315D01*
X218800Y101307D01*
X217200D01*
X217276Y101315D01*
X217344Y101339D01*
X217404Y101380D01*
X217456Y101437D01*
X217500Y101510D01*
X217536Y101599D01*
X217564Y101705D01*
X217584Y101826D01*
X217596Y101964D01*
X217600Y102119D01*
X218400D01*
X218404Y101964D01*
D02*
G37*
G36*
X94370Y103601D02*
X94633Y103380D01*
X94882Y103202D01*
X95116Y103066D01*
X95336Y102973D01*
X95542Y102923D01*
X95734Y102916D01*
X95911Y102951D01*
X96074Y103028D01*
X96222Y103148D01*
X93394Y100320D01*
X93514Y100468D01*
X93592Y100631D01*
X93626Y100808D01*
X93619Y101000D01*
X93569Y101206D01*
X93476Y101426D01*
X93340Y101660D01*
X93162Y101909D01*
X92942Y102172D01*
X92678Y102450D01*
X94093Y103864D01*
X94370Y103601D01*
D02*
G37*
G36*
X252160Y102405D02*
X252172Y102267D01*
X252192Y102146D01*
X252220Y102040D01*
X252256Y101951D01*
X252300Y101878D01*
X252352Y101821D01*
X252412Y101780D01*
X252480Y101756D01*
X252556Y101748D01*
X250956D01*
X251032Y101756D01*
X251100Y101780D01*
X251160Y101821D01*
X251212Y101878D01*
X251256Y101951D01*
X251292Y102040D01*
X251320Y102146D01*
X251340Y102267D01*
X251352Y102405D01*
X251356Y102560D01*
X252156D01*
X252160Y102405D01*
D02*
G37*
G36*
X246648D02*
X246660Y102267D01*
X246680Y102146D01*
X246708Y102040D01*
X246744Y101951D01*
X246788Y101878D01*
X246840Y101821D01*
X246900Y101780D01*
X246968Y101756D01*
X247044Y101748D01*
X245444D01*
X245520Y101756D01*
X245588Y101780D01*
X245648Y101821D01*
X245700Y101878D01*
X245744Y101951D01*
X245780Y102040D01*
X245808Y102146D01*
X245828Y102267D01*
X245840Y102405D01*
X245844Y102560D01*
X246644D01*
X246648Y102405D01*
D02*
G37*
G36*
X183345Y107209D02*
X183256Y107330D01*
X183163Y107438D01*
X183065Y107533D01*
X182964Y107616D01*
X182859Y107685D01*
X182749Y107743D01*
X182635Y107787D01*
X182517Y107819D01*
X182395Y107838D01*
X182384Y107838D01*
X182267Y107828D01*
X182146Y107808D01*
X182040Y107780D01*
X181951Y107744D01*
X181878Y107700D01*
X181821Y107648D01*
X181780Y107588D01*
X181756Y107520D01*
X181748Y107444D01*
Y109044D01*
X181756Y108968D01*
X181780Y108900D01*
X181821Y108840D01*
X181878Y108788D01*
X181951Y108744D01*
X182040Y108708D01*
X182146Y108680D01*
X182267Y108660D01*
X182405Y108648D01*
X182471Y108646D01*
X182533Y108649D01*
X182652Y108664D01*
X182773Y108689D01*
X182896Y108723D01*
X183022Y108768D01*
X183150Y108822D01*
X183281Y108887D01*
X183549Y109045D01*
X183686Y109139D01*
X183345Y107209D01*
D02*
G37*
G36*
X186326Y109260D02*
X186243Y109169D01*
X186170Y109071D01*
X186105Y108966D01*
X186049Y108852D01*
X186002Y108731D01*
X185964Y108603D01*
X185935Y108467D01*
X185914Y108324D01*
X185903Y108173D01*
X185900Y108014D01*
X184514Y109400D01*
X184673Y109403D01*
X184824Y109414D01*
X184967Y109435D01*
X185103Y109464D01*
X185231Y109502D01*
X185352Y109549D01*
X185466Y109605D01*
X185571Y109670D01*
X185669Y109743D01*
X185760Y109826D01*
X186326Y109260D01*
D02*
G37*
G36*
X124315Y110724D02*
X124339Y110656D01*
X124380Y110596D01*
X124437Y110544D01*
X124510Y110500D01*
X124599Y110464D01*
X124705Y110436D01*
X124826Y110416D01*
X124964Y110404D01*
X125119Y110400D01*
Y109600D01*
X124964Y109596D01*
X124826Y109584D01*
X124705Y109564D01*
X124599Y109536D01*
X124510Y109500D01*
X124437Y109456D01*
X124380Y109404D01*
X124339Y109344D01*
X124315Y109276D01*
X124307Y109200D01*
Y110800D01*
X124315Y110724D01*
D02*
G37*
G36*
X169000Y107520D02*
X168886Y107630D01*
X168771Y107729D01*
X168655Y107816D01*
X168538Y107891D01*
X168421Y107955D01*
X168302Y108007D01*
X168182Y108048D01*
X168062Y108077D01*
X167942Y108094D01*
X167826Y108084D01*
X167705Y108064D01*
X167599Y108036D01*
X167510Y108000D01*
X167437Y107956D01*
X167380Y107904D01*
X167339Y107844D01*
X167315Y107776D01*
X167307Y107700D01*
Y109300D01*
X167315Y109224D01*
X167339Y109156D01*
X167380Y109096D01*
X167437Y109044D01*
X167510Y109000D01*
X167599Y108964D01*
X167705Y108936D01*
X167826Y108916D01*
X167942Y108906D01*
X168062Y108923D01*
X168182Y108952D01*
X168302Y108993D01*
X168421Y109045D01*
X168538Y109109D01*
X168655Y109184D01*
X168771Y109271D01*
X168886Y109370D01*
X169000Y109480D01*
X169000Y107520D01*
D02*
G37*
G36*
X252480Y108673D02*
X252412Y108649D01*
X252352Y108609D01*
X252300Y108553D01*
X252256Y108481D01*
X252220Y108393D01*
X252192Y108289D01*
X252172Y108169D01*
X252160Y108033D01*
X252156Y107881D01*
X251356D01*
X251352Y108033D01*
X251340Y108169D01*
X251320Y108289D01*
X251292Y108393D01*
X251256Y108481D01*
X251212Y108553D01*
X251160Y108609D01*
X251100Y108649D01*
X251032Y108673D01*
X250956Y108681D01*
X252556D01*
X252480Y108673D01*
D02*
G37*
G36*
X147500Y107520D02*
X147386Y107630D01*
X147271Y107729D01*
X147155Y107816D01*
X147038Y107891D01*
X146921Y107955D01*
X146802Y108007D01*
X146682Y108048D01*
X146562Y108077D01*
X146441Y108094D01*
X146318Y108100D01*
Y108900D01*
X146441Y108906D01*
X146562Y108923D01*
X146682Y108952D01*
X146802Y108993D01*
X146921Y109045D01*
X147038Y109109D01*
X147155Y109184D01*
X147271Y109271D01*
X147386Y109370D01*
X147500Y109480D01*
Y107520D01*
D02*
G37*
G36*
X117968Y108244D02*
X117900Y108220D01*
X117840Y108179D01*
X117788Y108122D01*
X117744Y108049D01*
X117708Y107960D01*
X117680Y107854D01*
X117660Y107733D01*
X117648Y107595D01*
X117644Y107440D01*
X116844D01*
X116840Y107595D01*
X116828Y107733D01*
X116808Y107854D01*
X116780Y107960D01*
X116744Y108049D01*
X116700Y108122D01*
X116648Y108179D01*
X116588Y108220D01*
X116520Y108244D01*
X116444Y108252D01*
X118044D01*
X117968Y108244D01*
D02*
G37*
G36*
X158681Y107700D02*
X158673Y107776D01*
X158649Y107844D01*
X158609Y107904D01*
X158553Y107956D01*
X158481Y108000D01*
X158393Y108036D01*
X158289Y108064D01*
X158169Y108084D01*
X158033Y108096D01*
X157881Y108100D01*
Y108900D01*
X158033Y108904D01*
X158169Y108916D01*
X158289Y108936D01*
X158393Y108964D01*
X158481Y109000D01*
X158553Y109044D01*
X158609Y109096D01*
X158649Y109156D01*
X158673Y109224D01*
X158681Y109300D01*
Y107700D01*
D02*
G37*
G36*
X149614Y109370D02*
X149729Y109271D01*
X149845Y109184D01*
X149962Y109109D01*
X150080Y109045D01*
X150198Y108993D01*
X150318Y108952D01*
X150438Y108923D01*
X150559Y108906D01*
X150682Y108900D01*
Y108100D01*
X150559Y108094D01*
X150438Y108077D01*
X150318Y108048D01*
X150198Y108007D01*
X150080Y107955D01*
X149962Y107891D01*
X149845Y107816D01*
X149729Y107729D01*
X149614Y107630D01*
X149500Y107520D01*
Y109480D01*
X149614Y109370D01*
D02*
G37*
G36*
X142786Y243205D02*
X142798Y243067D01*
X142818Y242945D01*
X142846Y242839D01*
X142882Y242750D01*
X142926Y242677D01*
X142978Y242620D01*
X143038Y242579D01*
X143106Y242555D01*
X143182Y242547D01*
X141582D01*
X141658Y242555D01*
X141726Y242579D01*
X141786Y242620D01*
X141838Y242677D01*
X141882Y242750D01*
X141918Y242839D01*
X141946Y242945D01*
X141966Y243067D01*
X141978Y243205D01*
X141982Y243359D01*
X142782D01*
X142786Y243205D01*
D02*
G37*
G36*
X255331Y243243D02*
X255429Y243170D01*
X255535Y243105D01*
X255648Y243049D01*
X255768Y243002D01*
X255897Y242964D01*
X256033Y242935D01*
X256176Y242914D01*
X256327Y242903D01*
X256486Y242900D01*
X255100Y241514D01*
X255097Y241673D01*
X255086Y241824D01*
X255065Y241967D01*
X255036Y242103D01*
X254998Y242231D01*
X254951Y242352D01*
X254895Y242465D01*
X254830Y242571D01*
X254757Y242669D01*
X254675Y242760D01*
X255240Y243325D01*
X255331Y243243D01*
D02*
G37*
G36*
X145724Y249244D02*
X145656Y249220D01*
X145596Y249179D01*
X145544Y249122D01*
X145500Y249049D01*
X145464Y248960D01*
X145436Y248854D01*
X145416Y248733D01*
X145404Y248595D01*
X145400Y248440D01*
X144600D01*
X144596Y248595D01*
X144584Y248733D01*
X144564Y248854D01*
X144536Y248960D01*
X144500Y249049D01*
X144456Y249122D01*
X144404Y249179D01*
X144344Y249220D01*
X144276Y249244D01*
X144200Y249252D01*
X145800D01*
X145724Y249244D01*
D02*
G37*
G36*
X202373Y244118D02*
X202384Y243980D01*
X202404Y243858D01*
X202432Y243753D01*
X202468Y243663D01*
X202513Y243590D01*
X202565Y243533D01*
X202625Y243493D01*
X202693Y243468D01*
X202768Y243460D01*
X201168D01*
X201244Y243468D01*
X201312Y243493D01*
X201373Y243533D01*
X201425Y243590D01*
X201468Y243663D01*
X201504Y243753D01*
X201533Y243858D01*
X201553Y243980D01*
X201565Y244118D01*
X201569Y244272D01*
X202368D01*
X202373Y244118D01*
D02*
G37*
G36*
X218722Y241247D02*
X218706Y241232D01*
X218691Y241207D01*
X218679Y241171D01*
X218668Y241125D01*
X218659Y241069D01*
X218648Y240927D01*
X218644Y240744D01*
X217844D01*
X217843Y240841D01*
X217829Y241069D01*
X217820Y241125D01*
X217810Y241171D01*
X217797Y241207D01*
X217782Y241232D01*
X217766Y241247D01*
X217748Y241252D01*
X218740D01*
X218722Y241247D01*
D02*
G37*
G36*
X202693Y241532D02*
X202625Y241507D01*
X202565Y241467D01*
X202513Y241410D01*
X202468Y241337D01*
X202432Y241247D01*
X202404Y241142D01*
X202384Y241020D01*
X202373Y240882D01*
X202368Y240728D01*
X201569D01*
X201565Y240882D01*
X201553Y241020D01*
X201533Y241142D01*
X201504Y241247D01*
X201468Y241337D01*
X201425Y241410D01*
X201373Y241467D01*
X201312Y241507D01*
X201244Y241532D01*
X201168Y241540D01*
X202768D01*
X202693Y241532D01*
D02*
G37*
G36*
X192724Y241685D02*
X192656Y241661D01*
X192596Y241620D01*
X192544Y241563D01*
X192500Y241490D01*
X192464Y241401D01*
X192436Y241295D01*
X192416Y241174D01*
X192404Y241036D01*
X192400Y240881D01*
X191600D01*
X191596Y241036D01*
X191584Y241174D01*
X191564Y241295D01*
X191536Y241401D01*
X191500Y241490D01*
X191456Y241563D01*
X191404Y241620D01*
X191344Y241661D01*
X191276Y241685D01*
X191200Y241693D01*
X192800D01*
X192724Y241685D01*
D02*
G37*
G36*
X186870Y242130D02*
X186771Y242015D01*
X186684Y241899D01*
X186609Y241782D01*
X186560Y241693D01*
X186800D01*
X186724Y241685D01*
X186656Y241661D01*
X186596Y241620D01*
X186544Y241563D01*
X186500Y241490D01*
X186464Y241401D01*
X186436Y241295D01*
X186416Y241174D01*
X186404Y241036D01*
X186400Y240881D01*
X185600D01*
X185596Y241036D01*
X185584Y241174D01*
X185564Y241295D01*
X185536Y241401D01*
X185500Y241490D01*
X185456Y241563D01*
X185404Y241620D01*
X185344Y241661D01*
X185276Y241685D01*
X185200Y241693D01*
X185439D01*
X185391Y241782D01*
X185316Y241899D01*
X185229Y242015D01*
X185130Y242130D01*
X185020Y242244D01*
X186980D01*
X186870Y242130D01*
D02*
G37*
G36*
X174724Y249941D02*
X174656Y249917D01*
X174596Y249877D01*
X174544Y249821D01*
X174500Y249749D01*
X174464Y249661D01*
X174436Y249557D01*
X174416Y249437D01*
X174404Y249301D01*
X174400Y249149D01*
X173600D01*
X173596Y249301D01*
X173584Y249437D01*
X173564Y249557D01*
X173536Y249661D01*
X173500Y249749D01*
X173456Y249821D01*
X173404Y249877D01*
X173344Y249917D01*
X173276Y249941D01*
X173200Y249949D01*
X174800D01*
X174724Y249941D01*
D02*
G37*
G36*
X169300Y253074D02*
X169291Y253150D01*
X169267Y253218D01*
X169227Y253278D01*
X169170Y253330D01*
X169097Y253374D01*
X169007Y253410D01*
X168902Y253438D01*
X168780Y253458D01*
X168642Y253470D01*
X168488Y253474D01*
Y254274D01*
X168642Y254278D01*
X168780Y254290D01*
X168902Y254310D01*
X169007Y254338D01*
X169097Y254374D01*
X169170Y254418D01*
X169227Y254470D01*
X169267Y254530D01*
X169291Y254598D01*
X169300Y254674D01*
Y253074D01*
D02*
G37*
G36*
X93968Y253244D02*
X93900Y253220D01*
X93840Y253179D01*
X93788Y253122D01*
X93744Y253049D01*
X93708Y252960D01*
X93680Y252854D01*
X93660Y252733D01*
X93648Y252595D01*
X93644Y252440D01*
X92844D01*
X92840Y252595D01*
X92828Y252733D01*
X92808Y252854D01*
X92780Y252960D01*
X92744Y253049D01*
X92700Y253122D01*
X92648Y253179D01*
X92588Y253220D01*
X92520Y253244D01*
X92444Y253252D01*
X94044D01*
X93968Y253244D01*
D02*
G37*
G36*
X198435Y254618D02*
X198448Y254480D01*
X198468Y254358D01*
X198495Y254253D01*
X198531Y254163D01*
X198575Y254090D01*
X198627Y254033D01*
X198688Y253993D01*
X198756Y253968D01*
X198831Y253960D01*
X197231D01*
X197308Y253968D01*
X197376Y253993D01*
X197435Y254033D01*
X197487Y254090D01*
X197531Y254163D01*
X197567Y254253D01*
X197596Y254358D01*
X197616Y254480D01*
X197627Y254618D01*
X197632Y254772D01*
X198432D01*
X198435Y254618D01*
D02*
G37*
G36*
X100339Y256615D02*
X100399Y256486D01*
X100499Y256372D01*
X100639Y256274D01*
X100819Y256190D01*
X101039Y256121D01*
X101299Y256068D01*
X101599Y256030D01*
X101939Y256008D01*
X102319Y256000D01*
Y254000D01*
X101939Y253992D01*
X101299Y253932D01*
X101039Y253878D01*
X100819Y253810D01*
X100639Y253727D01*
X100499Y253628D01*
X100399Y253514D01*
X100339Y253385D01*
X100319Y253240D01*
Y256760D01*
X100339Y256615D01*
D02*
G37*
G36*
X207968Y251244D02*
X207900Y251220D01*
X207840Y251179D01*
X207788Y251122D01*
X207744Y251049D01*
X207708Y250960D01*
X207680Y250854D01*
X207660Y250733D01*
X207648Y250595D01*
X207644Y250440D01*
X206844D01*
X206840Y250595D01*
X206828Y250733D01*
X206808Y250854D01*
X206780Y250960D01*
X206744Y251049D01*
X206700Y251122D01*
X206648Y251179D01*
X206588Y251220D01*
X206520Y251244D01*
X206444Y251252D01*
X208044D01*
X207968Y251244D01*
D02*
G37*
G36*
X192160Y250967D02*
X192172Y250831D01*
X192192Y250711D01*
X192220Y250607D01*
X192256Y250519D01*
X192300Y250447D01*
X192352Y250391D01*
X192412Y250351D01*
X192480Y250327D01*
X192556Y250319D01*
X190956D01*
X191032Y250327D01*
X191100Y250351D01*
X191160Y250391D01*
X191212Y250447D01*
X191256Y250519D01*
X191292Y250607D01*
X191320Y250711D01*
X191340Y250831D01*
X191352Y250967D01*
X191356Y251119D01*
X192156D01*
X192160Y250967D01*
D02*
G37*
G36*
X148500Y250020D02*
X148386Y250130D01*
X148271Y250229D01*
X148155Y250316D01*
X148038Y250391D01*
X147921Y250455D01*
X147802Y250507D01*
X147682Y250548D01*
X147562Y250577D01*
X147442Y250594D01*
X147326Y250584D01*
X147205Y250564D01*
X147099Y250536D01*
X147010Y250500D01*
X146937Y250456D01*
X146880Y250404D01*
X146839Y250344D01*
X146815Y250276D01*
X146807Y250200D01*
Y251800D01*
X146815Y251724D01*
X146839Y251656D01*
X146880Y251596D01*
X146937Y251544D01*
X147010Y251500D01*
X147099Y251464D01*
X147205Y251436D01*
X147326Y251416D01*
X147442Y251406D01*
X147562Y251423D01*
X147682Y251452D01*
X147802Y251493D01*
X147921Y251545D01*
X148038Y251609D01*
X148155Y251684D01*
X148271Y251771D01*
X148386Y251870D01*
X148500Y251980D01*
Y250020D01*
D02*
G37*
G36*
X202693Y252032D02*
X202625Y252007D01*
X202565Y251967D01*
X202513Y251910D01*
X202468Y251837D01*
X202432Y251747D01*
X202404Y251642D01*
X202384Y251520D01*
X202373Y251382D01*
X202368Y251228D01*
X201569D01*
X201565Y251382D01*
X201553Y251520D01*
X201533Y251642D01*
X201504Y251747D01*
X201468Y251837D01*
X201425Y251910D01*
X201373Y251967D01*
X201312Y252007D01*
X201244Y252032D01*
X201168Y252040D01*
X202768D01*
X202693Y252032D01*
D02*
G37*
G36*
X246826Y237760D02*
X246743Y237669D01*
X246670Y237571D01*
X246605Y237466D01*
X246549Y237352D01*
X246502Y237231D01*
X246464Y237103D01*
X246435Y236967D01*
X246414Y236824D01*
X246403Y236673D01*
X246400Y236514D01*
X245014Y237900D01*
X245173Y237903D01*
X245324Y237914D01*
X245467Y237935D01*
X245603Y237964D01*
X245731Y238002D01*
X245852Y238049D01*
X245966Y238105D01*
X246071Y238170D01*
X246169Y238243D01*
X246260Y238326D01*
X246826Y237760D01*
D02*
G37*
G36*
X107986Y236600D02*
X107827Y236597D01*
X107676Y236586D01*
X107533Y236565D01*
X107397Y236536D01*
X107269Y236498D01*
X107148Y236451D01*
X107035Y236395D01*
X106929Y236330D01*
X106831Y236257D01*
X106740Y236175D01*
X106175Y236740D01*
X106257Y236831D01*
X106330Y236929D01*
X106395Y237035D01*
X106451Y237148D01*
X106498Y237268D01*
X106536Y237397D01*
X106565Y237533D01*
X106586Y237676D01*
X106597Y237827D01*
X106600Y237986D01*
X107986Y236600D01*
D02*
G37*
G36*
X169300Y237326D02*
X169291Y237402D01*
X169267Y237470D01*
X169227Y237530D01*
X169170Y237582D01*
X169097Y237626D01*
X169007Y237662D01*
X168902Y237690D01*
X168780Y237710D01*
X168642Y237722D01*
X168488Y237726D01*
Y238526D01*
X168642Y238530D01*
X168780Y238542D01*
X168902Y238562D01*
X169007Y238590D01*
X169097Y238626D01*
X169170Y238670D01*
X169227Y238722D01*
X169267Y238782D01*
X169291Y238850D01*
X169300Y238926D01*
Y237326D01*
D02*
G37*
G36*
X199038Y238000D02*
X198238Y236800D01*
X198230Y236952D01*
X198206Y237088D01*
X198166Y237208D01*
X198110Y237312D01*
X198038Y237400D01*
X197950Y237472D01*
X197846Y237528D01*
X197726Y237568D01*
X197590Y237592D01*
X197438Y237600D01*
Y238400D01*
X197590Y238408D01*
X197726Y238432D01*
X197846Y238472D01*
X197950Y238528D01*
X198038Y238600D01*
X198110Y238688D01*
X198166Y238792D01*
X198206Y238912D01*
X198230Y239048D01*
X198238Y239200D01*
X199038Y238000D01*
D02*
G37*
G36*
X137864Y232317D02*
X137874Y232188D01*
X137892Y232075D01*
X137916Y231977D01*
X137947Y231893D01*
X137985Y231825D01*
X138029Y231772D01*
X138081Y231735D01*
X138139Y231712D01*
X138205Y231704D01*
X136716D01*
X136782Y231712D01*
X136840Y231735D01*
X136892Y231772D01*
X136937Y231825D01*
X136975Y231893D01*
X137005Y231977D01*
X137030Y232075D01*
X137047Y232188D01*
X137057Y232317D01*
X137061Y232461D01*
X137861D01*
X137864Y232317D01*
D02*
G37*
G36*
X237500Y231978D02*
X237000Y231649D01*
X236839Y231681D01*
X212417D01*
X212287Y231655D01*
X210655D01*
Y233287D01*
X210681Y233417D01*
Y235739D01*
X212422Y237480D01*
X227500D01*
X227890Y237558D01*
X228221Y237779D01*
X229965Y239523D01*
X230186Y239854D01*
X230264Y240244D01*
Y240357D01*
X230293Y240423D01*
X230297Y240558D01*
X230303Y240628D01*
X231419D01*
Y245372D01*
X227069D01*
Y240628D01*
X227479D01*
X227686Y240128D01*
X227078Y239520D01*
X219115D01*
X218923Y239982D01*
X218965Y240023D01*
X219186Y240354D01*
X219234Y240595D01*
X219249Y240628D01*
X220419D01*
Y245372D01*
X216069D01*
Y240920D01*
X210900D01*
X210510Y240842D01*
X210179Y240621D01*
X208746Y239188D01*
X208709Y239192D01*
X208264Y239413D01*
Y240357D01*
X208293Y240423D01*
X208297Y240558D01*
X208303Y240628D01*
X209419D01*
Y245372D01*
X206364D01*
X206173Y245834D01*
X207965Y247625D01*
X208186Y247956D01*
X208264Y248346D01*
Y250357D01*
X208293Y250424D01*
X208297Y250558D01*
X208303Y250628D01*
X209419D01*
Y255372D01*
X208247D01*
X208235Y255399D01*
X208186Y255646D01*
X207965Y255977D01*
X205721Y258221D01*
X205500Y258369D01*
Y259628D01*
X209419D01*
Y264372D01*
X205500D01*
Y265000D01*
X208000Y267500D01*
X237500D01*
Y231978D01*
D02*
G37*
G36*
X193544Y232617D02*
X193536Y232693D01*
X193511Y232761D01*
X193471Y232821D01*
X193414Y232873D01*
X193341Y232917D01*
X193251Y232953D01*
X193146Y232981D01*
X193126Y232985D01*
X193106Y232981D01*
X193001Y232953D01*
X192911Y232917D01*
X192838Y232873D01*
X192781Y232821D01*
X192741Y232761D01*
X192716Y232693D01*
X192708Y232617D01*
Y234217D01*
X192716Y234141D01*
X192741Y234073D01*
X192781Y234013D01*
X192838Y233961D01*
X192911Y233917D01*
X193001Y233881D01*
X193106Y233853D01*
X193126Y233850D01*
X193146Y233853D01*
X193251Y233881D01*
X193341Y233917D01*
X193414Y233961D01*
X193471Y234013D01*
X193511Y234073D01*
X193536Y234141D01*
X193544Y234217D01*
Y232617D01*
D02*
G37*
G36*
X249325Y233760D02*
X249243Y233669D01*
X249170Y233571D01*
X249105Y233466D01*
X249049Y233352D01*
X249002Y233231D01*
X248964Y233103D01*
X248935Y232967D01*
X248914Y232824D01*
X248903Y232673D01*
X248900Y232514D01*
X247514Y233900D01*
X247673Y233903D01*
X247824Y233914D01*
X247967Y233935D01*
X248103Y233964D01*
X248232Y234002D01*
X248352Y234049D01*
X248465Y234105D01*
X248571Y234170D01*
X248669Y234243D01*
X248760Y234326D01*
X249325Y233760D01*
D02*
G37*
G36*
X258000Y238020D02*
X257886Y238130D01*
X257771Y238229D01*
X257655Y238316D01*
X257538Y238391D01*
X257420Y238455D01*
X257302Y238507D01*
X257182Y238548D01*
X257062Y238577D01*
X256941Y238594D01*
X256818Y238600D01*
Y239400D01*
X256941Y239406D01*
X257062Y239423D01*
X257182Y239452D01*
X257302Y239493D01*
X257420Y239545D01*
X257538Y239609D01*
X257655Y239684D01*
X257771Y239771D01*
X257886Y239870D01*
X258000Y239980D01*
Y238020D01*
D02*
G37*
G36*
X207968Y241244D02*
X207900Y241220D01*
X207840Y241179D01*
X207788Y241122D01*
X207744Y241049D01*
X207708Y240960D01*
X207680Y240855D01*
X207660Y240733D01*
X207648Y240595D01*
X207644Y240440D01*
X206844D01*
X206840Y240595D01*
X206828Y240733D01*
X206808Y240855D01*
X206780Y240960D01*
X206744Y241049D01*
X206700Y241122D01*
X206648Y241179D01*
X206588Y241220D01*
X206520Y241244D01*
X206444Y241252D01*
X208044D01*
X207968Y241244D01*
D02*
G37*
G36*
X244325Y241260D02*
X244243Y241169D01*
X244170Y241071D01*
X244105Y240966D01*
X244049Y240852D01*
X244002Y240732D01*
X243964Y240603D01*
X243935Y240467D01*
X243914Y240324D01*
X243903Y240173D01*
X243900Y240014D01*
X242514Y241400D01*
X242673Y241403D01*
X242824Y241414D01*
X242967Y241435D01*
X243103Y241464D01*
X243232Y241502D01*
X243352Y241549D01*
X243465Y241605D01*
X243571Y241670D01*
X243669Y241743D01*
X243760Y241826D01*
X244325Y241260D01*
D02*
G37*
G36*
X199201Y241528D02*
X199170Y241520D01*
X199142Y241496D01*
X199118Y241456D01*
X199096Y241400D01*
X199079Y241328D01*
X199064Y241240D01*
X199052Y241136D01*
X199039Y240880D01*
X199038Y240728D01*
X198238D01*
X198234Y240881D01*
X198222Y241019D01*
X198202Y241140D01*
X198174Y241246D01*
X198138Y241335D01*
X198094Y241408D01*
X198042Y241465D01*
X197982Y241506D01*
X197914Y241531D01*
X197838Y241540D01*
X199201Y241528D01*
D02*
G37*
G36*
X229968Y241244D02*
X229900Y241220D01*
X229840Y241179D01*
X229788Y241122D01*
X229744Y241049D01*
X229708Y240960D01*
X229680Y240855D01*
X229660Y240733D01*
X229648Y240595D01*
X229644Y240440D01*
X228844D01*
X228840Y240595D01*
X228828Y240733D01*
X228808Y240855D01*
X228780Y240960D01*
X228744Y241049D01*
X228700Y241122D01*
X228648Y241179D01*
X228588Y241220D01*
X228520Y241244D01*
X228444Y241252D01*
X230044D01*
X229968Y241244D01*
D02*
G37*
G36*
X141225Y238621D02*
X141217Y238697D01*
X141192Y238765D01*
X141152Y238825D01*
X141095Y238877D01*
X141022Y238921D01*
X140933Y238957D01*
X140827Y238985D01*
X140705Y239005D01*
X140567Y239017D01*
X140413Y239021D01*
Y239821D01*
X140567Y239825D01*
X140705Y239837D01*
X140827Y239857D01*
X140933Y239885D01*
X141022Y239921D01*
X141095Y239965D01*
X141152Y240017D01*
X141192Y240077D01*
X141217Y240145D01*
X141225Y240221D01*
Y238621D01*
D02*
G37*
G36*
X138626Y240145D02*
X138650Y240077D01*
X138691Y240017D01*
X138748Y239965D01*
X138821Y239921D01*
X138910Y239885D01*
X139016Y239857D01*
X139137Y239837D01*
X139276Y239825D01*
X139430Y239821D01*
Y239021D01*
X139276Y239017D01*
X139137Y239005D01*
X139016Y238985D01*
X138910Y238957D01*
X138821Y238921D01*
X138748Y238877D01*
X138691Y238825D01*
X138650Y238765D01*
X138626Y238697D01*
X138618Y238621D01*
Y240221D01*
X138626Y240145D01*
D02*
G37*
G36*
X162756Y240980D02*
X162780Y240912D01*
X162821Y240852D01*
X162878Y240800D01*
X162951Y240756D01*
X163040Y240720D01*
X163145Y240692D01*
X163267Y240672D01*
X163405Y240660D01*
X163560Y240656D01*
Y239856D01*
X163405Y239852D01*
X163267Y239840D01*
X163145Y239820D01*
X163040Y239792D01*
X162951Y239756D01*
X162878Y239712D01*
X162821Y239660D01*
X162780Y239600D01*
X162756Y239532D01*
X162748Y239456D01*
Y241056D01*
X162756Y240980D01*
D02*
G37*
G36*
X191000Y265000D02*
Y264372D01*
X189581D01*
Y259628D01*
X190697D01*
X190703Y259558D01*
X190707Y259423D01*
X190736Y259357D01*
Y251202D01*
X190707Y251136D01*
X190703Y251004D01*
X190697Y250931D01*
X189628D01*
Y246581D01*
X191000D01*
Y245419D01*
X189628D01*
Y241069D01*
X190941D01*
X190947Y240999D01*
X190951Y240864D01*
X190980Y240798D01*
Y239500D01*
X190700Y239020D01*
X187922D01*
X187020Y239922D01*
Y240798D01*
X187049Y240864D01*
X187053Y240999D01*
X187059Y241069D01*
X188372D01*
Y245419D01*
X183628D01*
Y241069D01*
X184941D01*
X184947Y240999D01*
X184951Y240864D01*
X184980Y240798D01*
Y239500D01*
X185058Y239110D01*
X185279Y238779D01*
X186779Y237279D01*
X187110Y237058D01*
X187500Y236980D01*
X190578D01*
X191000Y236558D01*
Y234000D01*
X191319Y233681D01*
Y233417D01*
X191345Y233287D01*
Y231655D01*
X189713D01*
X189583Y231681D01*
X183761D01*
X180744Y234698D01*
Y242477D01*
X180666Y242867D01*
X180445Y243198D01*
X175020Y248624D01*
Y249065D01*
X175049Y249132D01*
X175053Y249264D01*
X175059Y249337D01*
X179324D01*
Y258411D01*
X168676D01*
Y255473D01*
X168176Y255266D01*
X165465Y257977D01*
X165134Y258198D01*
X164744Y258276D01*
X163643D01*
X163576Y258305D01*
X163442Y258309D01*
X163372Y258315D01*
Y259431D01*
X158628D01*
Y255081D01*
X163372D01*
Y256197D01*
X163442Y256203D01*
X163576Y256207D01*
X163643Y256236D01*
X164322D01*
X167405Y253153D01*
X167736Y252932D01*
X168126Y252854D01*
X168404D01*
X168471Y252825D01*
X168605Y252821D01*
X168676Y252815D01*
Y249337D01*
X172941D01*
X172947Y249264D01*
X172951Y249132D01*
X172980Y249065D01*
Y248202D01*
X173058Y247811D01*
X173279Y247481D01*
X177635Y243125D01*
X177443Y242663D01*
X168676D01*
Y239185D01*
X168605Y239179D01*
X168471Y239175D01*
X168404Y239146D01*
X167296D01*
X165465Y240977D01*
X165134Y241198D01*
X164744Y241276D01*
X163643D01*
X163576Y241305D01*
X163442Y241309D01*
X163372Y241315D01*
Y242431D01*
X158628D01*
Y238081D01*
X163372D01*
Y239197D01*
X163442Y239203D01*
X163576Y239207D01*
X163643Y239236D01*
X164322D01*
X166153Y237405D01*
X166484Y237184D01*
X166874Y237106D01*
X168404D01*
X168471Y237077D01*
X168605Y237073D01*
X168676Y237067D01*
Y233589D01*
X176969D01*
X181565Y228993D01*
X181373Y228531D01*
X179202D01*
X179136Y228561D01*
X179001Y228565D01*
X178931Y228571D01*
Y230372D01*
X174581D01*
Y225628D01*
X174183Y225382D01*
X168377D01*
X167987Y225304D01*
X167656Y225083D01*
X167573Y225000D01*
X160000D01*
Y232500D01*
X152500Y240000D01*
Y267500D01*
X188500D01*
X191000Y265000D01*
D02*
G37*
G36*
X269693Y254200D02*
X269685Y254276D01*
X269661Y254344D01*
X269620Y254404D01*
X269563Y254456D01*
X269490Y254500D01*
X269401Y254536D01*
X269295Y254564D01*
X269174Y254584D01*
X269036Y254596D01*
X268881Y254600D01*
Y255400D01*
X269036Y255404D01*
X269174Y255416D01*
X269295Y255436D01*
X269401Y255464D01*
X269490Y255500D01*
X269563Y255544D01*
X269620Y255596D01*
X269661Y255656D01*
X269685Y255724D01*
X269693Y255800D01*
Y254200D01*
D02*
G37*
G36*
X295366Y289815D02*
X295316Y289837D01*
X295242Y289827D01*
X295143Y289785D01*
X295019Y289710D01*
X294871Y289604D01*
X294698Y289465D01*
X294034Y288857D01*
X293763Y288591D01*
X292349Y290005D01*
X292616Y290275D01*
X293468Y291261D01*
X293543Y291384D01*
X293585Y291483D01*
X293596Y291558D01*
X293574Y291608D01*
X295366Y289815D01*
D02*
G37*
G36*
X293384Y288211D02*
X293121Y287937D01*
X292713Y287439D01*
X292569Y287216D01*
X292464Y287010D01*
X292399Y286820D01*
X292374Y286648D01*
X292388Y286492D01*
X292442Y286354D01*
X292535Y286232D01*
X289840Y288910D01*
X289989Y288790D01*
X290152Y288713D01*
X290330Y288678D01*
X290521Y288686D01*
X290727Y288737D01*
X290947Y288829D01*
X291181Y288965D01*
X291430Y289142D01*
X291693Y289363D01*
X291970Y289626D01*
X293384Y288211D01*
D02*
G37*
G36*
X288921Y291265D02*
X288774Y291112D01*
X288529Y290820D01*
X288431Y290681D01*
X288350Y290546D01*
X288286Y290417D01*
X288238Y290292D01*
X288206Y290171D01*
X288191Y290056D01*
X288193Y289945D01*
X286094Y291731D01*
X286197Y291746D01*
X286305Y291775D01*
X286420Y291820D01*
X286539Y291879D01*
X286664Y291953D01*
X286795Y292042D01*
X286932Y292146D01*
X287222Y292399D01*
X287375Y292547D01*
X288921Y291265D01*
D02*
G37*
G36*
X82063Y293121D02*
X82561Y292713D01*
X82784Y292569D01*
X82990Y292464D01*
X83180Y292399D01*
X83352Y292374D01*
X83508Y292388D01*
X83646Y292442D01*
X83768Y292535D01*
X81090Y289840D01*
X81210Y289989D01*
X81287Y290152D01*
X81322Y290330D01*
X81314Y290521D01*
X81264Y290727D01*
X81171Y290947D01*
X81035Y291181D01*
X80857Y291430D01*
X80637Y291693D01*
X80374Y291970D01*
X81789Y293384D01*
X82063Y293121D01*
D02*
G37*
G36*
X261825Y273760D02*
X261743Y273669D01*
X261670Y273571D01*
X261605Y273465D01*
X261549Y273352D01*
X261502Y273232D01*
X261464Y273103D01*
X261435Y272967D01*
X261414Y272824D01*
X261403Y272673D01*
X261400Y272514D01*
X260014Y273900D01*
X260173Y273903D01*
X260324Y273914D01*
X260467Y273935D01*
X260603Y273964D01*
X260732Y274002D01*
X260852Y274049D01*
X260965Y274105D01*
X261071Y274170D01*
X261169Y274243D01*
X261260Y274325D01*
X261825Y273760D01*
D02*
G37*
G36*
X267649Y271807D02*
X267589Y271855D01*
X267524Y271885D01*
X267453Y271899D01*
X267376Y271896D01*
X267293Y271875D01*
X267204Y271837D01*
X267110Y271783D01*
X267010Y271711D01*
X266903Y271621D01*
X266792Y271515D01*
X266226Y272081D01*
X266332Y272193D01*
X266421Y272299D01*
X266493Y272399D01*
X266548Y272494D01*
X266586Y272582D01*
X266606Y272665D01*
X266610Y272742D01*
X266596Y272813D01*
X266565Y272879D01*
X266517Y272938D01*
X267649Y271807D01*
D02*
G37*
G36*
X76405Y291558D02*
X76415Y291483D01*
X76457Y291384D01*
X76531Y291261D01*
X76638Y291113D01*
X76776Y290940D01*
X77266Y290405D01*
X79463Y288481D01*
X79689Y288343D01*
X79872Y288260D01*
X80011Y288232D01*
X79970Y288192D01*
X80055Y288193D01*
X78269Y286094D01*
X78254Y286197D01*
X78225Y286305D01*
X78185Y286407D01*
X78009Y286231D01*
X77982Y286370D01*
X77899Y286553D01*
X77761Y286779D01*
X77568Y287049D01*
X77016Y287718D01*
X75890Y288924D01*
X74981Y289710D01*
X74857Y289785D01*
X74758Y289827D01*
X74684Y289837D01*
X74634Y289815D01*
X76426Y291608D01*
X76405Y291558D01*
D02*
G37*
G36*
X266114Y285870D02*
X266229Y285771D01*
X266345Y285684D01*
X266462Y285609D01*
X266580Y285545D01*
X266698Y285493D01*
X266818Y285452D01*
X266938Y285423D01*
X267059Y285406D01*
X267182Y285400D01*
Y284600D01*
X267059Y284594D01*
X266938Y284577D01*
X266818Y284548D01*
X266698Y284507D01*
X266580Y284455D01*
X266462Y284391D01*
X266345Y284316D01*
X266229Y284229D01*
X266114Y284130D01*
X266000Y284020D01*
Y285980D01*
X266114Y285870D01*
D02*
G37*
G36*
X278512Y291381D02*
X278452Y291429D01*
X278387Y291460D01*
X278317Y291474D01*
X278240Y291471D01*
X278158Y291451D01*
X278071Y291414D01*
X277977Y291361D01*
X277878Y291290D01*
X277774Y291202D01*
X277663Y291098D01*
X277098Y291663D01*
X277202Y291774D01*
X277290Y291878D01*
X277361Y291977D01*
X277414Y292071D01*
X277451Y292158D01*
X277471Y292240D01*
X277474Y292317D01*
X277460Y292387D01*
X277429Y292453D01*
X277380Y292512D01*
X278512Y291381D01*
D02*
G37*
G36*
X304279Y299250D02*
X304219Y299298D01*
X304154Y299329D01*
X304083Y299342D01*
X304006Y299339D01*
X303923Y299318D01*
X303834Y299281D01*
X303740Y299226D01*
X303640Y299154D01*
X303534Y299065D01*
X303422Y298958D01*
X302856Y299524D01*
X302962Y299636D01*
X303051Y299742D01*
X303123Y299843D01*
X303178Y299937D01*
X303216Y300026D01*
X303236Y300108D01*
X303240Y300185D01*
X303226Y300256D01*
X303195Y300322D01*
X303147Y300381D01*
X304279Y299250D01*
D02*
G37*
G36*
X66222Y300569D02*
X66191Y300504D01*
X66177Y300433D01*
X66180Y300356D01*
X66201Y300273D01*
X66239Y300185D01*
X66294Y300090D01*
X66365Y299990D01*
X66455Y299884D01*
X66561Y299772D01*
X65995Y299206D01*
X65883Y299312D01*
X65777Y299402D01*
X65677Y299474D01*
X65583Y299528D01*
X65494Y299566D01*
X65411Y299587D01*
X65334Y299590D01*
X65263Y299576D01*
X65198Y299546D01*
X65138Y299498D01*
X66270Y300629D01*
X66222Y300569D01*
D02*
G37*
G36*
X70319Y306584D02*
X70214Y306474D01*
X70127Y306369D01*
X70056Y306270D01*
X70002Y306177D01*
X69966Y306089D01*
X69946Y306007D01*
X69943Y305931D01*
X69957Y305860D01*
X69988Y305795D01*
X70036Y305736D01*
X68905Y306867D01*
X68964Y306819D01*
X69029Y306788D01*
X69100Y306774D01*
X69176Y306777D01*
X69258Y306797D01*
X69346Y306833D01*
X69440Y306887D01*
X69538Y306958D01*
X69643Y307045D01*
X69753Y307150D01*
X70319Y306584D01*
D02*
G37*
G36*
X299774Y306798D02*
X299878Y306710D01*
X299977Y306639D01*
X300071Y306586D01*
X300158Y306549D01*
X300240Y306529D01*
X300317Y306526D01*
X300387Y306540D01*
X300452Y306571D01*
X300512Y306620D01*
X299380Y305488D01*
X299429Y305547D01*
X299460Y305613D01*
X299474Y305683D01*
X299471Y305760D01*
X299451Y305842D01*
X299414Y305929D01*
X299361Y306023D01*
X299290Y306122D01*
X299202Y306226D01*
X299098Y306337D01*
X299663Y306902D01*
X299774Y306798D01*
D02*
G37*
G36*
X291608Y293574D02*
X291558Y293596D01*
X291483Y293585D01*
X291384Y293543D01*
X291261Y293468D01*
X291113Y293362D01*
X290940Y293224D01*
X290275Y292616D01*
X290005Y292349D01*
X288591Y293763D01*
X288857Y294034D01*
X289710Y295019D01*
X289785Y295143D01*
X289827Y295242D01*
X289837Y295316D01*
X289815Y295366D01*
X291608Y293574D01*
D02*
G37*
G36*
X80163Y295316D02*
X80173Y295242D01*
X80215Y295143D01*
X80290Y295019D01*
X80396Y294871D01*
X80535Y294698D01*
X81143Y294034D01*
X81410Y293763D01*
X79995Y292349D01*
X79725Y292616D01*
X78739Y293468D01*
X78616Y293543D01*
X78517Y293585D01*
X78442Y293596D01*
X78392Y293574D01*
X80185Y295366D01*
X80163Y295316D01*
D02*
G37*
G36*
X284902Y298337D02*
X284796Y298225D01*
X284707Y298119D01*
X284635Y298018D01*
X284580Y297924D01*
X284542Y297835D01*
X284522Y297752D01*
X284518Y297675D01*
X284532Y297604D01*
X284563Y297539D01*
X284611Y297480D01*
X283480Y298611D01*
X283539Y298563D01*
X283604Y298532D01*
X283676Y298518D01*
X283752Y298522D01*
X283835Y298542D01*
X283924Y298580D01*
X284018Y298635D01*
X284119Y298707D01*
X284225Y298796D01*
X284337Y298902D01*
X284902Y298337D01*
D02*
G37*
G36*
X85775Y298296D02*
X85881Y298207D01*
X85982Y298135D01*
X86076Y298080D01*
X86165Y298042D01*
X86247Y298022D01*
X86325Y298018D01*
X86396Y298032D01*
X86461Y298063D01*
X86520Y298111D01*
X85389Y296980D01*
X85437Y297039D01*
X85468Y297104D01*
X85482Y297176D01*
X85478Y297252D01*
X85458Y297335D01*
X85420Y297424D01*
X85365Y297518D01*
X85293Y297619D01*
X85204Y297725D01*
X85098Y297837D01*
X85663Y298402D01*
X85775Y298296D01*
D02*
G37*
G36*
X193315Y262724D02*
X193339Y262656D01*
X193380Y262596D01*
X193437Y262544D01*
X193510Y262500D01*
X193599Y262464D01*
X193705Y262436D01*
X193826Y262416D01*
X193964Y262404D01*
X194119Y262400D01*
Y261600D01*
X193964Y261596D01*
X193826Y261584D01*
X193705Y261564D01*
X193599Y261536D01*
X193510Y261500D01*
X193437Y261456D01*
X193380Y261404D01*
X193339Y261344D01*
X193315Y261276D01*
X193307Y261200D01*
Y262800D01*
X193315Y262724D01*
D02*
G37*
G36*
X192480Y260244D02*
X192412Y260220D01*
X192352Y260179D01*
X192300Y260122D01*
X192256Y260049D01*
X192220Y259960D01*
X192192Y259855D01*
X192172Y259733D01*
X192160Y259595D01*
X192156Y259440D01*
X191356D01*
X191352Y259595D01*
X191340Y259733D01*
X191320Y259855D01*
X191292Y259960D01*
X191256Y260049D01*
X191212Y260122D01*
X191160Y260179D01*
X191100Y260220D01*
X191032Y260244D01*
X190956Y260252D01*
X192556D01*
X192480Y260244D01*
D02*
G37*
G36*
X203182Y262936D02*
X203376Y262823D01*
X203611Y262724D01*
X203888Y262638D01*
X204206Y262565D01*
X204565Y262506D01*
X205298Y262437D01*
X205401Y262464D01*
X205490Y262500D01*
X205563Y262544D01*
X205620Y262596D01*
X205661Y262656D01*
X205685Y262724D01*
X205693Y262800D01*
Y262415D01*
X205890Y262407D01*
X206414Y262400D01*
Y261600D01*
X205890Y261593D01*
X205693Y261579D01*
Y261200D01*
X205685Y261276D01*
X205661Y261344D01*
X205620Y261404D01*
X205563Y261456D01*
X205490Y261500D01*
X205401Y261536D01*
X205340Y261552D01*
X204565Y261494D01*
X204206Y261435D01*
X203888Y261362D01*
X203611Y261276D01*
X203376Y261177D01*
X203182Y261064D01*
X203028Y260939D01*
Y263061D01*
X203182Y262936D01*
D02*
G37*
G36*
X196874Y261200D02*
X196866Y261276D01*
X196842Y261344D01*
X196801Y261404D01*
X196745Y261456D01*
X196671Y261500D01*
X196582Y261536D01*
X196476Y261564D01*
X196355Y261584D01*
X196217Y261596D01*
X196062Y261600D01*
Y262400D01*
X196217Y262404D01*
X196355Y262416D01*
X196476Y262436D01*
X196582Y262464D01*
X196671Y262500D01*
X196745Y262544D01*
X196801Y262596D01*
X196842Y262656D01*
X196866Y262724D01*
X196874Y262800D01*
Y261200D01*
D02*
G37*
G36*
X162756Y257980D02*
X162780Y257912D01*
X162821Y257852D01*
X162878Y257800D01*
X162951Y257756D01*
X163040Y257720D01*
X163145Y257692D01*
X163267Y257672D01*
X163405Y257660D01*
X163560Y257656D01*
Y256856D01*
X163405Y256852D01*
X163267Y256840D01*
X163145Y256820D01*
X163040Y256792D01*
X162951Y256756D01*
X162878Y256712D01*
X162821Y256660D01*
X162780Y256600D01*
X162756Y256532D01*
X162748Y256456D01*
Y258056D01*
X162756Y257980D01*
D02*
G37*
G36*
X207645Y255159D02*
X207660Y254931D01*
X207668Y254875D01*
X207679Y254829D01*
X207691Y254793D01*
X207706Y254768D01*
X207722Y254753D01*
X207740Y254748D01*
X206748D01*
X206766Y254753D01*
X206783Y254768D01*
X206797Y254793D01*
X206809Y254829D01*
X206820Y254875D01*
X206829Y254931D01*
X206840Y255073D01*
X206844Y255256D01*
X207644D01*
X207645Y255159D01*
D02*
G37*
G36*
X277762Y258380D02*
X277807Y257740D01*
X277846Y257480D01*
X277897Y257260D01*
X277958Y257080D01*
X278032Y256940D01*
X278116Y256840D01*
X278212Y256780D01*
X278319Y256760D01*
X275193D01*
X275300Y256780D01*
X275396Y256840D01*
X275480Y256940D01*
X275553Y257080D01*
X275615Y257260D01*
X275666Y257480D01*
X275705Y257740D01*
X275733Y258040D01*
X275756Y258760D01*
X277756D01*
X277762Y258380D01*
D02*
G37*
G36*
X93648Y257405D02*
X93660Y257267D01*
X93680Y257146D01*
X93708Y257040D01*
X93744Y256951D01*
X93788Y256878D01*
X93840Y256821D01*
X93900Y256780D01*
X93968Y256756D01*
X94044Y256748D01*
X92444D01*
X92520Y256756D01*
X92588Y256780D01*
X92648Y256821D01*
X92700Y256878D01*
X92744Y256951D01*
X92780Y257040D01*
X92808Y257146D01*
X92828Y257267D01*
X92840Y257405D01*
X92844Y257560D01*
X93644D01*
X93648Y257405D01*
D02*
G37*
G36*
X106041Y264410D02*
X106032Y264375D01*
X106025Y264323D01*
X106012Y264168D01*
X106000Y263653D01*
X106000Y263482D01*
X104000D01*
X103950Y264429D01*
X106050D01*
X106041Y264410D01*
D02*
G37*
G36*
X95374Y267700D02*
X95314Y267748D01*
X95249Y267779D01*
X95178Y267793D01*
X95101Y267790D01*
X95018Y267769D01*
X94930Y267731D01*
X94835Y267676D01*
X94735Y267604D01*
X94629Y267515D01*
X94517Y267409D01*
X93951Y267975D01*
X94057Y268087D01*
X94147Y268193D01*
X94218Y268293D01*
X94273Y268387D01*
X94311Y268476D01*
X94332Y268559D01*
X94335Y268636D01*
X94321Y268707D01*
X94291Y268772D01*
X94243Y268832D01*
X95374Y267700D01*
D02*
G37*
G36*
X204683Y270056D02*
X204429Y269965D01*
X204204Y269814D01*
X204009Y269603D01*
X203843Y269332D01*
X203709Y269001D01*
X203604Y268609D01*
X203528Y268158D01*
X203484Y267647D01*
X203468Y267075D01*
X200468D01*
X200857Y270075D01*
X204969Y270087D01*
X204683Y270056D01*
D02*
G37*
G36*
X103744Y273154D02*
X103766Y273091D01*
X103819Y273002D01*
X103902Y272888D01*
X104016Y272747D01*
X104543Y272171D01*
X105047Y271657D01*
X103633Y270243D01*
X103363Y270510D01*
X102199Y271524D01*
X102136Y271546D01*
X102099Y271537D01*
X103752Y273190D01*
X103744Y273154D01*
D02*
G37*
G36*
X271537Y267901D02*
X271552Y267936D01*
X271523Y267967D01*
X271450Y267994D01*
X271334Y268018D01*
X271175Y268039D01*
X270754Y268066D01*
X270156Y268034D01*
Y268077D01*
X269720Y268084D01*
X270156Y268519D01*
Y270134D01*
X270174Y270125D01*
X270209Y270116D01*
X270261Y270109D01*
X270417Y270097D01*
X270931Y270085D01*
X271102Y270084D01*
Y269466D01*
X271720Y270084D01*
X272112Y270094D01*
X272484Y270124D01*
X272836Y270174D01*
X273167Y270243D01*
X273478Y270332D01*
X273769Y270441D01*
X274039Y270570D01*
X274289Y270719D01*
X274519Y270887D01*
X274729Y271076D01*
X271537Y267901D01*
D02*
G37*
G36*
X276486Y269532D02*
X276408Y269369D01*
X276374Y269192D01*
X276381Y269000D01*
X276431Y268794D01*
X276524Y268574D01*
X276660Y268340D01*
X276838Y268091D01*
X277058Y267828D01*
X277322Y267550D01*
X275907Y266136D01*
X275630Y266400D01*
X275367Y266620D01*
X275118Y266798D01*
X274884Y266934D01*
X274664Y267026D01*
X274458Y267077D01*
X274266Y267084D01*
X274089Y267050D01*
X273926Y266972D01*
X273778Y266852D01*
X276606Y269680D01*
X276486Y269532D01*
D02*
G37*
G36*
X90406Y265059D02*
X90423Y264938D01*
X90452Y264818D01*
X90493Y264698D01*
X90545Y264580D01*
X90609Y264462D01*
X90684Y264345D01*
X90771Y264229D01*
X90870Y264114D01*
X90980Y264000D01*
X89020D01*
X89130Y264114D01*
X89229Y264229D01*
X89316Y264345D01*
X89391Y264462D01*
X89455Y264580D01*
X89507Y264698D01*
X89548Y264818D01*
X89577Y264938D01*
X89594Y265059D01*
X89600Y265182D01*
X90400D01*
X90406Y265059D01*
D02*
G37*
G36*
X106050Y266571D02*
X103950D01*
X103960Y266589D01*
X103968Y266625D01*
X103975Y266677D01*
X103988Y266832D01*
X103999Y267347D01*
X104000Y267518D01*
X106000D01*
X106050Y266571D01*
D02*
G37*
G36*
X243614Y268370D02*
X243729Y268271D01*
X243845Y268184D01*
X243962Y268109D01*
X244079Y268045D01*
X244198Y267993D01*
X244318Y267952D01*
X244438Y267923D01*
X244559Y267906D01*
X244682Y267900D01*
Y267100D01*
X244559Y267094D01*
X244438Y267077D01*
X244318Y267048D01*
X244198Y267007D01*
X244079Y266955D01*
X243962Y266891D01*
X243845Y266816D01*
X243729Y266729D01*
X243614Y266630D01*
X243500Y266520D01*
Y268480D01*
X243614Y268370D01*
D02*
G37*
G36*
X197467Y231689D02*
X197479Y231551D01*
X197499Y231429D01*
X197527Y231323D01*
X197563Y231234D01*
X197607Y231161D01*
X197659Y231104D01*
X197719Y231064D01*
X197787Y231039D01*
X197863Y231031D01*
X194688D01*
X194764Y231039D01*
X194832Y231064D01*
X194892Y231104D01*
X194944Y231161D01*
X194988Y231234D01*
X195024Y231323D01*
X195052Y231429D01*
X195072Y231551D01*
X195084Y231689D01*
X195088Y231843D01*
X195888D01*
X195892Y231689D01*
X195904Y231551D01*
X195924Y231429D01*
X195952Y231323D01*
X195988Y231234D01*
X196032Y231161D01*
X196084Y231104D01*
X196144Y231064D01*
X196212Y231039D01*
X196276Y231032D01*
X196339Y231039D01*
X196407Y231064D01*
X196467Y231104D01*
X196519Y231161D01*
X196563Y231234D01*
X196599Y231323D01*
X196627Y231429D01*
X196647Y231551D01*
X196659Y231689D01*
X196663Y231843D01*
X197463D01*
X197467Y231689D01*
D02*
G37*
G36*
X133449Y194228D02*
X133441Y194304D01*
X133417Y194372D01*
X133376Y194432D01*
X133319Y194484D01*
X133246Y194528D01*
X133157Y194564D01*
X133051Y194592D01*
X133031Y194595D01*
X133012Y194592D01*
X132906Y194564D01*
X132817Y194528D01*
X132744Y194484D01*
X132687Y194432D01*
X132646Y194372D01*
X132622Y194304D01*
X132614Y194228D01*
Y195828D01*
X132622Y195752D01*
X132646Y195684D01*
X132687Y195624D01*
X132744Y195572D01*
X132817Y195528D01*
X132906Y195492D01*
X133012Y195464D01*
X133031Y195460D01*
X133051Y195464D01*
X133157Y195492D01*
X133246Y195528D01*
X133319Y195572D01*
X133376Y195624D01*
X133417Y195684D01*
X133441Y195752D01*
X133449Y195828D01*
Y194228D01*
D02*
G37*
G36*
X170614Y195870D02*
X170729Y195771D01*
X170845Y195684D01*
X170962Y195609D01*
X171080Y195545D01*
X171198Y195493D01*
X171318Y195452D01*
X171438Y195423D01*
X171559Y195406D01*
X171682Y195400D01*
Y194600D01*
X171559Y194594D01*
X171438Y194577D01*
X171318Y194548D01*
X171198Y194507D01*
X171080Y194455D01*
X170962Y194391D01*
X170845Y194316D01*
X170729Y194229D01*
X170614Y194130D01*
X170500Y194020D01*
Y195980D01*
X170614Y195870D01*
D02*
G37*
G36*
X125366Y197500D02*
X125358Y197534D01*
X125334Y197564D01*
X125294Y197591D01*
X125238Y197615D01*
X125166Y197634D01*
X125078Y197650D01*
X124974Y197663D01*
X124718Y197677D01*
X124566Y197679D01*
Y198479D01*
X124718Y198480D01*
X125078Y198507D01*
X125166Y198523D01*
X125238Y198543D01*
X125294Y198566D01*
X125334Y198593D01*
X125358Y198623D01*
X125366Y198657D01*
Y197500D01*
D02*
G37*
G36*
X128888Y193543D02*
X128868Y193515D01*
X128881Y193438D01*
X128851Y193366D01*
X128888Y193276D01*
Y192754D01*
X129023D01*
X129028Y192690D01*
X129029Y192559D01*
X129059Y192489D01*
Y190501D01*
X127783Y189225D01*
X127562Y188894D01*
X127484Y188504D01*
Y164415D01*
X127455Y164348D01*
X127451Y164214D01*
X127445Y164143D01*
X125542D01*
Y162040D01*
X125478Y162035D01*
X125346Y162034D01*
X125277Y162004D01*
X123484D01*
X123094Y161926D01*
X122763Y161705D01*
X121779Y160721D01*
X121558Y160390D01*
X121500Y160099D01*
X121000Y160148D01*
Y174852D01*
X121500Y174901D01*
X121558Y174610D01*
X121779Y174279D01*
X122060Y173998D01*
X121961Y173500D01*
X122116Y172720D01*
X122558Y172058D01*
X123220Y171616D01*
X124000Y171461D01*
X124780Y171616D01*
X125442Y172058D01*
X125884Y172720D01*
X126039Y173500D01*
X125884Y174280D01*
X125442Y174942D01*
X124780Y175384D01*
X124000Y175539D01*
X123906Y175521D01*
X123520Y175838D01*
Y196078D01*
X124276Y196835D01*
X124754Y196888D01*
Y196888D01*
X125276D01*
X125366Y196851D01*
X125438Y196881D01*
X125515Y196868D01*
X125543Y196888D01*
X128888D01*
Y193543D01*
D02*
G37*
G36*
X259402Y193392D02*
X259421Y193208D01*
X259438Y193130D01*
X259460Y193064D01*
X259486Y193007D01*
X259517Y192961D01*
X259553Y192924D01*
X259593Y192899D01*
X259639Y192883D01*
X258362D01*
X258407Y192899D01*
X258447Y192924D01*
X258483Y192961D01*
X258514Y193007D01*
X258540Y193064D01*
X258562Y193130D01*
X258578Y193208D01*
X258591Y193295D01*
X258598Y193392D01*
X258600Y193500D01*
X259400D01*
X259402Y193392D01*
D02*
G37*
G36*
X134560Y193358D02*
X134530Y193334D01*
X134503Y193294D01*
X134480Y193238D01*
X134460Y193166D01*
X134444Y193078D01*
X134432Y192974D01*
X134417Y192718D01*
X134416Y192566D01*
X133616D01*
X133614Y192718D01*
X133587Y193078D01*
X133571Y193166D01*
X133552Y193238D01*
X133528Y193294D01*
X133502Y193334D01*
X133471Y193358D01*
X133437Y193366D01*
X134594D01*
X134560Y193358D01*
D02*
G37*
G36*
X130623D02*
X130593Y193334D01*
X130566Y193294D01*
X130543Y193238D01*
X130523Y193166D01*
X130507Y193078D01*
X130495Y192974D01*
X130481Y192718D01*
X130479Y192566D01*
X129679D01*
X129677Y192718D01*
X129650Y193078D01*
X129634Y193166D01*
X129614Y193238D01*
X129591Y193294D01*
X129564Y193334D01*
X129534Y193358D01*
X129500Y193366D01*
X130657D01*
X130623Y193358D01*
D02*
G37*
G36*
X140466D02*
X140436Y193334D01*
X140409Y193294D01*
X140385Y193238D01*
X140366Y193166D01*
X140350Y193078D01*
X140337Y192974D01*
X140323Y192718D01*
X140321Y192566D01*
X139521D01*
X139520Y192718D01*
X139493Y193078D01*
X139477Y193166D01*
X139457Y193238D01*
X139434Y193294D01*
X139407Y193334D01*
X139377Y193358D01*
X139343Y193366D01*
X140500D01*
X140466Y193358D01*
D02*
G37*
G36*
X136529D02*
X136498Y193334D01*
X136472Y193294D01*
X136449Y193238D01*
X136429Y193166D01*
X136413Y193078D01*
X136400Y192974D01*
X136386Y192718D01*
X136384Y192566D01*
X135584D01*
X135582Y192718D01*
X135556Y193078D01*
X135540Y193166D01*
X135520Y193238D01*
X135497Y193294D01*
X135470Y193334D01*
X135440Y193358D01*
X135406Y193366D01*
X136563D01*
X136529Y193358D01*
D02*
G37*
G36*
X147500Y253843D02*
X147431Y253372D01*
X143081D01*
Y248628D01*
X143941D01*
X143947Y248558D01*
X143951Y248424D01*
X143980Y248357D01*
Y246422D01*
X141661Y244103D01*
X141440Y243772D01*
X141384Y243491D01*
X141333Y243376D01*
X141329Y243241D01*
X141323Y243171D01*
X140601D01*
Y240480D01*
X140531Y240474D01*
X140396Y240471D01*
X140329Y240441D01*
X139513D01*
X139447Y240471D01*
X139312Y240474D01*
X139242Y240480D01*
Y243171D01*
X135679D01*
Y235672D01*
X139242D01*
Y238362D01*
X139312Y238369D01*
X139447Y238372D01*
X139513Y238402D01*
X140329D01*
X140396Y238372D01*
X140531Y238369D01*
X140601Y238362D01*
Y235672D01*
X144163D01*
Y243171D01*
X144163D01*
X144002Y243560D01*
X145721Y245279D01*
X145942Y245610D01*
X146020Y246000D01*
Y248145D01*
X146407Y248628D01*
X147431D01*
X147500Y248157D01*
Y235020D01*
X139000D01*
X138610Y234942D01*
X138279Y234721D01*
X136740Y233182D01*
X136519Y232851D01*
X136471Y232611D01*
X136411Y232476D01*
X136408Y232351D01*
X136407Y232328D01*
X135679D01*
Y224829D01*
X136311D01*
X136387Y224329D01*
X135578Y223520D01*
X130500D01*
X130110Y223442D01*
X129779Y223221D01*
X127779Y221221D01*
X127558Y220890D01*
X127480Y220500D01*
Y217000D01*
X127558Y216610D01*
X127779Y216279D01*
X129059Y214999D01*
Y213511D01*
X129029Y213441D01*
X129028Y213304D01*
X129025Y213246D01*
X128888D01*
Y212724D01*
X128851Y212634D01*
X128881Y212562D01*
X128868Y212485D01*
X128888Y212457D01*
Y208699D01*
X141112D01*
Y213246D01*
X139008D01*
X139004Y213310D01*
X139002Y213441D01*
X138972Y213511D01*
Y214357D01*
X139002Y214423D01*
X139005Y214558D01*
X139012Y214628D01*
X139919D01*
Y219372D01*
X135569D01*
Y214628D01*
X136894D01*
X136900Y214558D01*
X136904Y214423D01*
X136933Y214357D01*
Y213511D01*
X136903Y213441D01*
X136902Y213304D01*
X136899Y213246D01*
X133103D01*
X133098Y213310D01*
X133097Y213441D01*
X133067Y213511D01*
Y215808D01*
X133442Y216058D01*
X133884Y216720D01*
X134039Y217500D01*
X133884Y218280D01*
X133442Y218942D01*
X133468Y219526D01*
X133922Y219980D01*
X141000D01*
X141390Y220058D01*
X141721Y220279D01*
X143103Y221661D01*
X143324Y221992D01*
X143402Y222382D01*
Y224557D01*
X143431Y224624D01*
X143435Y224756D01*
X143441Y224829D01*
X144163D01*
Y232328D01*
X140601D01*
Y224829D01*
X141323D01*
X141329Y224756D01*
X141333Y224624D01*
X141362Y224557D01*
Y222804D01*
X140578Y222020D01*
X137615D01*
X137424Y222481D01*
X138182Y223240D01*
X138403Y223570D01*
X138480Y223961D01*
Y224557D01*
X138510Y224624D01*
X138513Y224756D01*
X138520Y224829D01*
X139242D01*
Y232328D01*
X139242D01*
X139128Y232602D01*
X139438Y232980D01*
X148276D01*
X148558Y232558D01*
X149220Y232116D01*
X150000Y231961D01*
X150450Y232050D01*
X152500Y230000D01*
Y200866D01*
X152372Y200419D01*
X147628D01*
Y199138D01*
X147558Y199131D01*
X147424Y199128D01*
X147357Y199098D01*
X145511D01*
X145441Y199128D01*
X145304Y199130D01*
X145246Y199133D01*
Y202794D01*
Y207143D01*
X140699D01*
Y204762D01*
Y200825D01*
Y197301D01*
X129301D01*
Y202794D01*
Y207143D01*
X124754D01*
Y202794D01*
Y199134D01*
X124690Y199130D01*
X124559Y199128D01*
X124489Y199098D01*
X124079D01*
X123689Y199021D01*
X123358Y198800D01*
X121779Y197221D01*
X121558Y196890D01*
X121500Y196598D01*
X121000Y196648D01*
Y237500D01*
X115000Y243500D01*
Y267500D01*
X147500D01*
Y253843D01*
D02*
G37*
G36*
X195815Y200224D02*
X195839Y200156D01*
X195880Y200096D01*
X195937Y200044D01*
X196010Y200000D01*
X196099Y199964D01*
X196205Y199936D01*
X196326Y199916D01*
X196464Y199904D01*
X196619Y199900D01*
Y199100D01*
X196464Y199096D01*
X196326Y199084D01*
X196205Y199064D01*
X196099Y199036D01*
X196010Y199000D01*
X195937Y198956D01*
X195880Y198904D01*
X195839Y198844D01*
X195815Y198776D01*
X195807Y198700D01*
Y200300D01*
X195815Y200224D01*
D02*
G37*
G36*
X178099Y205926D02*
X178226Y205816D01*
X178354Y205718D01*
X178481Y205634D01*
X178608Y205562D01*
X178736Y205504D01*
X178863Y205458D01*
X178991Y205426D01*
X179118Y205406D01*
X179246Y205400D01*
Y204600D01*
X179118Y204593D01*
X178991Y204574D01*
X178863Y204541D01*
X178736Y204496D01*
X178608Y204437D01*
X178481Y204366D01*
X178354Y204281D01*
X178226Y204184D01*
X178099Y204074D01*
X177971Y203950D01*
Y206050D01*
X178099Y205926D01*
D02*
G37*
G36*
X194660Y201905D02*
X194672Y201767D01*
X194692Y201645D01*
X194720Y201540D01*
X194756Y201451D01*
X194800Y201378D01*
X194852Y201321D01*
X194912Y201280D01*
X194980Y201256D01*
X195056Y201248D01*
X193456D01*
X193532Y201256D01*
X193600Y201280D01*
X193660Y201321D01*
X193712Y201378D01*
X193756Y201451D01*
X193792Y201540D01*
X193820Y201645D01*
X193840Y201767D01*
X193852Y201905D01*
X193856Y202060D01*
X194656D01*
X194660Y201905D01*
D02*
G37*
G36*
X187181Y198700D02*
X187173Y198776D01*
X187149Y198844D01*
X187109Y198904D01*
X187053Y198956D01*
X186981Y199000D01*
X186893Y199036D01*
X186789Y199064D01*
X186669Y199084D01*
X186533Y199096D01*
X186381Y199100D01*
Y199900D01*
X186533Y199904D01*
X186669Y199916D01*
X186789Y199936D01*
X186893Y199964D01*
X186981Y200000D01*
X187053Y200044D01*
X187109Y200096D01*
X187149Y200156D01*
X187173Y200224D01*
X187181Y200300D01*
Y198700D01*
D02*
G37*
G36*
X256952Y197873D02*
X256619Y198185D01*
X255712Y198923D01*
X255440Y199104D01*
X255185Y199252D01*
X254944Y199366D01*
X254719Y199449D01*
X254510Y199498D01*
X254316Y199514D01*
X254292Y200314D01*
X254493Y200331D01*
X254706Y200382D01*
X254931Y200466D01*
X255167Y200585D01*
X255416Y200737D01*
X255675Y200923D01*
X255947Y201143D01*
X256525Y201684D01*
X256832Y202005D01*
X256952Y197873D01*
D02*
G37*
G36*
X144642Y198623D02*
X144666Y198593D01*
X144706Y198566D01*
X144762Y198543D01*
X144834Y198523D01*
X144922Y198507D01*
X145026Y198495D01*
X145282Y198480D01*
X145434Y198479D01*
Y197679D01*
X145282Y197677D01*
X144922Y197650D01*
X144834Y197634D01*
X144762Y197615D01*
X144706Y197591D01*
X144666Y197564D01*
X144642Y197534D01*
X144634Y197500D01*
Y198657D01*
X144642Y198623D01*
D02*
G37*
G36*
X149100Y197344D02*
X150855Y197135D01*
X150737Y197038D01*
X150632Y196938D01*
X150539Y196835D01*
X150458Y196728D01*
X150436Y196693D01*
X150635D01*
X150559Y196685D01*
X150491Y196661D01*
X150431Y196620D01*
X150379Y196563D01*
X150335Y196490D01*
X150299Y196401D01*
X150271Y196295D01*
X150251Y196174D01*
X150239Y196036D01*
X150235Y195881D01*
X149435D01*
X149431Y196036D01*
X149419Y196174D01*
X149399Y196295D01*
X149371Y196401D01*
X149335Y196490D01*
X149291Y196563D01*
X149239Y196620D01*
X149179Y196661D01*
X149111Y196685D01*
X149035Y196693D01*
X149317D01*
X149303Y196729D01*
X149245Y196854D01*
X149177Y196980D01*
X149098Y197108D01*
X149009Y197237D01*
X149002Y197246D01*
X148993Y197253D01*
X148736Y197421D01*
X148610Y197489D01*
X148485Y197547D01*
X148361Y197595D01*
X148252Y197627D01*
Y197279D01*
X148244Y197355D01*
X148220Y197423D01*
X148179Y197483D01*
X148122Y197535D01*
X148049Y197579D01*
X147960Y197615D01*
X147854Y197643D01*
X147733Y197663D01*
X147595Y197675D01*
X147440Y197679D01*
Y198479D01*
X147595Y198483D01*
X147733Y198495D01*
X147854Y198515D01*
X147960Y198543D01*
X148049Y198579D01*
X148122Y198623D01*
X148179Y198675D01*
X148220Y198735D01*
X148244Y198803D01*
X148252Y198879D01*
Y198575D01*
X148262Y198578D01*
X148374Y198634D01*
X148484Y198702D01*
X148590Y198783D01*
X148694Y198876D01*
X148794Y198981D01*
X148891Y199099D01*
X149100Y197344D01*
D02*
G37*
G36*
X197878Y199694D02*
X197975Y199615D01*
X198074Y199548D01*
X198174Y199492D01*
X198275Y199447D01*
X198378Y199413D01*
X198482Y199389D01*
X198588Y199377D01*
X198695Y199376D01*
X198804Y199386D01*
X197614Y198196D01*
X197624Y198305D01*
X197623Y198412D01*
X197611Y198518D01*
X197588Y198622D01*
X197553Y198725D01*
X197508Y198826D01*
X197452Y198926D01*
X197385Y199025D01*
X197307Y199122D01*
X197217Y199217D01*
X197783Y199783D01*
X197878Y199694D01*
D02*
G37*
G36*
X233903Y193827D02*
X233914Y193676D01*
X233935Y193533D01*
X233964Y193397D01*
X234002Y193269D01*
X234049Y193148D01*
X234105Y193035D01*
X234170Y192929D01*
X234243Y192831D01*
X234326Y192740D01*
X233760Y192174D01*
X233669Y192257D01*
X233571Y192330D01*
X233466Y192395D01*
X233352Y192451D01*
X233231Y192498D01*
X233103Y192536D01*
X232967Y192565D01*
X232824Y192586D01*
X232673Y192597D01*
X232514Y192600D01*
X233900Y193986D01*
X233903Y193827D01*
D02*
G37*
G36*
X145148Y176905D02*
X145160Y176767D01*
X145180Y176646D01*
X145208Y176540D01*
X145244Y176451D01*
X145288Y176378D01*
X145340Y176321D01*
X145400Y176280D01*
X145468Y176256D01*
X145544Y176248D01*
X143944D01*
X144020Y176256D01*
X144088Y176280D01*
X144148Y176321D01*
X144200Y176378D01*
X144244Y176451D01*
X144280Y176540D01*
X144308Y176646D01*
X144328Y176767D01*
X144340Y176905D01*
X144344Y177060D01*
X145144D01*
X145148Y176905D01*
D02*
G37*
G36*
X223200Y177035D02*
X223132Y177012D01*
X223072Y176971D01*
X223020Y176916D01*
X222976Y176844D01*
X222940Y176755D01*
X222912Y176652D01*
X222892Y176532D01*
X222880Y176395D01*
X222876Y176243D01*
X222076D01*
X222072Y176395D01*
X222060Y176532D01*
X222040Y176652D01*
X222012Y176755D01*
X221976Y176844D01*
X221932Y176916D01*
X221880Y176971D01*
X221820Y177012D01*
X221752Y177035D01*
X221676Y177043D01*
X223276D01*
X223200Y177035D01*
D02*
G37*
G36*
X140256Y180980D02*
X140280Y180912D01*
X140321Y180852D01*
X140378Y180800D01*
X140451Y180756D01*
X140540Y180720D01*
X140646Y180692D01*
X140767Y180672D01*
X140905Y180660D01*
X141060Y180656D01*
Y179856D01*
X140905Y179852D01*
X140767Y179840D01*
X140646Y179820D01*
X140540Y179792D01*
X140451Y179756D01*
X140378Y179712D01*
X140321Y179660D01*
X140280Y179600D01*
X140256Y179532D01*
X140248Y179456D01*
Y181056D01*
X140256Y180980D01*
D02*
G37*
G36*
X248445Y179324D02*
X248469Y179256D01*
X248510Y179196D01*
X248567Y179144D01*
X248640Y179100D01*
X248729Y179064D01*
X248834Y179036D01*
X248956Y179016D01*
X249094Y179004D01*
X249249Y179000D01*
Y178200D01*
X249094Y178196D01*
X248956Y178184D01*
X248834Y178164D01*
X248729Y178136D01*
X248640Y178100D01*
X248567Y178056D01*
X248510Y178004D01*
X248469Y177944D01*
X248445Y177876D01*
X248437Y177800D01*
Y179400D01*
X248445Y179324D01*
D02*
G37*
G36*
X259408Y173818D02*
X259433Y173647D01*
X259474Y173488D01*
X259531Y173340D01*
X259606Y173203D01*
X259696Y173077D01*
X259803Y172963D01*
X259926Y172860D01*
X260066Y172768D01*
X260222Y172688D01*
X257778D01*
X257934Y172768D01*
X258074Y172860D01*
X258197Y172963D01*
X258304Y173077D01*
X258395Y173203D01*
X258469Y173340D01*
X258526Y173488D01*
X258567Y173647D01*
X258592Y173818D01*
X258600Y174000D01*
X259400D01*
X259408Y173818D01*
D02*
G37*
G36*
X132449Y169494D02*
X132476Y169134D01*
X132492Y169046D01*
X132511Y168974D01*
X132535Y168918D01*
X132562Y168878D01*
X132592Y168854D01*
X132626Y168846D01*
X131469D01*
X131503Y168854D01*
X131533Y168878D01*
X131560Y168918D01*
X131583Y168974D01*
X131603Y169046D01*
X131619Y169134D01*
X131631Y169238D01*
X131646Y169494D01*
X131647Y169646D01*
X132447D01*
X132449Y169494D01*
D02*
G37*
G36*
X226397Y169881D02*
X226422Y169814D01*
X226463Y169754D01*
X226519Y169702D01*
X226592Y169658D01*
X226682Y169622D01*
X226787Y169594D01*
X226909Y169573D01*
X227047Y169562D01*
X227201Y169557D01*
Y168757D01*
X227047Y168754D01*
X226909Y168742D01*
X226787Y168721D01*
X226682Y168693D01*
X226592Y168658D01*
X226519Y168614D01*
X226463Y168561D01*
X226422Y168501D01*
X226397Y168433D01*
X226389Y168358D01*
Y169957D01*
X226397Y169881D01*
D02*
G37*
G36*
X152372Y196069D02*
X152500Y195623D01*
Y191855D01*
X152116Y191280D01*
X151961Y190500D01*
X152116Y189720D01*
X152500Y189145D01*
Y172424D01*
X152000Y172020D01*
X147374D01*
X146919Y172128D01*
Y176872D01*
X145803D01*
X145797Y176942D01*
X145793Y177076D01*
X145764Y177143D01*
Y177834D01*
X148402Y180472D01*
X148623Y180803D01*
X148701Y181193D01*
Y185264D01*
X150556Y187118D01*
X150777Y187449D01*
X150854Y187839D01*
Y195586D01*
X151242Y196069D01*
X152372D01*
D02*
G37*
G36*
X234000Y171520D02*
X233886Y171630D01*
X233771Y171729D01*
X233655Y171816D01*
X233538Y171891D01*
X233420Y171955D01*
X233302Y172007D01*
X233182Y172048D01*
X233062Y172077D01*
X232941Y172094D01*
X232818Y172100D01*
Y172900D01*
X232941Y172906D01*
X233062Y172923D01*
X233182Y172952D01*
X233302Y172993D01*
X233420Y173045D01*
X233538Y173109D01*
X233655Y173184D01*
X233771Y173271D01*
X233886Y173370D01*
X234000Y173480D01*
Y171520D01*
D02*
G37*
G36*
X145500Y190520D02*
X145386Y190630D01*
X145271Y190729D01*
X145155Y190816D01*
X145038Y190891D01*
X144921Y190955D01*
X144802Y191007D01*
X144682Y191048D01*
X144562Y191077D01*
X144441Y191094D01*
X144318Y191100D01*
Y191900D01*
X144441Y191906D01*
X144562Y191923D01*
X144682Y191952D01*
X144802Y191993D01*
X144921Y192045D01*
X145038Y192109D01*
X145155Y192184D01*
X145271Y192271D01*
X145386Y192370D01*
X145500Y192480D01*
Y190520D01*
D02*
G37*
G36*
X226397Y189567D02*
X226422Y189498D01*
X226463Y189438D01*
X226519Y189386D01*
X226592Y189342D01*
X226682Y189306D01*
X226787Y189278D01*
X226909Y189259D01*
X227047Y189246D01*
X227201Y189242D01*
Y188443D01*
X227047Y188438D01*
X226909Y188426D01*
X226787Y188407D01*
X226682Y188379D01*
X226592Y188342D01*
X226519Y188298D01*
X226463Y188247D01*
X226422Y188187D01*
X226397Y188119D01*
X226389Y188042D01*
Y189643D01*
X226397Y189567D01*
D02*
G37*
G36*
X154406Y192559D02*
X154423Y192438D01*
X154452Y192318D01*
X154493Y192198D01*
X154545Y192079D01*
X154609Y191962D01*
X154684Y191845D01*
X154771Y191729D01*
X154870Y191614D01*
X154980Y191500D01*
X153020D01*
X153130Y191614D01*
X153229Y191729D01*
X153316Y191845D01*
X153391Y191962D01*
X153455Y192079D01*
X153507Y192198D01*
X153548Y192318D01*
X153577Y192438D01*
X153594Y192559D01*
X153600Y192682D01*
X154400D01*
X154406Y192559D01*
D02*
G37*
G36*
X212903Y191882D02*
X212912Y191772D01*
X212927Y191671D01*
X212948Y191579D01*
X212975Y191496D01*
X213008Y191422D01*
X213047Y191356D01*
X213092Y191299D01*
X213143Y191252D01*
X213200Y191212D01*
X211800D01*
X211857Y191252D01*
X211908Y191299D01*
X211953Y191356D01*
X211992Y191422D01*
X212025Y191496D01*
X212052Y191579D01*
X212073Y191671D01*
X212088Y191772D01*
X212097Y191882D01*
X212100Y192000D01*
X212900D01*
X212903Y191882D01*
D02*
G37*
G36*
X231291Y187794D02*
X231212Y187917D01*
X231129Y188028D01*
X231039Y188125D01*
X230944Y188209D01*
X230844Y188280D01*
X230739Y188339D01*
X230627Y188384D01*
X230511Y188417D01*
X230389Y188436D01*
X230261Y188443D01*
X230473Y189242D01*
X230586Y189247D01*
X230703Y189261D01*
X230824Y189283D01*
X230948Y189315D01*
X231076Y189356D01*
X231207Y189405D01*
X231481Y189532D01*
X231624Y189609D01*
X231770Y189695D01*
X231291Y187794D01*
D02*
G37*
G36*
X246114Y184870D02*
X246229Y184771D01*
X246345Y184684D01*
X246462Y184609D01*
X246580Y184545D01*
X246698Y184493D01*
X246818Y184452D01*
X246938Y184423D01*
X247059Y184406D01*
X247182Y184400D01*
Y183600D01*
X247059Y183594D01*
X246938Y183577D01*
X246818Y183548D01*
X246698Y183507D01*
X246580Y183455D01*
X246462Y183391D01*
X246345Y183316D01*
X246229Y183229D01*
X246114Y183130D01*
X246000Y183020D01*
Y184980D01*
X246114Y184870D01*
D02*
G37*
G36*
X138904Y181964D02*
X138916Y181826D01*
X138936Y181705D01*
X138964Y181599D01*
X139000Y181510D01*
X139044Y181437D01*
X139096Y181380D01*
X139156Y181339D01*
X139224Y181315D01*
X139300Y181307D01*
X137700D01*
X137776Y181315D01*
X137844Y181339D01*
X137904Y181380D01*
X137956Y181437D01*
X138000Y181510D01*
X138036Y181599D01*
X138064Y181705D01*
X138084Y181826D01*
X138096Y181964D01*
X138100Y182119D01*
X138900D01*
X138904Y181964D01*
D02*
G37*
G36*
X145148Y185905D02*
X145160Y185767D01*
X145180Y185645D01*
X145208Y185540D01*
X145244Y185451D01*
X145288Y185378D01*
X145340Y185321D01*
X145400Y185280D01*
X145468Y185256D01*
X145544Y185248D01*
X143944D01*
X144020Y185256D01*
X144088Y185280D01*
X144148Y185321D01*
X144200Y185378D01*
X144244Y185451D01*
X144280Y185540D01*
X144308Y185645D01*
X144328Y185767D01*
X144340Y185905D01*
X144344Y186060D01*
X145144D01*
X145148Y185905D01*
D02*
G37*
G36*
X206403Y186327D02*
X206414Y186176D01*
X206435Y186033D01*
X206464Y185897D01*
X206502Y185768D01*
X206549Y185648D01*
X206605Y185535D01*
X206670Y185429D01*
X206743Y185331D01*
X206825Y185240D01*
X206260Y184675D01*
X206169Y184757D01*
X206071Y184830D01*
X205965Y184895D01*
X205852Y184951D01*
X205732Y184998D01*
X205603Y185036D01*
X205467Y185065D01*
X205324Y185086D01*
X205173Y185097D01*
X205014Y185100D01*
X206400Y186486D01*
X206403Y186327D01*
D02*
G37*
G36*
X242906Y217059D02*
X242923Y216938D01*
X242952Y216818D01*
X242993Y216698D01*
X243045Y216580D01*
X243109Y216462D01*
X243184Y216345D01*
X243271Y216229D01*
X243370Y216114D01*
X243480Y216000D01*
X241520D01*
X241630Y216114D01*
X241729Y216229D01*
X241816Y216345D01*
X241891Y216462D01*
X241955Y216580D01*
X242007Y216698D01*
X242048Y216818D01*
X242077Y216938D01*
X242094Y217059D01*
X242100Y217182D01*
X242900D01*
X242906Y217059D01*
D02*
G37*
G36*
X260538Y217446D02*
X260299Y217229D01*
X260088Y217013D01*
X259906Y216796D01*
X259751Y216580D01*
X259625Y216364D01*
X259526Y216147D01*
X259456Y215931D01*
X259414Y215716D01*
X259400Y215500D01*
X258600D01*
X258586Y215716D01*
X258544Y215931D01*
X258473Y216147D01*
X258375Y216364D01*
X258249Y216580D01*
X258094Y216796D01*
X257911Y217013D01*
X257701Y217229D01*
X257462Y217446D01*
X257195Y217663D01*
X260805D01*
X260538Y217446D01*
D02*
G37*
G36*
X132403Y219381D02*
X132412Y219272D01*
X132427Y219171D01*
X132448Y219079D01*
X132475Y218996D01*
X132508Y218922D01*
X132547Y218856D01*
X132592Y218799D01*
X132643Y218752D01*
X132700Y218712D01*
X131300D01*
X131357Y218752D01*
X131408Y218799D01*
X131453Y218856D01*
X131492Y218922D01*
X131525Y218996D01*
X131552Y219079D01*
X131573Y219171D01*
X131588Y219272D01*
X131597Y219381D01*
X131600Y219500D01*
X132400D01*
X132403Y219381D01*
D02*
G37*
G36*
X249749Y218089D02*
X249609Y217947D01*
X249034Y217286D01*
X248944Y217164D01*
X248724Y216820D01*
X248286Y218659D01*
X248393Y218595D01*
X248499Y218547D01*
X248604Y218517D01*
X248708Y218504D01*
X248811Y218508D01*
X248913Y218529D01*
X249014Y218567D01*
X249115Y218622D01*
X249214Y218694D01*
X249312Y218784D01*
X249749Y218089D01*
D02*
G37*
G36*
X180114Y215870D02*
X180229Y215771D01*
X180345Y215684D01*
X180462Y215609D01*
X180579Y215545D01*
X180698Y215493D01*
X180818Y215452D01*
X180938Y215423D01*
X181059Y215406D01*
X181182Y215400D01*
Y214600D01*
X181059Y214594D01*
X180938Y214577D01*
X180818Y214548D01*
X180698Y214507D01*
X180579Y214455D01*
X180462Y214391D01*
X180345Y214316D01*
X180229Y214229D01*
X180114Y214130D01*
X180000Y214020D01*
Y215980D01*
X180114Y215870D01*
D02*
G37*
G36*
X178000Y214020D02*
X177886Y214130D01*
X177771Y214229D01*
X177655Y214316D01*
X177538Y214391D01*
X177420Y214455D01*
X177302Y214507D01*
X177182Y214548D01*
X177062Y214577D01*
X176941Y214594D01*
X176818Y214600D01*
Y215400D01*
X176941Y215406D01*
X177062Y215423D01*
X177182Y215452D01*
X177302Y215493D01*
X177420Y215545D01*
X177538Y215609D01*
X177655Y215684D01*
X177771Y215771D01*
X177886Y215870D01*
X178000Y215980D01*
Y214020D01*
D02*
G37*
G36*
X221252Y214456D02*
X221244Y214532D01*
X221220Y214600D01*
X221179Y214660D01*
X221122Y214712D01*
X221049Y214756D01*
X220960Y214792D01*
X220854Y214820D01*
X220733Y214840D01*
X220595Y214852D01*
X220440Y214856D01*
Y215656D01*
X220595Y215660D01*
X220733Y215672D01*
X220854Y215692D01*
X220960Y215720D01*
X221049Y215756D01*
X221122Y215800D01*
X221179Y215852D01*
X221220Y215912D01*
X221244Y215980D01*
X221252Y216056D01*
Y214456D01*
D02*
G37*
G36*
X138677Y215244D02*
X138609Y215220D01*
X138549Y215179D01*
X138497Y215122D01*
X138453Y215049D01*
X138417Y214960D01*
X138389Y214855D01*
X138369Y214733D01*
X138357Y214595D01*
X138353Y214440D01*
X137553D01*
X137549Y214595D01*
X137537Y214733D01*
X137517Y214855D01*
X137489Y214960D01*
X137453Y215049D01*
X137409Y215122D01*
X137357Y215179D01*
X137297Y215220D01*
X137229Y215244D01*
X137153Y215252D01*
X138753D01*
X138677Y215244D01*
D02*
G37*
G36*
X227614Y223870D02*
X227729Y223771D01*
X227845Y223684D01*
X227962Y223609D01*
X228080Y223545D01*
X228198Y223493D01*
X228318Y223452D01*
X228438Y223423D01*
X228559Y223406D01*
X228682Y223400D01*
Y222600D01*
X228559Y222594D01*
X228438Y222577D01*
X228318Y222548D01*
X228198Y222507D01*
X228080Y222455D01*
X227962Y222391D01*
X227845Y222316D01*
X227729Y222229D01*
X227614Y222130D01*
X227500Y222020D01*
Y223980D01*
X227614Y223870D01*
D02*
G37*
G36*
X178315Y228236D02*
X178339Y228168D01*
X178380Y228108D01*
X178437Y228056D01*
X178510Y228012D01*
X178599Y227976D01*
X178705Y227948D01*
X178826Y227928D01*
X178964Y227916D01*
X179119Y227912D01*
Y227112D01*
X178964Y227108D01*
X178826Y227096D01*
X178705Y227076D01*
X178599Y227048D01*
X178510Y227012D01*
X178437Y226968D01*
X178380Y226916D01*
X178339Y226856D01*
X178315Y226788D01*
X178307Y226712D01*
Y228312D01*
X178315Y228236D01*
D02*
G37*
G36*
X226114Y227370D02*
X226229Y227271D01*
X226345Y227184D01*
X226462Y227109D01*
X226579Y227045D01*
X226698Y226993D01*
X226818Y226952D01*
X226938Y226923D01*
X227059Y226906D01*
X227182Y226900D01*
Y226100D01*
X227059Y226094D01*
X226938Y226077D01*
X226818Y226048D01*
X226698Y226007D01*
X226579Y225955D01*
X226462Y225891D01*
X226345Y225816D01*
X226229Y225729D01*
X226114Y225630D01*
X226000Y225520D01*
Y227480D01*
X226114Y227370D01*
D02*
G37*
G36*
X102906Y232059D02*
X102923Y231938D01*
X102952Y231818D01*
X102993Y231698D01*
X103045Y231579D01*
X103109Y231462D01*
X103184Y231345D01*
X103271Y231229D01*
X103370Y231114D01*
X103480Y231000D01*
X101520D01*
X101630Y231114D01*
X101729Y231229D01*
X101816Y231345D01*
X101891Y231462D01*
X101955Y231579D01*
X102007Y231698D01*
X102048Y231818D01*
X102077Y231938D01*
X102094Y232059D01*
X102100Y232182D01*
X102900D01*
X102906Y232059D01*
D02*
G37*
G36*
X210144Y229668D02*
Y225000D01*
X191856D01*
Y226518D01*
Y231144D01*
X193578D01*
X194042Y230962D01*
X194146Y230772D01*
X194229Y230572D01*
X194263Y230558D01*
X194280Y230526D01*
X194471Y230470D01*
X194476Y230464D01*
X194546Y230110D01*
X194767Y229779D01*
X195098Y229558D01*
X195488Y229480D01*
X195878Y229558D01*
X195885Y229563D01*
X196276Y229748D01*
X196666Y229563D01*
X196673Y229558D01*
X197063Y229480D01*
X197453Y229558D01*
X197784Y229779D01*
X198005Y230110D01*
X198075Y230464D01*
X198080Y230470D01*
X198268Y230525D01*
X198271Y230526D01*
X198288Y230558D01*
X198322Y230572D01*
X198405Y230772D01*
X198509Y230962D01*
X198974Y231144D01*
X210144D01*
Y229668D01*
D02*
G37*
G36*
X138185Y225433D02*
X138117Y225409D01*
X138057Y225369D01*
X138005Y225313D01*
X137961Y225241D01*
X137925Y225153D01*
X137897Y225049D01*
X137877Y224929D01*
X137865Y224793D01*
X137861Y224641D01*
X137061D01*
X137057Y224793D01*
X137045Y224929D01*
X137025Y225049D01*
X136997Y225153D01*
X136961Y225241D01*
X136917Y225313D01*
X136865Y225369D01*
X136805Y225409D01*
X136737Y225433D01*
X136661Y225441D01*
X138261D01*
X138185Y225433D01*
D02*
G37*
G36*
X157486Y223100D02*
X157327Y223097D01*
X157176Y223086D01*
X157033Y223065D01*
X156897Y223036D01*
X156769Y222998D01*
X156648Y222951D01*
X156535Y222895D01*
X156429Y222830D01*
X156331Y222757D01*
X156240Y222674D01*
X155675Y223240D01*
X155757Y223331D01*
X155830Y223429D01*
X155895Y223534D01*
X155951Y223648D01*
X155998Y223768D01*
X156036Y223897D01*
X156065Y224033D01*
X156086Y224176D01*
X156097Y224327D01*
X156100Y224486D01*
X157486Y223100D01*
D02*
G37*
G36*
X260538Y227446D02*
X260299Y227229D01*
X260088Y227013D01*
X259906Y226796D01*
X259751Y226580D01*
X259625Y226363D01*
X259526Y226147D01*
X259456Y225931D01*
X259414Y225716D01*
X259400Y225500D01*
X258600D01*
X258586Y225716D01*
X258544Y225931D01*
X258473Y226147D01*
X258375Y226363D01*
X258249Y226580D01*
X258094Y226796D01*
X257911Y227013D01*
X257701Y227229D01*
X257462Y227446D01*
X257195Y227663D01*
X260805D01*
X260538Y227446D01*
D02*
G37*
G36*
X143106Y225433D02*
X143038Y225409D01*
X142978Y225369D01*
X142926Y225313D01*
X142882Y225241D01*
X142846Y225153D01*
X142818Y225049D01*
X142798Y224929D01*
X142786Y224793D01*
X142782Y224641D01*
X141982D01*
X141978Y224793D01*
X141966Y224929D01*
X141946Y225049D01*
X141918Y225153D01*
X141882Y225241D01*
X141838Y225313D01*
X141786Y225369D01*
X141726Y225409D01*
X141658Y225433D01*
X141582Y225441D01*
X143182D01*
X143106Y225433D01*
D02*
G37*
G36*
X226000Y208920D02*
X225886Y209030D01*
X225771Y209129D01*
X225655Y209216D01*
X225538Y209291D01*
X225420Y209355D01*
X225302Y209407D01*
X225182Y209448D01*
X225131Y209460D01*
X225040Y209436D01*
X224951Y209400D01*
X224878Y209356D01*
X224821Y209304D01*
X224780Y209244D01*
X224756Y209176D01*
X224748Y209100D01*
Y210700D01*
X224756Y210624D01*
X224780Y210556D01*
X224821Y210496D01*
X224878Y210444D01*
X224951Y210400D01*
X225040Y210364D01*
X225131Y210340D01*
X225182Y210352D01*
X225302Y210393D01*
X225420Y210445D01*
X225538Y210509D01*
X225655Y210584D01*
X225771Y210671D01*
X225886Y210770D01*
X226000Y210880D01*
Y208920D01*
D02*
G37*
G36*
X182000Y210520D02*
X181886Y210630D01*
X181771Y210729D01*
X181655Y210816D01*
X181538Y210891D01*
X181421Y210955D01*
X181302Y211007D01*
X181182Y211048D01*
X181062Y211077D01*
X180941Y211094D01*
X180818Y211100D01*
Y211900D01*
X180941Y211906D01*
X181062Y211923D01*
X181182Y211952D01*
X181302Y211993D01*
X181421Y212045D01*
X181538Y212109D01*
X181655Y212184D01*
X181771Y212271D01*
X181886Y212370D01*
X182000Y212480D01*
Y210520D01*
D02*
G37*
G36*
X245406Y212059D02*
X245423Y211938D01*
X245452Y211818D01*
X245493Y211698D01*
X245545Y211579D01*
X245609Y211462D01*
X245684Y211345D01*
X245771Y211229D01*
X245870Y211114D01*
X245980Y211000D01*
X244020D01*
X244130Y211114D01*
X244229Y211229D01*
X244316Y211345D01*
X244391Y211462D01*
X244455Y211579D01*
X244507Y211698D01*
X244548Y211818D01*
X244577Y211938D01*
X244594Y212059D01*
X244600Y212182D01*
X245400D01*
X245406Y212059D01*
D02*
G37*
G36*
X240406Y210559D02*
X240423Y210438D01*
X240452Y210318D01*
X240493Y210198D01*
X240545Y210080D01*
X240609Y209962D01*
X240684Y209845D01*
X240771Y209729D01*
X240870Y209614D01*
X240980Y209500D01*
X239020D01*
X239130Y209614D01*
X239229Y209729D01*
X239316Y209845D01*
X239391Y209962D01*
X239455Y210080D01*
X239507Y210198D01*
X239548Y210318D01*
X239577Y210438D01*
X239594Y210559D01*
X239600Y210682D01*
X240400D01*
X240406Y210559D01*
D02*
G37*
G36*
X192744Y208147D02*
X192761Y207994D01*
X192789Y207845D01*
X192829Y207702D01*
X192880Y207563D01*
X192942Y207429D01*
X193016Y207299D01*
X193101Y207174D01*
X193197Y207054D01*
X193304Y206939D01*
X192904Y206207D01*
X192791Y206309D01*
X192678Y206388D01*
X192565Y206445D01*
X192452Y206479D01*
X192339Y206490D01*
X192226Y206479D01*
X192112Y206445D01*
X191999Y206388D01*
X191886Y206309D01*
X191773Y206207D01*
X191373Y206939D01*
X191480Y207054D01*
X191577Y207174D01*
X191661Y207299D01*
X191735Y207429D01*
X191797Y207563D01*
X191848Y207702D01*
X191888Y207845D01*
X191916Y207994D01*
X191933Y208147D01*
X191939Y208304D01*
X192739D01*
X192744Y208147D01*
D02*
G37*
G36*
X174870Y207886D02*
X174771Y207771D01*
X174684Y207655D01*
X174609Y207538D01*
X174545Y207420D01*
X174493Y207302D01*
X174452Y207182D01*
X174423Y207062D01*
X174406Y206941D01*
X174400Y206818D01*
X173600D01*
X173594Y206941D01*
X173577Y207062D01*
X173548Y207182D01*
X173507Y207302D01*
X173455Y207420D01*
X173391Y207538D01*
X173316Y207655D01*
X173229Y207771D01*
X173130Y207886D01*
X173020Y208000D01*
X174980D01*
X174870Y207886D01*
D02*
G37*
G36*
X256691Y208160D02*
X256449Y208450D01*
X255975Y208938D01*
X255743Y209136D01*
X255514Y209304D01*
X255288Y209442D01*
X255065Y209548D01*
X254845Y209625D01*
X254628Y209670D01*
X254414Y209686D01*
Y210486D01*
X254628Y210501D01*
X254847Y210545D01*
X255072Y210619D01*
X255303Y210723D01*
X255539Y210857D01*
X255780Y211021D01*
X256027Y211214D01*
X256280Y211437D01*
X256802Y211971D01*
X256691Y208160D01*
D02*
G37*
G36*
X237406Y212559D02*
X237423Y212438D01*
X237452Y212318D01*
X237493Y212198D01*
X237545Y212080D01*
X237609Y211962D01*
X237684Y211845D01*
X237771Y211729D01*
X237870Y211614D01*
X237980Y211500D01*
X236020D01*
X236130Y211614D01*
X236229Y211729D01*
X236316Y211845D01*
X236391Y211962D01*
X236455Y212080D01*
X236507Y212198D01*
X236548Y212318D01*
X236577Y212438D01*
X236594Y212559D01*
X236600Y212682D01*
X237400D01*
X237406Y212559D01*
D02*
G37*
G36*
X130481Y213282D02*
X130507Y212922D01*
X130523Y212834D01*
X130543Y212762D01*
X130566Y212706D01*
X130593Y212666D01*
X130623Y212642D01*
X130657Y212634D01*
X129500D01*
X129534Y212642D01*
X129564Y212666D01*
X129591Y212706D01*
X129614Y212762D01*
X129634Y212834D01*
X129650Y212922D01*
X129663Y213026D01*
X129677Y213282D01*
X129679Y213434D01*
X130479D01*
X130481Y213282D01*
D02*
G37*
G36*
X132449D02*
X132476Y212922D01*
X132492Y212834D01*
X132511Y212762D01*
X132535Y212706D01*
X132562Y212666D01*
X132592Y212642D01*
X132626Y212634D01*
X131469D01*
X131503Y212642D01*
X131533Y212666D01*
X131560Y212706D01*
X131583Y212762D01*
X131603Y212834D01*
X131619Y212922D01*
X131631Y213026D01*
X131646Y213282D01*
X131647Y213434D01*
X132447D01*
X132449Y213282D01*
D02*
G37*
G36*
X184983Y211917D02*
X184903Y211834D01*
X184747Y211652D01*
X184597Y211452D01*
X184452Y211231D01*
X184314Y210991D01*
X184247Y210863D01*
X183719Y212701D01*
X183833Y212641D01*
X183945Y212597D01*
X184055Y212570D01*
X184163Y212559D01*
X184270Y212565D01*
X184375Y212587D01*
X184478Y212626D01*
X184580Y212682D01*
X184679Y212754D01*
X184777Y212843D01*
X184983Y211917D01*
D02*
G37*
G36*
X210051Y214063D02*
X210075Y213995D01*
X210115Y213935D01*
X210171Y213883D01*
X210243Y213839D01*
X210331Y213803D01*
X210435Y213775D01*
X210555Y213755D01*
X210691Y213743D01*
X210843Y213739D01*
Y212939D01*
X210043Y212957D01*
Y214139D01*
X210051Y214063D01*
D02*
G37*
G36*
X138355Y213282D02*
X138381Y212922D01*
X138397Y212834D01*
X138417Y212762D01*
X138440Y212706D01*
X138467Y212666D01*
X138497Y212642D01*
X138531Y212634D01*
X137374D01*
X137408Y212642D01*
X137438Y212666D01*
X137465Y212706D01*
X137488Y212762D01*
X137508Y212834D01*
X137524Y212922D01*
X137537Y213026D01*
X137551Y213282D01*
X137553Y213434D01*
X138353D01*
X138355Y213282D01*
D02*
G37*
%LPC*%
G36*
X138500Y175264D02*
X138110Y175186D01*
X137779Y174965D01*
X137558Y174634D01*
X137480Y174244D01*
X137558Y173854D01*
X137779Y173523D01*
X138110Y173302D01*
X138500Y173224D01*
X138890Y173302D01*
X139221Y173523D01*
X139442Y173854D01*
X139520Y174244D01*
X139442Y174634D01*
X139221Y174965D01*
X138890Y175186D01*
X138500Y175264D01*
D02*
G37*
G36*
X231419Y255372D02*
X227069D01*
Y250628D01*
X228185D01*
X228191Y250558D01*
X228195Y250424D01*
X228224Y250357D01*
Y248756D01*
X228302Y248366D01*
X228523Y248035D01*
X229779Y246779D01*
X230110Y246558D01*
X230500Y246480D01*
X232578D01*
X233225Y245834D01*
X233033Y245372D01*
X232581D01*
Y240628D01*
X236931D01*
Y245372D01*
X235815D01*
X235809Y245442D01*
X235805Y245577D01*
X235775Y245643D01*
Y245744D01*
X235698Y246134D01*
X235477Y246465D01*
X233721Y248221D01*
X233390Y248442D01*
X233000Y248520D01*
X230922D01*
X230264Y249178D01*
Y250357D01*
X230293Y250424D01*
X230297Y250558D01*
X230303Y250628D01*
X231419D01*
Y255372D01*
D02*
G37*
G36*
X220419D02*
X216069D01*
Y250628D01*
X217185D01*
X217191Y250558D01*
X217195Y250424D01*
X217225Y250357D01*
Y249756D01*
X217302Y249366D01*
X217523Y249035D01*
X219279Y247279D01*
X219610Y247058D01*
X220000Y246980D01*
X221578D01*
X222686Y245872D01*
X222616Y245372D01*
X221581D01*
Y240628D01*
X225931D01*
Y245372D01*
X224815D01*
X224809Y245442D01*
X224805Y245577D01*
X224776Y245643D01*
Y246244D01*
X224698Y246634D01*
X224477Y246965D01*
X222721Y248721D01*
X222390Y248942D01*
X222000Y249020D01*
X220422D01*
X219314Y250128D01*
X219384Y250628D01*
X220419D01*
Y255372D01*
D02*
G37*
%LPD*%
G36*
X235160Y245405D02*
X235172Y245267D01*
X235192Y245146D01*
X235220Y245040D01*
X235256Y244951D01*
X235300Y244878D01*
X235352Y244821D01*
X235412Y244780D01*
X235480Y244756D01*
X235556Y244748D01*
X233956D01*
X234032Y244756D01*
X234100Y244780D01*
X234160Y244821D01*
X234212Y244878D01*
X234256Y244951D01*
X234292Y245040D01*
X234320Y245146D01*
X234340Y245267D01*
X234352Y245405D01*
X234356Y245560D01*
X235156D01*
X235160Y245405D01*
D02*
G37*
G36*
X229968Y251244D02*
X229900Y251220D01*
X229840Y251179D01*
X229788Y251122D01*
X229744Y251049D01*
X229708Y250960D01*
X229680Y250854D01*
X229660Y250733D01*
X229648Y250595D01*
X229644Y250440D01*
X228844D01*
X228840Y250595D01*
X228828Y250733D01*
X228808Y250854D01*
X228780Y250960D01*
X228744Y251049D01*
X228700Y251122D01*
X228648Y251179D01*
X228588Y251220D01*
X228520Y251244D01*
X228444Y251252D01*
X230044D01*
X229968Y251244D01*
D02*
G37*
G36*
X224160Y245405D02*
X224172Y245267D01*
X224192Y245146D01*
X224220Y245040D01*
X224256Y244951D01*
X224300Y244878D01*
X224352Y244821D01*
X224412Y244780D01*
X224480Y244756D01*
X224556Y244748D01*
X222956D01*
X223032Y244756D01*
X223100Y244780D01*
X223160Y244821D01*
X223212Y244878D01*
X223256Y244951D01*
X223292Y245040D01*
X223320Y245146D01*
X223340Y245267D01*
X223352Y245405D01*
X223356Y245560D01*
X224156D01*
X224160Y245405D01*
D02*
G37*
G36*
X218968Y251244D02*
X218900Y251220D01*
X218840Y251179D01*
X218788Y251122D01*
X218744Y251049D01*
X218708Y250960D01*
X218680Y250854D01*
X218660Y250733D01*
X218648Y250595D01*
X218644Y250440D01*
X217844D01*
X217840Y250595D01*
X217828Y250733D01*
X217808Y250854D01*
X217780Y250960D01*
X217744Y251049D01*
X217700Y251122D01*
X217648Y251179D01*
X217588Y251220D01*
X217520Y251244D01*
X217444Y251252D01*
X219044D01*
X218968Y251244D01*
D02*
G37*
%LPC*%
G36*
X134320Y232328D02*
X130758D01*
Y224829D01*
X134320D01*
Y232328D01*
D02*
G37*
%LPD*%
D10*
X132047Y166496D02*
D03*
X134016D02*
D03*
X135984D02*
D03*
X137953D02*
D03*
Y153504D02*
D03*
X135984D02*
D03*
X134016D02*
D03*
X132047D02*
D03*
D11*
X141496Y162953D02*
D03*
Y160984D02*
D03*
Y159016D02*
D03*
Y157047D02*
D03*
X128504D02*
D03*
Y159016D02*
D03*
Y160984D02*
D03*
Y162953D02*
D03*
D12*
X117244Y110000D02*
D03*
X122756D02*
D03*
X93244Y115000D02*
D03*
X98756D02*
D03*
X276756Y255000D02*
D03*
X271244D02*
D03*
X98756D02*
D03*
X93244D02*
D03*
X276756Y115000D02*
D03*
X271244D02*
D03*
X139744Y251000D02*
D03*
X145256D02*
D03*
X150256Y183500D02*
D03*
X144744D02*
D03*
X150256Y174500D02*
D03*
X144744D02*
D03*
X143256Y217000D02*
D03*
X137744D02*
D03*
X147744Y153000D02*
D03*
X153256D02*
D03*
X234756Y243000D02*
D03*
X229244D02*
D03*
X223756D02*
D03*
X218244D02*
D03*
X234756Y253000D02*
D03*
X229244D02*
D03*
X223756D02*
D03*
X218244D02*
D03*
X212756D02*
D03*
X207244D02*
D03*
X212756Y243000D02*
D03*
X207244D02*
D03*
X186244Y262000D02*
D03*
X191756D02*
D03*
X188744Y199500D02*
D03*
X194256D02*
D03*
X171244Y228000D02*
D03*
X176756D02*
D03*
X212756Y262000D02*
D03*
X207244D02*
D03*
X137756Y143000D02*
D03*
X132244D02*
D03*
X117244Y131000D02*
D03*
X122756D02*
D03*
X117244Y122000D02*
D03*
X122756D02*
D03*
X117244Y116000D02*
D03*
X122756D02*
D03*
X117244Y100000D02*
D03*
X122756D02*
D03*
X160244Y108500D02*
D03*
X165756D02*
D03*
X246244Y100000D02*
D03*
X251756D02*
D03*
D13*
X171909Y93480D02*
D03*
X188091Y93480D02*
D03*
D14*
X222476Y169158D02*
D03*
Y179000D02*
D03*
Y188842D02*
D03*
X244524Y169158D02*
D03*
Y179000D02*
D03*
Y188842D02*
D03*
D15*
X291121Y75121D02*
D03*
X294879Y78879D02*
D03*
X75121Y291121D02*
D03*
X78879Y294879D02*
D03*
D16*
X291121D02*
D03*
X294879Y291121D02*
D03*
X75121Y78879D02*
D03*
X78879Y75121D02*
D03*
D17*
X100916Y95626D02*
D03*
X95626Y100916D02*
D03*
X91729Y91729D02*
D03*
X269084Y274374D02*
D03*
X274374Y269084D02*
D03*
X278271Y278271D02*
D03*
D18*
X95626Y269084D02*
D03*
X100916Y274374D02*
D03*
X91729Y278271D02*
D03*
X274374Y100916D02*
D03*
X269084Y95626D02*
D03*
X278271Y91729D02*
D03*
D19*
X301051Y304949D02*
D03*
X304949Y301051D02*
D03*
X90949Y292551D02*
D03*
X87051Y296449D02*
D03*
X68949Y65051D02*
D03*
X65051Y68949D02*
D03*
X279051Y76949D02*
D03*
X282949Y73051D02*
D03*
D20*
X279051Y293051D02*
D03*
X282949Y296949D02*
D03*
X68366Y305196D02*
D03*
X64468Y301299D02*
D03*
X90949Y76949D02*
D03*
X87051Y73051D02*
D03*
X301051Y65051D02*
D03*
X304949Y68949D02*
D03*
D21*
X150000Y164256D02*
D03*
Y158744D02*
D03*
Y203756D02*
D03*
Y198244D02*
D03*
X138500Y174244D02*
D03*
Y179756D02*
D03*
X223000Y215256D02*
D03*
Y209744D02*
D03*
X161000Y251744D02*
D03*
Y257256D02*
D03*
Y234744D02*
D03*
Y240256D02*
D03*
X192000Y248756D02*
D03*
Y243244D02*
D03*
X186000Y248756D02*
D03*
Y243244D02*
D03*
X252000Y110244D02*
D03*
Y115756D02*
D03*
X145500Y136756D02*
D03*
Y131244D02*
D03*
X132500Y136756D02*
D03*
Y131244D02*
D03*
X218000Y94244D02*
D03*
Y99756D02*
D03*
X129000Y99744D02*
D03*
Y105256D02*
D03*
X180000Y108244D02*
D03*
Y113756D02*
D03*
D22*
X166199Y274000D02*
D03*
X203601D02*
D03*
D23*
X201969Y253000D02*
D03*
X198031D02*
D03*
X198031Y242500D02*
D03*
X201969D02*
D03*
X198031Y262000D02*
D03*
X201969D02*
D03*
D24*
X174000Y238126D02*
D03*
Y253874D02*
D03*
D25*
X201260Y92276D02*
D03*
X205000D02*
D03*
X208740D02*
D03*
Y101724D02*
D03*
X205000D02*
D03*
X201260D02*
D03*
D26*
X142382Y239421D02*
D03*
X137461D02*
D03*
X132539D02*
D03*
X127618D02*
D03*
Y228579D02*
D03*
X132539D02*
D03*
X137461D02*
D03*
X142382D02*
D03*
D27*
X139000Y119000D02*
D03*
D28*
X133488Y116047D02*
D03*
Y118016D02*
D03*
Y119984D02*
D03*
Y121953D02*
D03*
X144512D02*
D03*
Y119984D02*
D03*
Y118016D02*
D03*
Y116047D02*
D03*
D29*
X136047Y124512D02*
D03*
X138016D02*
D03*
X139984D02*
D03*
X141953D02*
D03*
Y113488D02*
D03*
X139984D02*
D03*
X138016D02*
D03*
X136047D02*
D03*
D30*
X201000Y222000D02*
D03*
D31*
X189583Y213339D02*
D03*
Y214913D02*
D03*
Y216488D02*
D03*
Y218063D02*
D03*
Y219638D02*
D03*
Y221213D02*
D03*
Y222787D02*
D03*
Y224362D02*
D03*
Y225937D02*
D03*
Y227512D02*
D03*
Y229087D02*
D03*
Y230661D02*
D03*
X212417D02*
D03*
Y229087D02*
D03*
Y227512D02*
D03*
Y225937D02*
D03*
Y224362D02*
D03*
Y222787D02*
D03*
Y221213D02*
D03*
Y219638D02*
D03*
Y218063D02*
D03*
Y216488D02*
D03*
Y214913D02*
D03*
Y213339D02*
D03*
D32*
X192339Y233417D02*
D03*
X193913D02*
D03*
X195488D02*
D03*
X197063D02*
D03*
X198638D02*
D03*
X200213D02*
D03*
X201787D02*
D03*
X203362D02*
D03*
X204937D02*
D03*
X206512D02*
D03*
X208087D02*
D03*
X209661D02*
D03*
Y210583D02*
D03*
X208087D02*
D03*
X206512D02*
D03*
X204937D02*
D03*
X203362D02*
D03*
X201787D02*
D03*
X200213D02*
D03*
X198638D02*
D03*
X197063D02*
D03*
X195488D02*
D03*
X193913D02*
D03*
X192339D02*
D03*
D33*
X127028Y207921D02*
D03*
Y205953D02*
D03*
Y203984D02*
D03*
Y202016D02*
D03*
Y200047D02*
D03*
Y198079D02*
D03*
X142972D02*
D03*
Y200047D02*
D03*
Y202016D02*
D03*
Y203984D02*
D03*
Y205953D02*
D03*
Y207921D02*
D03*
D34*
X130079Y195028D02*
D03*
X132047D02*
D03*
X134016D02*
D03*
X135984D02*
D03*
X137953D02*
D03*
X139921D02*
D03*
Y210972D02*
D03*
X137953D02*
D03*
X135984D02*
D03*
X134016D02*
D03*
X132047D02*
D03*
X130079D02*
D03*
D35*
X135000Y203000D02*
D03*
D36*
X112000Y239500D02*
Y239657D01*
X110000Y241657D02*
X112000Y239657D01*
X110000Y241657D02*
Y275000D01*
X215500Y155000D02*
X220000D01*
X212500Y152000D02*
X215500Y155000D01*
X212500Y111000D02*
Y152000D01*
X209500Y108000D02*
X212500Y111000D01*
X153000Y93000D02*
X162500Y102500D01*
X201022D01*
X203662Y108000D02*
X209500D01*
X201022Y105360D02*
X203662Y108000D01*
X201022Y102500D02*
Y105360D01*
X117500Y152500D02*
Y234000D01*
X112000Y239500D02*
X117500Y234000D01*
X283500Y86500D02*
X287035D01*
X289768Y83768D01*
X278271Y91729D02*
X283500Y86500D01*
X146500Y99500D02*
X153000Y93000D01*
X134500Y99500D02*
X146500D01*
X97500Y287500D02*
X110000Y275000D01*
X86036Y287500D02*
X97500D01*
X83768Y289768D02*
X86036Y287500D01*
X80010Y286232D02*
X83342Y282900D01*
X87100D01*
X91729Y278271D01*
X80010Y83768D02*
X82742Y86500D01*
X86500D02*
X91729Y91729D01*
X82742Y86500D02*
X86500D01*
X278271Y278271D02*
X283500Y283500D01*
X287035D01*
X289768Y286232D01*
D37*
X138500Y174244D02*
X138500Y174244D01*
X152000Y171000D02*
X153256Y169744D01*
X146000Y171000D02*
X152000D01*
X145000Y170000D02*
X146000Y171000D01*
X144744Y178256D02*
X147681Y181193D01*
Y185686D01*
X149835Y187839D01*
Y198079D01*
X142972D02*
X149835D01*
X154000Y190500D02*
Y221000D01*
X144744Y175000D02*
Y178256D01*
X142744Y180256D02*
X144744Y178256D01*
X138500Y180256D02*
X142744D01*
X144744Y183500D02*
Y186256D01*
X143500Y187500D02*
X144744Y186256D01*
X138500Y187500D02*
X143500D01*
X135984Y190016D02*
X138500Y187500D01*
X135984Y190016D02*
Y195028D01*
X138500Y180256D02*
Y184500D01*
X134016Y188984D02*
X138500Y184500D01*
X134016Y188984D02*
Y195028D01*
X207500Y143500D02*
Y152500D01*
X204000Y140000D02*
X207500Y143500D01*
X200500Y140000D02*
X204000D01*
X171000Y143500D02*
X197000D01*
X200500Y140000D01*
X228000Y144256D02*
Y152950D01*
X213500Y158500D02*
X222450D01*
X228000Y152950D01*
X207500Y152500D02*
X213500Y158500D01*
X202500Y145000D02*
Y153500D01*
X169000Y123500D02*
X203000D01*
X166500Y126000D02*
X169000Y123500D01*
X203000D02*
X204500Y125000D01*
X168172Y121500D02*
X207000D01*
X172400Y119900D02*
X196600D01*
X164500Y125172D02*
X168172Y121500D01*
X169500Y117000D02*
X172400Y119900D01*
X166500Y126000D02*
Y208000D01*
X164500Y125172D02*
Y209000D01*
X162500Y125015D02*
Y210000D01*
X160500Y125843D02*
Y210828D01*
X164500Y209000D02*
X170500Y215000D01*
X166500Y208000D02*
X170000Y211500D01*
X162500Y210000D02*
X172138Y219638D01*
X160500Y210828D02*
X170884Y221213D01*
X156500Y127500D02*
Y212485D01*
X153256Y153000D02*
Y169744D01*
X158500Y139000D02*
Y211657D01*
Y126672D02*
Y139000D01*
X152673Y118016D02*
X160500Y125843D01*
X153533Y116047D02*
X162500Y125015D01*
X67500Y289000D02*
X90000Y266500D01*
Y263000D02*
Y266500D01*
X130138Y147500D02*
X135500D01*
X128000Y145362D02*
X130138Y147500D01*
X128000Y143244D02*
Y145362D01*
X170500Y215000D02*
X179000D01*
X189496D01*
X189583Y214913D01*
X171000Y99500D02*
X192500D01*
X168000Y96500D02*
X171000Y99500D01*
X168000Y90000D02*
Y96500D01*
X192500Y99500D02*
X196000Y96000D01*
X132244Y140744D02*
Y143000D01*
X131500Y140000D02*
X132244Y140744D01*
X129500Y140000D02*
X131500D01*
X128000Y138500D02*
X129500Y140000D01*
X212500Y190000D02*
Y192000D01*
X209500Y195000D02*
X212500Y192000D01*
X169500Y195000D02*
X209500D01*
X255500Y214000D02*
X257500D01*
X247600Y206100D02*
X255500Y214000D01*
X257500D02*
X259000Y215500D01*
X254086Y199914D02*
X258914D01*
X251000Y203000D02*
X254086Y199914D01*
X206487Y203000D02*
X251000D01*
X206767Y204700D02*
X249028D01*
X203362Y208104D02*
X206767Y204700D01*
X249028D02*
X254414Y210086D01*
X247500Y199000D02*
X254000Y192500D01*
X206500Y199000D02*
X247500D01*
X198638Y206862D02*
X206500Y199000D01*
X207347Y206100D02*
X247600D01*
X204937Y208509D02*
X207347Y206100D01*
X209661Y208339D02*
X210500Y207500D01*
X222500D01*
X223000Y208000D01*
X201787Y207699D02*
X206487Y203000D01*
X206507Y201000D02*
X248500D01*
X254500Y195000D01*
X200213Y207294D02*
X206507Y201000D01*
X248594Y217500D02*
X255047Y223953D01*
X257453D01*
Y143953D02*
X259000Y145500D01*
X255633Y143953D02*
X257453D01*
X259000Y145500D02*
Y150000D01*
X254400Y142720D02*
X255633Y143953D01*
X254400Y135400D02*
Y142720D01*
X195488Y208012D02*
Y210583D01*
Y208012D02*
X206500Y197000D01*
X198638Y206862D02*
Y210583D01*
X200213Y207294D02*
Y210583D01*
X201787Y207699D02*
Y210583D01*
X204937Y208509D02*
Y210583D01*
X242500Y150500D02*
X243500D01*
X245000Y149000D01*
X145256Y251000D02*
X149500D01*
X263000Y131500D02*
Y182500D01*
X260500Y185000D02*
X263000Y182500D01*
X256500Y185000D02*
X260500D01*
X122500Y156095D02*
X123453Y157047D01*
X122500Y150000D02*
Y156095D01*
Y160000D02*
X123484Y160984D01*
X122500Y158000D02*
Y160000D01*
Y158000D02*
X123453Y157047D01*
X121000Y148500D02*
X122500Y150000D01*
X255000Y154000D02*
X258000D01*
X253000Y152000D02*
X255000Y154000D01*
X253000Y137756D02*
Y152000D01*
X259000Y155000D02*
Y160000D01*
X258000Y154000D02*
X259000Y155000D01*
X251000Y135756D02*
X253000Y137756D01*
X252000Y133000D02*
X254400Y135400D01*
X174000Y203000D02*
Y209000D01*
Y203000D02*
X177500Y199500D01*
X188744D01*
X137756Y143000D02*
Y145244D01*
X135500Y147500D02*
X137756Y145244D01*
X116550Y148500D02*
X121000D01*
X115050Y150000D02*
X116550Y148500D01*
X245000Y210000D02*
Y222500D01*
X259000Y131500D02*
X261400Y129100D01*
X252000Y115756D02*
Y133000D01*
X261400Y129100D02*
X265900D01*
X245000Y135000D02*
Y149000D01*
X248756Y135756D02*
X251000D01*
X144000Y108500D02*
X148500D01*
X141953Y110547D02*
X144000Y108500D01*
X141953Y110547D02*
Y113488D01*
X115000Y105000D02*
X117244Y107244D01*
Y110000D01*
X110000Y100000D02*
X117244D01*
X107500Y102500D02*
X110000Y100000D01*
X112005Y90000D02*
X119819Y97814D01*
Y103319D01*
X223256Y210000D02*
X223356Y209900D01*
X223000Y208000D02*
Y209744D01*
X209661Y208339D02*
Y210583D01*
X106000Y236000D02*
X108000Y238000D01*
X106000Y145000D02*
Y236000D01*
X103000Y142000D02*
X106000Y145000D01*
X103000Y122500D02*
Y142000D01*
X99000Y121000D02*
X107500Y112500D01*
X99000Y121000D02*
Y122500D01*
X170000Y211500D02*
X183000D01*
X176900Y205000D02*
X190000D01*
X183000Y211500D02*
X184000D01*
X185839Y213339D01*
X67500Y289000D02*
Y298267D01*
X64468Y301299D02*
X67500Y298267D01*
X137461Y228579D02*
Y232461D01*
X139000Y234000D01*
X150000D01*
X128500Y220500D02*
X130500Y222500D01*
X128500Y217000D02*
Y220500D01*
Y217000D02*
X130079Y215421D01*
X137461Y223961D02*
Y228579D01*
X136000Y222500D02*
X137461Y223961D01*
X130500Y222500D02*
X136000D01*
X133500Y221000D02*
X141000D01*
X132000Y219500D02*
X133500Y221000D01*
X141000D02*
X142382Y222382D01*
X130079Y210972D02*
Y215421D01*
X142382Y222382D02*
Y228579D01*
X132000Y217500D02*
Y219500D01*
X132047Y210972D02*
Y217453D01*
X132000Y217500D02*
X132047Y217453D01*
X226500Y223000D02*
X235500D01*
X225000Y226500D02*
X235000D01*
X212417Y229087D02*
X235413D01*
X212417Y230661D02*
X236839D01*
X245000Y222500D01*
X242500Y215000D02*
Y222000D01*
X235413Y229087D02*
X242500Y222000D01*
X240000Y208500D02*
Y221500D01*
X235000Y226500D02*
X240000Y221500D01*
X237000Y210500D02*
Y221500D01*
X235500Y223000D02*
X237000Y221500D01*
X223356Y209900D02*
X227000D01*
X223000Y209744D02*
X223256Y210000D01*
X247500Y217500D02*
X248594D01*
X271000Y285000D02*
X279051Y293051D01*
X265000Y285000D02*
X271000D01*
X245000Y236500D02*
X247500Y239000D01*
Y232500D02*
X250000Y235000D01*
X262500D01*
X242500Y240000D02*
X246000Y243500D01*
X254500D02*
X256500Y241500D01*
X247500Y239000D02*
X259000D01*
X242500Y267500D02*
X257500D01*
X260100Y270100D01*
X264811D01*
X265000Y270289D01*
X260000Y272500D02*
X270000Y282500D01*
X274766D01*
X265000Y270289D02*
X269084Y274374D01*
X265000Y257500D02*
Y270289D01*
X274766Y282500D02*
X289766Y297500D01*
X301397D01*
X304949Y301051D01*
X222476Y169158D02*
X231343D01*
X226000Y172500D02*
X235000D01*
X243000Y162500D02*
X250500Y155000D01*
X252500D01*
X246000Y243500D02*
X254500D01*
X244524Y166976D02*
Y169158D01*
Y166976D02*
X246500Y165000D01*
X259000D01*
X264500Y147500D02*
X267500Y144500D01*
X264500Y147500D02*
Y233000D01*
X262500Y235000D02*
X264500Y233000D01*
X259000Y225500D02*
Y230000D01*
X257453Y223953D02*
X259000Y225500D01*
X208087Y237087D02*
X210900Y239900D01*
X208087Y233417D02*
Y237087D01*
X193500Y238000D02*
X198638D01*
X192000Y239500D02*
X193500Y238000D01*
X198638D02*
Y241894D01*
X254000Y180000D02*
X259000D01*
X250000Y184000D02*
X254000Y180000D01*
X244924Y178600D02*
X254400D01*
X244524Y179000D02*
X244924Y178600D01*
X254400D02*
X259000Y174000D01*
X245000Y184000D02*
X250000D01*
X254000Y187500D02*
X256500Y185000D01*
X222476Y176024D02*
X226000Y172500D01*
X222476Y176024D02*
Y179000D01*
X239000Y125000D02*
Y194000D01*
X236000Y197000D02*
X239000Y194000D01*
X234000Y120000D02*
X239000Y125000D01*
X259000Y170000D02*
Y174000D01*
X222476Y188842D02*
X232842D01*
X232500Y188500D02*
X232842Y188842D01*
X235000Y187500D02*
Y191500D01*
X232500Y185000D02*
X235000Y187500D01*
X214000Y185000D02*
X232500D01*
X232500Y194000D02*
X235000Y191500D01*
X140500D02*
X146500D01*
X139921Y192079D02*
X140500Y191500D01*
X139921Y192079D02*
Y195028D01*
X158500Y211657D02*
X169631Y222787D01*
X156500Y212485D02*
X168377Y224362D01*
X206500Y197000D02*
X236000D01*
X209000Y190000D02*
X214000Y185000D01*
X205000Y190000D02*
X209000D01*
X201500Y186500D02*
X205000Y190000D01*
X201500Y167500D02*
Y186500D01*
X197000Y163000D02*
X201500Y167500D01*
X185000Y163000D02*
X197000D01*
X180500Y158500D02*
X185000Y163000D01*
X176756Y158500D02*
X180500D01*
X205000Y153000D02*
Y155000D01*
X201100Y158900D02*
X205000Y155000D01*
X186156Y158900D02*
X201100D01*
X186000Y158744D02*
X186156Y158900D01*
X134016Y162016D02*
Y166496D01*
X138000Y159000D02*
Y166449D01*
X136047Y157047D02*
X138000Y159000D01*
X128504Y157047D02*
X136047D01*
X207500Y157500D02*
Y184000D01*
X199500Y156500D02*
X202500Y153500D01*
X195500Y156500D02*
X199500D01*
X205000Y186500D02*
X207500Y184000D01*
X243000Y133000D02*
X245000Y135000D01*
X246244Y133244D02*
X248756Y135756D01*
X246244Y100000D02*
Y133244D01*
X265900Y129100D02*
X276756Y118244D01*
Y115000D02*
Y118244D01*
X257500Y99648D02*
Y114000D01*
Y99648D02*
X269648Y87500D01*
X270000D01*
X267500Y130000D02*
Y144500D01*
Y130000D02*
X280000Y117500D01*
Y100000D02*
Y117500D01*
X274418Y94418D02*
X280000Y100000D01*
X276756Y103298D02*
Y115000D01*
X274374Y100916D02*
X276756Y103298D01*
X301397Y72500D02*
X304949Y68949D01*
X287500Y72500D02*
X301397D01*
X282448Y77552D02*
X287500Y72500D01*
X282448Y77552D02*
Y81052D01*
X278500Y85000D02*
X282448Y81052D01*
X274418Y81582D02*
Y94418D01*
Y81582D02*
X279051Y76949D01*
X255744Y115756D02*
X257500Y114000D01*
X252000Y115756D02*
X255744D01*
X128000Y132500D02*
Y138500D01*
X117244Y110000D02*
Y116000D01*
X141953Y124512D02*
X144012D01*
X145500Y126000D01*
X155000D01*
X148953Y121953D02*
X150500Y123500D01*
X144512Y119984D02*
X151813D01*
X144512Y121953D02*
X148953D01*
X122756Y116000D02*
X133441D01*
X122756Y131000D02*
X127000D01*
X130000Y128000D01*
X134500D01*
X117500Y126500D02*
X125500D01*
X130047Y121953D02*
X133488D01*
X125500Y126500D02*
X130047Y121953D01*
X113000Y123500D02*
Y129500D01*
Y123500D02*
X114500Y122000D01*
X113000Y129500D02*
X114500Y131000D01*
X117244D01*
X114500Y122000D02*
X117244D01*
X127484Y118016D02*
X133488D01*
X126500Y119000D02*
X127484Y118016D01*
X115483Y119000D02*
X126500D01*
X112626Y116143D02*
X115483Y119000D01*
X129016Y119984D02*
X133488D01*
X127000Y122000D02*
X129016Y119984D01*
X122756Y122000D02*
X127000D01*
X112626Y112374D02*
Y116143D01*
X132244Y108500D02*
X133000D01*
X129000Y105256D02*
X132244Y108500D01*
X128006Y111400D02*
X135400D01*
X126606Y110000D02*
X128006Y111400D01*
X144512Y118016D02*
X152673D01*
X144512Y116047D02*
X153533D01*
X180000Y113756D02*
Y117500D01*
X196600Y119900D02*
X200500Y116000D01*
X148500Y108500D02*
X160244D01*
X171980Y93480D02*
X176020D01*
X208740Y97240D02*
Y101724D01*
X207500Y96000D02*
X208740Y97240D01*
X196000Y96000D02*
X207500D01*
X184500Y108000D02*
X187000Y110500D01*
X180000Y108244D02*
X184256D01*
X187000Y110500D02*
Y116000D01*
X165756Y108500D02*
X170000D01*
X170000Y108500D01*
X122756Y110000D02*
X126606D01*
X135400Y111400D02*
X136047Y112047D01*
Y113488D01*
X98909Y90000D02*
X112005D01*
X70000Y82500D02*
X83082Y95582D01*
X70000Y73897D02*
Y82500D01*
X65051Y68949D02*
X70000Y73897D01*
X83082Y95582D02*
X93326D01*
X98909Y90000D01*
X95000Y120500D02*
Y122500D01*
Y120500D02*
X98756Y116744D01*
Y115000D02*
Y116744D01*
X95000Y81000D02*
Y87500D01*
X90949Y76949D02*
X95000Y81000D01*
X107500Y102500D02*
Y112500D01*
X98756Y115000D02*
X102500D01*
X105000Y112500D01*
Y99711D02*
Y112500D01*
X111000Y150000D02*
X115000D01*
X119819Y103319D02*
X121756Y105256D01*
X129000D01*
X122756Y100000D02*
X128744D01*
X76000Y307500D02*
X87051Y296449D01*
X70669Y307500D02*
X76000D01*
X93244Y249256D02*
Y255000D01*
Y249256D02*
X102500Y240000D01*
Y230000D02*
Y240000D01*
X132047Y166496D02*
Y173453D01*
X132000Y173500D02*
X132047Y173453D01*
X122500Y175000D02*
X124000Y173500D01*
X122500Y175000D02*
Y196500D01*
X124079Y198079D01*
X127028D01*
X128504Y162953D02*
Y188504D01*
X130079Y190079D01*
X123484Y160984D02*
X128504D01*
X130079Y190079D02*
Y195028D01*
X197500Y199500D02*
X199000Y198000D01*
X194256Y199500D02*
X197500D01*
X218000Y99756D02*
Y114500D01*
X223500Y120000D01*
X234000D01*
X192339Y207339D02*
X194256Y205421D01*
Y199500D02*
Y205421D01*
X254000Y187500D02*
Y192500D01*
X203362Y208104D02*
Y210583D01*
X259000Y190000D02*
Y193500D01*
X257500Y195000D02*
X259000Y193500D01*
X254500Y195000D02*
X257500D01*
X215256Y99756D02*
X218000D01*
X213500Y98000D02*
X215256Y99756D01*
X211776Y92276D02*
X213500Y94000D01*
Y98000D01*
X208740Y92276D02*
X211776D01*
X139984Y99516D02*
Y113488D01*
X138016Y99516D02*
Y113488D01*
X100916Y95626D02*
X105000Y99711D01*
X68949Y65051D02*
X72000Y62000D01*
X76000D01*
X87051Y73051D01*
X298500Y62500D02*
X301051Y65051D01*
X293500Y62500D02*
X298500D01*
X282949Y73051D02*
X293500Y62500D01*
X267500Y255000D02*
X271244D01*
X265000Y257500D02*
X267500Y255000D01*
X298000Y308000D02*
X301051Y304949D01*
X294000Y308000D02*
X298000D01*
X282949Y296949D02*
X294000Y308000D01*
X93244Y266702D02*
X95626Y269084D01*
X93244Y255000D02*
Y266702D01*
X68366Y305196D02*
X70669Y307500D01*
X251756Y100000D02*
Y110000D01*
X176020Y93480D02*
X177602Y91898D01*
Y89149D02*
Y91898D01*
Y89149D02*
X178995Y87756D01*
X204256D01*
X205000Y88500D01*
X218000Y88500D02*
Y94244D01*
X216500Y87000D02*
X218000Y88500D01*
X206500Y87000D02*
X216500D01*
X205000Y88500D02*
X206500Y87000D01*
X205000Y88500D02*
Y92276D01*
X194724D02*
X201260D01*
X193520Y93480D02*
X194724Y92276D01*
X188091Y93480D02*
X193520D01*
X201969Y262000D02*
X207244D01*
X191756Y262000D02*
X198031D01*
X212417Y213339D02*
X217339D01*
X219256Y215256D01*
X223000D01*
X145000Y246000D02*
Y250744D01*
X142382Y243382D02*
X145000Y246000D01*
X142382Y239421D02*
Y243382D01*
X147744Y150744D02*
Y153000D01*
X133441Y116000D02*
X133488Y116047D01*
X186000Y239500D02*
Y243244D01*
Y239500D02*
X187500Y238000D01*
X191000D01*
X192339Y236661D01*
Y233417D02*
Y236661D01*
X229244Y248756D02*
Y253000D01*
Y248756D02*
X230500Y247500D01*
X233000D01*
X234756Y245744D01*
Y243000D02*
Y245744D01*
X218244Y249756D02*
Y253000D01*
Y249756D02*
X220000Y248000D01*
X222000D01*
X223756Y246244D01*
Y243000D02*
Y246244D01*
X166874Y238126D02*
X174000D01*
X168126Y253874D02*
X174000D01*
X164744Y257256D02*
X168126Y253874D01*
X161000Y257256D02*
X164744D01*
Y240256D02*
X166874Y238126D01*
X161000Y240256D02*
X164744D01*
X138016Y124512D02*
Y131228D01*
X129256Y131244D02*
X132500D01*
X138016Y124512D02*
X139984D01*
X123453Y157047D02*
X128504D01*
X137953Y150047D02*
X139000Y149000D01*
X137953Y150047D02*
Y153504D01*
X132047Y195028D02*
X134016D01*
X137461Y239421D02*
X142382D01*
X229244Y240244D02*
Y243000D01*
X227500Y238500D02*
X229244Y240244D01*
X212000Y238500D02*
X227500D01*
X209661Y236161D02*
X212000Y238500D01*
X210900Y239900D02*
X217400D01*
X218244Y240744D01*
Y243000D01*
X209661Y233417D02*
Y236161D01*
X207244Y253000D02*
Y255256D01*
X205000Y257500D02*
X207244Y255256D01*
X200000Y257500D02*
X205000D01*
X198031Y255532D02*
X200000Y257500D01*
X198031Y253000D02*
Y255532D01*
X201969Y253000D02*
X201969Y253000D01*
Y242500D02*
Y253000D01*
Y239968D02*
Y242500D01*
X200213Y238213D02*
X201969Y239968D01*
X200213Y233417D02*
Y238213D01*
X201787Y236787D02*
X204669Y239669D01*
X201787Y233417D02*
Y236787D01*
X204669Y239669D02*
Y245772D01*
X203362Y235362D02*
X207244Y239244D01*
X203362Y233417D02*
Y235362D01*
X198031Y242500D02*
X198638Y241894D01*
X191756Y249000D02*
X192000Y248756D01*
X191756Y249000D02*
Y262000D01*
X174000Y248202D02*
Y253874D01*
X207244Y248346D02*
Y253000D01*
X204669Y245772D02*
X207244Y248346D01*
Y239244D02*
Y243000D01*
X192339Y233417D02*
X193913D01*
X195488Y230500D02*
Y233417D01*
X197063Y230500D02*
Y233417D01*
X209661Y213339D02*
X212417D01*
X192000Y239500D02*
Y243244D01*
X198638Y233417D02*
Y238000D01*
X134500Y128000D02*
X136047Y126453D01*
Y124512D02*
Y126453D01*
X128000Y132500D02*
X129256Y131244D01*
X132500D02*
X145500D01*
X146000Y149000D02*
X147744Y150744D01*
X138256Y143500D02*
X142500D01*
X145500Y140500D01*
Y136756D02*
Y140500D01*
X132500Y136756D02*
X145500D01*
X139000Y149000D02*
X146000D01*
X176756Y228000D02*
X177244Y227512D01*
X137953Y210972D02*
Y216791D01*
X174000Y248202D02*
X179724Y242477D01*
X183339Y230661D02*
X189583D01*
X179724Y234276D02*
X183339Y230661D01*
X179724Y234276D02*
Y242477D01*
X174000Y238000D02*
X182913Y229087D01*
X189583D01*
X177244Y227512D02*
X189583D01*
X172138Y219638D02*
X189583D01*
X170884Y221213D02*
X189583D01*
X169631Y222787D02*
X189583D01*
X168377Y224362D02*
X189583D01*
X185839Y213339D02*
X189583D01*
X192339Y207339D02*
Y210583D01*
X190000Y205000D02*
X192339Y207339D01*
X258914Y210086D02*
X259000Y210000D01*
X258914Y199914D02*
X259000Y200000D01*
X254414Y210086D02*
X258914D01*
X259000Y215500D02*
Y220000D01*
X154000Y221000D02*
X157500Y224500D01*
X151914Y120086D02*
X158500Y126672D01*
X155000Y126000D02*
X156500Y127500D01*
X145000Y164000D02*
Y170000D01*
X143953Y162953D02*
X145000Y164000D01*
X141496Y162953D02*
X143953D01*
X141496Y159016D02*
X149728D01*
X150000Y158744D01*
D38*
X93244Y109000D02*
Y115000D01*
Y103298D02*
Y109000D01*
Y103298D02*
X95626Y100916D01*
X269084Y269084D02*
X274374D01*
X267000Y93542D02*
X269084Y95626D01*
X286232Y80010D02*
X291121Y75121D01*
X289990Y83768D02*
X294879Y78879D01*
X265000Y99711D02*
Y112500D01*
Y99711D02*
X269084Y95626D01*
X105000Y265500D02*
Y270289D01*
Y257500D02*
Y265500D01*
X78879Y294879D02*
X83768Y289990D01*
X102500Y255000D02*
X105000Y257500D01*
X98756Y255000D02*
X102500D01*
X75121Y78879D02*
X80010Y83768D01*
X78879Y75121D02*
X83768Y80010D01*
X267500Y115000D02*
X271244D01*
X265000Y112500D02*
X267500Y115000D01*
X276756Y255000D02*
Y266702D01*
X274374Y269084D02*
X276756Y266702D01*
X289990Y286232D02*
X294879Y291121D01*
X286232Y289990D02*
X291121Y294879D01*
X100916Y274374D02*
X105000Y270289D01*
X75121Y291121D02*
X80010Y286232D01*
D39*
X201969Y262000D02*
Y272368D01*
D40*
X179980Y96866D02*
D03*
X179980Y90134D02*
D03*
D41*
X80232Y83768D02*
D03*
X289768Y286232D02*
D03*
D42*
X83768Y80232D02*
D03*
X289768Y83768D02*
D03*
X286232Y289768D02*
D03*
X80232Y286232D02*
D03*
D43*
X286232Y80232D02*
D03*
X83768Y289768D02*
D03*
D44*
X23622Y346457D02*
D03*
X346457D02*
D03*
Y23622D02*
D03*
X23622D02*
D03*
D45*
X51181Y51181D02*
D03*
Y318898D02*
D03*
X318898D02*
D03*
Y51181D02*
D03*
D46*
X111000Y230000D02*
D03*
X259000Y140000D02*
D03*
D47*
X111000Y220000D02*
D03*
Y200000D02*
D03*
Y190000D02*
D03*
Y180000D02*
D03*
Y170000D02*
D03*
Y160000D02*
D03*
Y150000D02*
D03*
Y140000D02*
D03*
Y210000D02*
D03*
X259000Y160000D02*
D03*
Y230000D02*
D03*
Y220000D02*
D03*
Y210000D02*
D03*
Y200000D02*
D03*
Y190000D02*
D03*
Y180000D02*
D03*
Y170000D02*
D03*
Y150000D02*
D03*
X238000Y112000D02*
D03*
X163000Y93000D02*
D03*
D48*
X228000Y112000D02*
D03*
X153000Y93000D02*
D03*
D49*
X138500Y174244D02*
D03*
X150256Y174500D02*
D03*
X150000Y198244D02*
D03*
X171000Y143500D02*
D03*
X228000Y144256D02*
D03*
X205000Y92276D02*
D03*
X93244Y109000D02*
D03*
X90000Y263000D02*
D03*
X128000Y148756D02*
D03*
X234944Y165465D02*
D03*
X235000Y182256D02*
D03*
X179000Y215000D02*
D03*
X242500Y150500D02*
D03*
X149500Y251000D02*
D03*
X207628Y116872D02*
D03*
X174000Y209000D02*
D03*
X151500Y148756D02*
D03*
X245000Y188900D02*
D03*
Y210000D02*
D03*
X259000Y131500D02*
D03*
X251000Y135756D02*
D03*
X221756Y132500D02*
D03*
X202244Y164500D02*
D03*
X186000Y243244D02*
D03*
X257244Y119000D02*
D03*
X128000Y143244D02*
D03*
X115000Y105000D02*
D03*
X108000Y238000D02*
D03*
X103000Y122500D02*
D03*
X99000D02*
D03*
X183000Y211500D02*
D03*
X90949Y292551D02*
D03*
X150000Y234000D02*
D03*
X132000Y217500D02*
D03*
X157500Y224500D02*
D03*
X226500Y223000D02*
D03*
X225000Y226500D02*
D03*
X237000Y210500D02*
D03*
X240000Y208500D02*
D03*
X227000Y209900D02*
D03*
X247500Y217500D02*
D03*
X265000Y285000D02*
D03*
X245000Y236500D02*
D03*
X247500Y232500D02*
D03*
X242500Y240000D02*
D03*
X256500Y241500D02*
D03*
X259000Y239000D02*
D03*
X242500Y267500D02*
D03*
X260000Y272500D02*
D03*
X243000Y162657D02*
D03*
X231343Y169158D02*
D03*
X235000Y172500D02*
D03*
X252500Y155000D02*
D03*
X259000Y165000D02*
D03*
X242500Y215000D02*
D03*
X245000Y184000D02*
D03*
X232500Y188500D02*
D03*
X232500Y194000D02*
D03*
X146500Y191500D02*
D03*
X169500Y195000D02*
D03*
X212500Y190000D02*
D03*
X205000Y153000D02*
D03*
X186000Y158744D02*
D03*
X176756Y158500D02*
D03*
X134016Y162016D02*
D03*
X207500Y157500D02*
D03*
X205000Y186500D02*
D03*
X171244Y158500D02*
D03*
X195500Y156500D02*
D03*
X202500Y145000D02*
D03*
X243000Y133000D02*
D03*
X267000Y93542D02*
D03*
X278500Y85000D02*
D03*
X270000Y87500D02*
D03*
X128000Y138500D02*
D03*
X166000Y118500D02*
D03*
X150500Y123500D02*
D03*
X117500Y126500D02*
D03*
X117244Y122000D02*
D03*
X112626Y112374D02*
D03*
X133000Y108500D02*
D03*
X180000Y117500D02*
D03*
X175000Y146500D02*
D03*
X148500Y108500D02*
D03*
X200500Y116000D02*
D03*
X169500Y117000D02*
D03*
X168000Y90000D02*
D03*
X184500Y108000D02*
D03*
X187000Y116000D02*
D03*
X170000Y108500D02*
D03*
X95000Y122500D02*
D03*
Y87500D02*
D03*
X102500Y230000D02*
D03*
X132000Y173500D02*
D03*
X124000D02*
D03*
X199000Y198000D02*
D03*
X263000Y131500D02*
D03*
X207000Y121500D02*
D03*
X204500Y125000D02*
D03*
X154000Y190500D02*
D03*
X132500Y251000D02*
D03*
X150000Y210000D02*
D03*
X150500Y227500D02*
D03*
X123000D02*
D03*
X121500Y251000D02*
D03*
X127000Y210000D02*
D03*
X155000Y265500D02*
D03*
X160000D02*
D03*
X165000D02*
D03*
X170000D02*
D03*
X175000D02*
D03*
X180000D02*
D03*
Y261500D02*
D03*
X175000D02*
D03*
X170000D02*
D03*
X165000D02*
D03*
X155000D02*
D03*
X160000D02*
D03*
X162000Y227500D02*
D03*
X188000Y234000D02*
D03*
X188500Y254000D02*
D03*
X182500D02*
D03*
X216500Y265000D02*
D03*
X222500D02*
D03*
X216500Y260000D02*
D03*
X222500D02*
D03*
X215000Y234000D02*
D03*
X235000D02*
D03*
X235500Y265000D02*
D03*
X155000Y240000D02*
D03*
X150000Y164256D02*
D03*
X124200Y164700D02*
D03*
X235500Y260000D02*
D03*
D50*
X184669Y136500D02*
D03*
X189000D02*
D03*
X193331D02*
D03*
X141165Y121165D02*
D03*
Y116835D02*
D03*
X136835Y121165D02*
D03*
Y116835D02*
D03*
X177913Y192087D02*
D03*
Y187362D02*
D03*
Y182638D02*
D03*
Y177913D02*
D03*
X182638Y192087D02*
D03*
Y187362D02*
D03*
Y182638D02*
D03*
Y177913D02*
D03*
X187362Y192087D02*
D03*
Y187362D02*
D03*
Y182638D02*
D03*
Y177913D02*
D03*
X192087Y192087D02*
D03*
Y187362D02*
D03*
Y182638D02*
D03*
Y177913D02*
D03*
X184669Y140831D02*
D03*
Y132169D02*
D03*
X189000Y140831D02*
D03*
Y132169D02*
D03*
X193331Y140831D02*
D03*
Y132169D02*
D03*
X132835Y205165D02*
D03*
X137165D02*
D03*
X132835Y200835D02*
D03*
X137165D02*
D03*
X207496Y215504D02*
D03*
X203165D02*
D03*
X207496Y224165D02*
D03*
Y228496D02*
D03*
X203165D02*
D03*
Y224165D02*
D03*
X198835Y228496D02*
D03*
Y224165D02*
D03*
X194504Y228496D02*
D03*
Y224165D02*
D03*
X198835Y215504D02*
D03*
X194504D02*
D03*
X194500Y220000D02*
D03*
X198800D02*
D03*
X203200D02*
D03*
X207500D02*
D03*
D51*
X158500Y139000D02*
D03*
D52*
X176900Y205000D02*
D03*
X269084Y269084D02*
D03*
X105000Y265500D02*
D03*
D53*
X221000Y155000D02*
D03*
X117500Y152500D02*
D03*
X134500Y99500D02*
D03*
D54*
X95653Y185004D02*
D03*
X274236Y185083D02*
D03*
M02*
