G04 Layer_Physical_Order=2*
G04 Layer_Color=32768*
%FSLAX25Y25*%
%MOIN*%
G70*
G01*
G75*
%ADD55C,0.09000*%
%ADD56C,0.09000*%
%ADD57C,0.01500*%
%ADD58C,0.00200*%
%ADD59C,0.05756*%
%ADD60C,0.05362*%
%ADD61C,0.31346*%
%ADD62C,0.10874*%
%ADD63C,0.06543*%
%ADD64C,0.04400*%
%ADD65C,0.04500*%
%ADD66C,0.07000*%
%ADD67C,0.14347*%
%ADD68C,0.04200*%
D55*
X13048Y42846D02*
G03*
X42761Y12840I10558J-19260D01*
G01*
X42761D02*
G03*
X42826Y12910I-109J166D01*
G01*
X50666Y25547D02*
G03*
X42826Y12910I122507J-84755D01*
G01*
X50666Y25547D02*
G03*
X50670Y25552I-163J113D01*
G01*
Y25552D02*
G03*
X50672Y25555I-166J109D01*
G01*
X67095Y46981D02*
G03*
X50672Y25555I106078J-98316D01*
G01*
X67095Y46981D02*
G03*
X67103Y46990I-146J135D01*
G01*
X74503Y55010D02*
G03*
X67103Y46990I98670J-98471D01*
G01*
X98641Y76377D02*
G03*
X84880Y65096I70595J-100153D01*
G01*
X98641Y76377D02*
G03*
X98645Y76379I-114J162D01*
G01*
X130098Y93695D02*
G03*
X98645Y76379I54925J-136998D01*
G01*
X130482Y93841D02*
G03*
X130538Y93856I-24J197D01*
G01*
X130641Y93901D02*
G03*
X130538Y93856I6759J-15544D01*
G01*
X130661Y93909D02*
G03*
X130689Y93922I-71J185D01*
G01*
X137446Y95307D02*
G03*
X130689Y93922I-46J-16950D01*
G01*
X146069Y85411D02*
G03*
X137446Y95307I-9990J0D01*
G01*
X146069Y85403D02*
G03*
X146069Y85411I-9990J8D01*
G01*
X146069Y85401D02*
G03*
X146069Y85403I-9990J10D01*
G01*
D02*
G03*
X146069Y85401I198J-2D01*
G01*
D02*
G03*
X146272Y85202I198J-0D01*
G01*
X223347D02*
G03*
X223545Y85401I0J198D01*
G01*
D02*
G03*
X223529Y85479I-198J0D01*
G01*
D02*
G03*
X223545Y85558I-182J79D01*
G01*
X232181Y95467D02*
G03*
X223545Y85558I1354J-9898D01*
G01*
X232181Y95467D02*
G03*
X232193Y95469I-27J197D01*
G01*
D02*
G03*
X232234Y95465I39J194D01*
G01*
X239195Y93996D02*
G03*
X232234Y95465I-6902J-15482D01*
G01*
X239195Y93996D02*
G03*
X239213Y93989I81J181D01*
G01*
D02*
G03*
X239279Y93946I139J142D01*
G01*
X271323Y76419D02*
G03*
X239279Y93946I-86300J-119722D01*
G01*
X271323Y76419D02*
G03*
X271327Y76416I118J159D01*
G01*
X285089Y65135D02*
G03*
X271327Y76416I-84356J-88872D01*
G01*
X302866Y47030D02*
G03*
X295465Y55050I-106070J-90451D01*
G01*
X302866Y47030D02*
G03*
X302874Y47020I154J126D01*
G01*
X319297Y25594D02*
G03*
X302874Y47020I-122501J-76890D01*
G01*
X319297Y25594D02*
G03*
X319299Y25591I168J105D01*
G01*
Y25591D02*
G03*
X319302Y25586I167J107D01*
G01*
X327141Y12951D02*
G03*
X319302Y25586I-130346J-72120D01*
G01*
X327141Y12951D02*
G03*
X327142Y12950I175J94D01*
G01*
D02*
G03*
X368365Y23508I19260J10558D01*
G01*
D02*
G03*
X357148Y42663I-21964J0D01*
G01*
Y42663D02*
G03*
X357078Y42728I-166J-109D01*
G01*
X344442Y50568D02*
G03*
X357078Y42728I84755J122507D01*
G01*
X344442Y50568D02*
G03*
X344436Y50571I-113J-163D01*
G01*
X344436D02*
G03*
X344433Y50573I-109J-166D01*
G01*
X323007Y66996D02*
G03*
X344433Y50573I98316J106078D01*
G01*
X323007Y66996D02*
G03*
X322998Y67004I-135J-146D01*
G01*
D02*
G03*
X323001Y67002I90451J106070D01*
G01*
X314978Y74405D02*
G03*
X322998Y67004I98471J98670D01*
G01*
X293611Y98543D02*
G03*
X304892Y84781I100153J70595D01*
G01*
X293611Y98543D02*
G03*
X293493Y98622I-162J-114D01*
G01*
X266327Y169748D02*
G03*
X293493Y98622I146846J15334D01*
G01*
X266327Y169748D02*
G03*
X266328Y169759I-197J19D01*
G01*
X271321Y174676D02*
G03*
X266328Y169759I148J-5144D01*
G01*
X271323Y174676D02*
G03*
X271321Y174676I146J-5144D01*
G01*
X274656Y174688D02*
G03*
X274683Y174689I-1J198D01*
G01*
D02*
G03*
X284639Y185083I-447J10393D01*
G01*
D02*
G03*
X274583Y195480I-10403J0D01*
G01*
D02*
G03*
X274549Y195478I-7J-198D01*
G01*
X271275D02*
G03*
X271252Y195480I-31J-196D01*
G01*
X266289Y200407D02*
G03*
X271252Y195480I5152J227D01*
G01*
X266289Y200407D02*
G03*
X266286Y200434I-198J-9D01*
G01*
X293457Y271568D02*
G03*
X266286Y200434I119716J-86485D01*
G01*
X293457Y271568D02*
G03*
X293495Y271684I-161J116D01*
G01*
D02*
G03*
X293494Y271699I-198J0D01*
G01*
X304263Y284703D02*
G03*
X293494Y271699I90531J-85932D01*
G01*
X304263Y284703D02*
G03*
X304278Y284720I-144J137D01*
G01*
D02*
G03*
X304318Y284753I-103J169D01*
G01*
X314742Y295722D02*
G03*
X314740Y295720I98470J-98671D01*
G01*
X322762Y303122D02*
G03*
X314742Y295722I90451J-106070D01*
G01*
X322765Y303124D02*
G03*
X322762Y303122I90448J-106073D01*
G01*
D02*
G03*
X322771Y303130I-126J154D01*
G01*
X344197Y319553D02*
G03*
X322771Y303130I76890J-122501D01*
G01*
X344197Y319553D02*
G03*
X344200Y319555I-105J168D01*
G01*
X344200D02*
G03*
X344205Y319558I-107J167D01*
G01*
X356840Y327397D02*
G03*
X344205Y319558I72120J-130346D01*
G01*
X356840Y327397D02*
G03*
X356841Y327398I-94J175D01*
G01*
D02*
G03*
X368247Y346657I-10558J19260D01*
G01*
D02*
G03*
X327128Y357404I-21964J0D01*
G01*
X327128D02*
G03*
X327063Y357334I109J-166D01*
G01*
X319224Y344698D02*
G03*
X327063Y357334I-122507J84755D01*
G01*
X319223Y344698D02*
G03*
X319220Y344692I163J-113D01*
G01*
Y344692D02*
G03*
X319218Y344689I166J-109D01*
G01*
X302795Y323263D02*
G03*
X319218Y344689I-106078J98316D01*
G01*
X302795Y323263D02*
G03*
X302787Y323254I146J-135D01*
G01*
X295386Y315234D02*
G03*
X302787Y323254I-98670J98471D01*
G01*
X271303Y293906D02*
G03*
X285010Y305148I-70650J100114D01*
G01*
X271303Y293906D02*
G03*
X271239Y293875I52J-191D01*
G01*
X223123Y271034D02*
G03*
X271239Y293875I-38099J142356D01*
G01*
X223123Y271034D02*
G03*
X223118Y271032I51J-192D01*
G01*
X218345Y270360D02*
G03*
X223118Y271032I46J16950D01*
G01*
X210044Y277741D02*
G03*
X218345Y270360I9668J2515D01*
G01*
X210044Y277741D02*
G03*
X209958Y277858I-192J-50D01*
G01*
Y277858D02*
G03*
X208703Y279511I-4698J-2264D01*
G01*
D02*
G03*
X208596Y279559I-131J-149D01*
G01*
X208596Y279559D02*
G03*
X206202Y280163I-2273J-3965D01*
G01*
X163690Y280163D02*
G03*
X163688Y280163I-123J-4568D01*
G01*
D02*
G03*
X161294Y279559I-121J-4568D01*
G01*
X161294Y279559D02*
G03*
X161187Y279511I24J-197D01*
G01*
D02*
G03*
X159932Y277858I3443J-3917D01*
G01*
Y277858D02*
G03*
X159846Y277741I106J-167D01*
G01*
X151545Y270360D02*
G03*
X159846Y277741I-1367J9896D01*
G01*
X146771Y271032D02*
G03*
X151545Y270360I4728J16278D01*
G01*
X146771Y271032D02*
G03*
X146765Y271034I-55J-190D01*
G01*
X82889Y307137D02*
G03*
X146765Y271034I102079J106047D01*
G01*
X82889Y307137D02*
G03*
X82886Y307140I-138J-143D01*
G01*
X67142Y322978D02*
G03*
X74542Y314959I106070J90451D01*
G01*
X67140Y322981D02*
G03*
X67142Y322978I106073J90448D01*
G01*
D02*
G03*
X67134Y322987I-154J-126D01*
G01*
X50711Y344413D02*
G03*
X67134Y322987I122501J76890D01*
G01*
X50711Y344413D02*
G03*
X50709Y344417I-168J-105D01*
G01*
Y344417D02*
G03*
X50706Y344422I-167J-107D01*
G01*
X42867Y357057D02*
G03*
X50705Y344422I130346J72120D01*
G01*
X42867Y357057D02*
G03*
X42866Y357058I-175J-94D01*
G01*
D02*
G03*
X12860Y327345I-19260J-10558D01*
G01*
Y327345D02*
G03*
X12930Y327280I166J109D01*
G01*
X25566Y319440D02*
G03*
X12930Y327280I-84755J-122507D01*
G01*
X25566Y319440D02*
G03*
X25572Y319437I113J163D01*
G01*
X25572D02*
G03*
X25575Y319434I109J166D01*
G01*
X47001Y303011D02*
G03*
X25575Y319434I-98316J-106078D01*
G01*
X47001Y303011D02*
G03*
X47010Y303004I135J146D01*
G01*
X55030Y295603D02*
G03*
X47010Y303004I-98471J-98670D01*
G01*
X76397Y271465D02*
G03*
X65115Y285227I-100153J-70595D01*
G01*
X76397Y271465D02*
G03*
X76505Y271388I162J114D01*
G01*
X103604Y200355D02*
G03*
X76505Y271388I-146888J-15351D01*
G01*
X103604Y200355D02*
G03*
X103601Y200328I195J-36D01*
G01*
X98638Y195402D02*
G03*
X103601Y200328I-189J5154D01*
G01*
X98638Y195402D02*
G03*
X98614Y195399I7J-198D01*
G01*
X95341D02*
G03*
X95307Y195401I-28J-196D01*
G01*
D02*
G03*
X95207Y174611I347J-10397D01*
G01*
D02*
G03*
X95234Y174609I28J196D01*
G01*
X98569Y174597D02*
G03*
X98567Y174597I-148J-5144D01*
G01*
X103562Y169680D02*
G03*
X98569Y174597I-5141J-227D01*
G01*
X103562Y169680D02*
G03*
X103562Y169670I198J9D01*
G01*
X76494Y98678D02*
G03*
X103562Y169670I-119778J86326D01*
G01*
X76494Y98678D02*
G03*
X76457Y98580I161J-116D01*
G01*
X65234Y84899D02*
G03*
X76457Y98580I-88872J84356D01*
G01*
X47128Y67123D02*
G03*
X55148Y74523I-90451J106070D01*
G01*
X47128Y67123D02*
G03*
X47119Y67114I126J-154D01*
G01*
X25693Y50691D02*
G03*
X47119Y67114I-76890J122501D01*
G01*
X25693Y50691D02*
G03*
X25690Y50690I105J-168D01*
G01*
X25690D02*
G03*
X25684Y50686I107J-167D01*
G01*
X13049Y42847D02*
G03*
X25684Y50686I-72120J130346D01*
G01*
X13049Y42847D02*
G03*
X13048Y42846I94J-175D01*
G01*
X74502Y55009D02*
X74503Y55010D01*
X84880Y65096D02*
X84880Y65096D01*
X84881Y65097D01*
X295465Y55050D02*
X295466Y55049D01*
X271318Y174676D02*
X271321Y174676D01*
X314742Y295722D02*
X314744Y295724D01*
X98569Y174597D02*
X98572Y174597D01*
X84880Y65096D02*
X84881Y65097D01*
X25684Y50686D02*
Y50686D01*
X25690Y50690D02*
X25690D01*
X47119Y67114D02*
X47119D01*
X55148Y74523D02*
X65234Y84899D01*
X65234Y84899D01*
X76457Y98580D02*
X76457Y98580D01*
X98567Y174597D02*
X98569Y174597D01*
X95234Y174609D02*
X98569Y174597D01*
X95341Y195399D02*
X98614D01*
X98638Y195402D02*
X98638D01*
X76397Y271465D02*
Y271465D01*
X65115Y285227D02*
X65115Y285227D01*
X55030Y295603D02*
X65115Y285227D01*
X47001Y303011D02*
X47001D01*
X25572Y319437D02*
X25572D01*
X25566Y319440D02*
Y319440D01*
X12930Y327280D02*
X12930D01*
X12860Y327345D02*
Y327345D01*
X50705Y344422D02*
X50706D01*
X50709Y344417D02*
Y344417D01*
X67134Y322987D02*
Y322987D01*
X67140Y322981D02*
X67142Y322978D01*
X74542Y314959D02*
X82886Y307140D01*
X82888Y307139D01*
X82889Y307137D01*
X82886Y307140D02*
X82889Y307137D01*
X146765Y271034D02*
Y271034D01*
X146771Y271032D02*
X146771Y271032D01*
X159846Y277741D02*
Y277741D01*
X159932Y277858D02*
Y277858D01*
X161294Y279559D02*
X161294Y279559D01*
X163685Y280163D02*
X163690Y280163D01*
X163685Y280163D02*
X206202D01*
X208596Y279559D02*
X208596Y279559D01*
X209958Y277858D02*
Y277858D01*
X210044Y277741D02*
Y277741D01*
X223118Y271032D02*
X223118Y271032D01*
X271303Y293906D02*
X271303D01*
X285010Y305148D02*
X295386Y315234D01*
X302795Y323263D02*
Y323263D01*
X319220Y344692D02*
Y344692D01*
X319223Y344698D02*
X319224D01*
X327063Y357334D02*
Y357334D01*
X327128Y357404D02*
X327128D01*
X344205Y319558D02*
Y319558D01*
X344200Y319555D02*
X344200D01*
X322771Y303130D02*
X322771D01*
X322762Y303122D02*
X322765Y303124D01*
X314740Y295720D02*
X314742Y295722D01*
X304318Y284753D02*
X314742Y295722D01*
X293457Y271568D02*
Y271568D01*
X271252Y195480D02*
X271252D01*
X271275Y195478D02*
X274549D01*
X271321Y174676D02*
X274656Y174688D01*
X271321Y174676D02*
X271323Y174676D01*
X293611Y98543D02*
Y98543D01*
X304892Y84781D02*
X314978Y74405D01*
X322998Y67004D02*
X323001Y67002D01*
X323007Y66996D02*
X323007D01*
X344436Y50571D02*
X344436D01*
X344442Y50568D02*
Y50568D01*
X357078Y42728D02*
X357078D01*
X357148Y42663D02*
Y42663D01*
X319302Y25586D02*
X319302D01*
X319299Y25591D02*
Y25591D01*
X302874Y47020D02*
Y47020D01*
X285089Y65135D02*
X295465Y55050D01*
X285089Y65135D02*
X285089Y65135D01*
X271327Y76416D02*
X271327D01*
X146272Y85202D02*
X223347D01*
X146069Y85401D02*
X146069Y85403D01*
X130641Y93901D02*
X130661Y93909D01*
X130098Y93695D02*
X130482Y93841D01*
X98641Y76377D02*
X98641D01*
X74503Y55010D02*
X84880Y65096D01*
X67095Y46981D02*
Y46981D01*
X50670Y25552D02*
Y25552D01*
X50666Y25547D02*
X50666D01*
X42826Y12910D02*
Y12910D01*
X42761Y12840D02*
X42761D01*
X98569Y174597D02*
X98572Y174597D01*
X271318Y174676D02*
X271321Y174676D01*
X84880Y65096D02*
X84880Y65096D01*
X314742Y295722D02*
X314744Y295724D01*
X295465Y55050D02*
X295466Y55049D01*
X74502Y55009D02*
X74503Y55010D01*
D56*
X84880Y65096D02*
D03*
X223545Y85558D02*
D03*
X304892Y84781D02*
D03*
X285010Y305148D02*
D03*
D57*
X150000Y238000D02*
Y266500D01*
Y238000D02*
X157500Y230500D01*
Y170500D02*
Y230500D01*
Y170500D02*
X165000Y163000D01*
X172500D01*
X180500Y155000D01*
X235000Y139000D02*
X242500Y146500D01*
X152500Y139000D02*
X235000D01*
X242500Y146500D02*
Y180000D01*
X235000Y187500D02*
X242500Y180000D01*
X226500Y187500D02*
X235000D01*
X219000Y180000D02*
X226500Y187500D01*
X219000Y163500D02*
Y180000D01*
X210500Y155000D02*
X219000Y163500D01*
X180500Y155000D02*
X210500D01*
X254000Y134000D02*
Y279000D01*
Y113000D02*
Y134000D01*
X246000Y105000D02*
X254000Y113000D01*
X160500Y105000D02*
X246000D01*
X152500Y113000D02*
X160500Y105000D01*
X117500Y155000D02*
Y277500D01*
Y155000D02*
X126000Y146500D01*
X145000D01*
X152500Y113000D02*
Y139000D01*
X145000Y146500D02*
X152500Y139000D01*
D58*
X157000Y267500D02*
X188500D01*
X191000Y265000D01*
Y234000D02*
Y265000D01*
Y234000D02*
X193500Y231500D01*
X203000D01*
X205500Y234000D01*
Y265000D01*
X208000Y267500D01*
X213000D01*
D59*
X179980Y96866D02*
D03*
X179980Y90134D02*
D03*
D60*
X80232Y83768D02*
D03*
X83768Y80232D02*
D03*
X286232D02*
D03*
X289768Y83768D02*
D03*
Y286232D02*
D03*
X286232Y289768D02*
D03*
X83768Y289768D02*
D03*
X80232Y286232D02*
D03*
D61*
X23622Y346457D02*
D03*
X346457D02*
D03*
Y23622D02*
D03*
X23622D02*
D03*
D62*
X51181Y51181D02*
D03*
Y318898D02*
D03*
X318898D02*
D03*
Y51181D02*
D03*
D63*
X111000Y230000D02*
D03*
Y220000D02*
D03*
Y200000D02*
D03*
Y190000D02*
D03*
Y180000D02*
D03*
Y170000D02*
D03*
Y160000D02*
D03*
Y150000D02*
D03*
Y140000D02*
D03*
Y210000D02*
D03*
X259000Y160000D02*
D03*
Y230000D02*
D03*
Y220000D02*
D03*
Y210000D02*
D03*
Y200000D02*
D03*
Y190000D02*
D03*
Y180000D02*
D03*
Y170000D02*
D03*
Y150000D02*
D03*
Y140000D02*
D03*
X228000Y112000D02*
D03*
X153000Y93000D02*
D03*
D64*
X150000Y198244D02*
D03*
X171000Y143500D02*
D03*
X228000Y144256D02*
D03*
X158500Y139000D02*
D03*
X90000Y263000D02*
D03*
X179000Y215000D02*
D03*
X242500Y150500D02*
D03*
X149500Y251000D02*
D03*
X245000Y188900D02*
D03*
Y210000D02*
D03*
X259000Y131500D02*
D03*
X221756Y132500D02*
D03*
X202244Y164500D02*
D03*
X186000Y243244D02*
D03*
X108000Y238000D02*
D03*
X103000Y122500D02*
D03*
X99000D02*
D03*
X183000Y211500D02*
D03*
X90949Y292551D02*
D03*
X150000Y234000D02*
D03*
X132000Y217500D02*
D03*
X157500Y224500D02*
D03*
X226500Y223000D02*
D03*
X225000Y226500D02*
D03*
X237000Y210500D02*
D03*
X240000Y208500D02*
D03*
X227000Y209900D02*
D03*
X247500Y217500D02*
D03*
X265000Y285000D02*
D03*
X245000Y236500D02*
D03*
X247500Y232500D02*
D03*
X242500Y240000D02*
D03*
X256500Y241500D02*
D03*
X259000Y239000D02*
D03*
X242500Y267500D02*
D03*
X260000Y272500D02*
D03*
X243000Y162657D02*
D03*
X231343Y169158D02*
D03*
X235000Y172500D02*
D03*
X252500Y155000D02*
D03*
X259000Y165000D02*
D03*
X242500Y215000D02*
D03*
X245000Y184000D02*
D03*
X232500Y188500D02*
D03*
X232500Y194000D02*
D03*
X146500Y191500D02*
D03*
X169500Y195000D02*
D03*
X212500Y190000D02*
D03*
X205000Y153000D02*
D03*
X176756Y158500D02*
D03*
X134016Y162016D02*
D03*
X207500Y157500D02*
D03*
X205000Y186500D02*
D03*
X195500Y156500D02*
D03*
X202500Y145000D02*
D03*
X243000Y133000D02*
D03*
X278500Y85000D02*
D03*
X270000Y87500D02*
D03*
X128000Y138500D02*
D03*
X166000Y118500D02*
D03*
X117500Y126500D02*
D03*
X112626Y112374D02*
D03*
X133000Y108500D02*
D03*
X180000Y117500D02*
D03*
X200500Y116000D02*
D03*
X169500Y117000D02*
D03*
X168000Y90000D02*
D03*
X170000Y108500D02*
D03*
X95000Y122500D02*
D03*
Y87500D02*
D03*
X102500Y230000D02*
D03*
X132000Y173500D02*
D03*
X124000D02*
D03*
X199000Y198000D02*
D03*
X263000Y131500D02*
D03*
X207000Y121500D02*
D03*
X204500Y125000D02*
D03*
X154000Y190500D02*
D03*
X160000Y265500D02*
D03*
X165000D02*
D03*
X170000D02*
D03*
X175000D02*
D03*
X180000D02*
D03*
D65*
X176900Y205000D02*
D03*
D66*
X221000Y155000D02*
D03*
X117500Y152500D02*
D03*
X134500Y99500D02*
D03*
D67*
X95653Y185004D02*
D03*
X274236Y185083D02*
D03*
D68*
X184669Y140831D02*
D03*
X189000D02*
D03*
X193331D02*
D03*
M02*
