G04 Layer_Color=32768*
%FSLAX25Y25*%
%MOIN*%
G70*
G01*
G75*
%ADD135C,0.00394*%
%ADD136C,0.00197*%
D135*
X135000Y158031D02*
Y161969D01*
X133031Y160000D02*
X136969D01*
X120000Y108130D02*
Y111870D01*
X118130Y110000D02*
X121870D01*
X115276Y112165D02*
X124724D01*
X115276Y107835D02*
X124724D01*
X115276D02*
Y112165D01*
X124724Y107835D02*
Y112165D01*
X96000Y113130D02*
Y116870D01*
X94130Y115000D02*
X97870D01*
X91276Y117165D02*
X100724D01*
X91276Y112835D02*
X100724Y112835D01*
X91276Y112835D02*
Y117165D01*
X100724Y112835D02*
Y117165D01*
X96114Y107249D02*
X107249Y96114D01*
X82751Y93886D02*
X93887Y82751D01*
X107249Y96114D01*
X82751Y93886D02*
X96114Y107249D01*
X93608Y93608D02*
X96392Y96392D01*
X93608D02*
X96392Y93608D01*
X96114Y262751D02*
X107249Y273886D01*
X82751Y276114D02*
X93886Y287249D01*
X82751Y276114D02*
X96114Y262751D01*
X93886Y287249D02*
X107249Y273886D01*
X93608Y276392D02*
X96392Y273608D01*
X93608Y273608D02*
X96392Y276392D01*
X301678Y301678D02*
X304322Y304322D01*
X301678Y304322D02*
X304322Y301678D01*
X301190Y307872D02*
X307872Y301190D01*
X298128Y304809D02*
X304809Y298128D01*
X298128Y304809D02*
X301190Y307872D01*
X304809Y298128D02*
X307872Y301190D01*
X279678Y296322D02*
X282322Y293678D01*
X279678Y293678D02*
X282322Y296322D01*
X276128Y293191D02*
X282809Y299872D01*
X279190Y290128D02*
X285872Y296810D01*
X276128Y293191D02*
X279190Y290128D01*
X282809Y299872D02*
X285872Y296810D01*
X274000Y256870D02*
X274000Y253130D01*
X272130Y255000D02*
X275870Y255000D01*
X269276Y252835D02*
X278724D01*
X269276Y257165D02*
X278724Y257165D01*
Y252835D02*
Y257165D01*
X269276Y252835D02*
Y257165D01*
X262751Y273886D02*
X273886Y262751D01*
X276114Y287249D02*
X287249Y276114D01*
X262751Y273886D02*
X276114Y287249D01*
X273886Y262751D02*
X287249Y276114D01*
X273608Y273608D02*
X276392Y276392D01*
X273608D02*
X276392Y273608D01*
X65095Y304570D02*
X67739Y301925D01*
X65095D02*
X67739Y304570D01*
X64607Y298376D02*
X71289Y305057D01*
X61545Y301438D02*
X68226Y308120D01*
X71289Y305057D01*
X61545Y301438D02*
X64607Y298376D01*
X87678Y293178D02*
X90322Y295822D01*
X87678D02*
X90322Y293178D01*
X84128Y296309D02*
X90810Y289628D01*
X87191Y299372D02*
X93872Y292690D01*
X90810Y289628D02*
X93872Y292690D01*
X84128Y296309D02*
X87191Y299372D01*
X96000Y253130D02*
Y256870D01*
X94130Y255000D02*
X97870D01*
X91276Y252835D02*
X100724D01*
X91276Y257165D02*
X100724Y257165D01*
Y252835D02*
Y257165D01*
X91276Y252835D02*
Y257165D01*
X87678Y76322D02*
X90322Y73678D01*
X87678D02*
X90322Y76322D01*
X87191Y70128D02*
X93872Y76810D01*
X84128Y73190D02*
X90810Y79872D01*
X93872Y76810D01*
X84128Y73190D02*
X87191Y70128D01*
X65678Y65678D02*
X68322Y68322D01*
X65678D02*
X68322Y65678D01*
X62128Y68809D02*
X68809Y62128D01*
X65191Y71872D02*
X71872Y65191D01*
X68809Y62128D02*
X71872Y65191D01*
X62128Y68809D02*
X65191Y71872D01*
X262751Y96114D02*
X273886Y107249D01*
X276114Y82751D02*
X287249Y93887D01*
X273886Y107249D02*
X287249Y93887D01*
X262751Y96114D02*
X276114Y82751D01*
X273608Y96392D02*
X276392Y93608D01*
X273608Y93608D02*
X276392Y96392D01*
X278724Y112835D02*
Y117165D01*
X269276Y112835D02*
Y117165D01*
Y112835D02*
X278724Y112835D01*
X269276Y117165D02*
X278724D01*
X272130Y115000D02*
X275870D01*
X274000Y113130D02*
Y116870D01*
X279678Y73678D02*
X282322Y76322D01*
X282261Y75075D02*
X284906Y72430D01*
X279190Y79872D02*
X285872Y73190D01*
X276128Y76810D02*
X282809Y70128D01*
X276128Y76810D02*
X279190Y79872D01*
X282809Y70128D02*
X285872Y73190D01*
X301678Y68322D02*
X304322Y65678D01*
X301678Y65678D02*
X304322Y68322D01*
X298128Y65191D02*
X304809Y71872D01*
X301190Y62128D02*
X307872Y68809D01*
X298128Y65191D02*
X301190Y62128D01*
X304809Y71872D02*
X307872Y68809D01*
X142500Y249130D02*
Y252870D01*
X140630Y251000D02*
X144370D01*
X137776Y253165D02*
X147224D01*
X137776Y248835D02*
X147224D01*
X137776D02*
Y253165D01*
X147224Y248835D02*
Y253165D01*
X147500Y181630D02*
Y185370D01*
X145630Y183500D02*
X149370D01*
X142776Y181335D02*
X152224D01*
X142776Y185665D02*
X152224D01*
Y181335D02*
Y185665D01*
X142776Y181335D02*
Y185665D01*
X147500Y172630D02*
Y176370D01*
X145630Y174500D02*
X149370D01*
X142776Y172335D02*
X152224D01*
X142776Y176665D02*
X152224D01*
Y172335D02*
Y176665D01*
X142776Y172335D02*
Y176665D01*
X148130Y161500D02*
X151870D01*
X150000Y159630D02*
Y163370D01*
X152165Y156776D02*
Y166224D01*
X147835Y156776D02*
Y166224D01*
X152165D01*
X147835Y156776D02*
X152165D01*
X140500Y215130D02*
Y218870D01*
X138630Y217000D02*
X142370D01*
X135776Y214835D02*
X145224D01*
X135776Y219165D02*
X145224D01*
Y214835D02*
Y219165D01*
X135776Y214835D02*
Y219165D01*
X148130Y201000D02*
X151870D01*
X150000Y199130D02*
Y202870D01*
X152165Y196276D02*
Y205724D01*
X147835Y196276D02*
Y205724D01*
X152165D01*
X147835Y196276D02*
X152165D01*
X136630Y177000D02*
X140370D01*
X138500Y175130D02*
Y178870D01*
X136335Y172276D02*
Y181724D01*
X140665Y172276D02*
Y181724D01*
X136335Y172276D02*
X140665D01*
X136335Y181724D02*
X140665D01*
X150500Y151130D02*
Y154870D01*
X148630Y153000D02*
X152370D01*
X145776Y155165D02*
X155224D01*
X145776Y150835D02*
X155224D01*
X145776D02*
Y155165D01*
X155224Y150835D02*
Y155165D01*
X232000Y241130D02*
Y244870D01*
X230130Y243000D02*
X233870D01*
X227276Y240835D02*
X236724D01*
X227276Y245165D02*
X236724D01*
Y240835D02*
Y245165D01*
X227276Y240835D02*
Y245165D01*
X221000Y241130D02*
Y244870D01*
X219130Y243000D02*
X222870D01*
X216276Y240835D02*
X225724D01*
X216276Y245165D02*
X225724D01*
Y240835D02*
Y245165D01*
X216276Y240835D02*
Y245165D01*
X203543Y251622D02*
Y254378D01*
X196457Y251622D02*
Y254378D01*
Y251622D02*
X203543D01*
X196457Y254378D02*
X203543D01*
X198819Y253000D02*
X201181D01*
X200000Y251819D02*
Y254181D01*
X196457Y241122D02*
Y243878D01*
X203543Y241122D02*
Y243878D01*
X196457D02*
X203543D01*
X196457Y241122D02*
X203543D01*
X198819Y242500D02*
X201181D01*
X200000Y241319D02*
Y243681D01*
X196457Y260622D02*
Y263378D01*
X203543Y260622D02*
Y263378D01*
X196457D02*
X203543D01*
X196457Y260622D02*
X203543D01*
X198819Y262000D02*
X201181D01*
X200000Y260819D02*
Y263181D01*
X232000Y251130D02*
Y254870D01*
X230130Y253000D02*
X233870D01*
X227276Y250835D02*
X236724D01*
X227276Y255165D02*
X236724D01*
Y250835D02*
Y255165D01*
X227276Y250835D02*
Y255165D01*
X221000Y251130D02*
Y254870D01*
X219130Y253000D02*
X222870D01*
X216276Y250835D02*
X225724D01*
X216276Y255165D02*
X225724D01*
Y250835D02*
Y255165D01*
X216276Y250835D02*
Y255165D01*
X210000Y251130D02*
Y254870D01*
X208130Y253000D02*
X211870D01*
X205276Y250835D02*
X214724D01*
X205276Y255165D02*
X214724D01*
Y250835D02*
Y255165D01*
X205276Y250835D02*
Y255165D01*
X210000Y241130D02*
Y244870D01*
X208130Y243000D02*
X211870D01*
X205276Y240835D02*
X214724D01*
X205276Y245165D02*
X214724D01*
Y240835D02*
Y245165D01*
X205276Y240835D02*
Y245165D01*
X221130Y212500D02*
X224870D01*
X223000Y210630D02*
Y214370D01*
X225165Y207776D02*
Y217224D01*
X220835Y207776D02*
Y217224D01*
X225165D01*
X220835Y207776D02*
X225165D01*
X189000Y260130D02*
Y263870D01*
X187130Y262000D02*
X190870D01*
X184276Y264165D02*
X193724D01*
X184276Y259835D02*
X193724D01*
X184276D02*
Y264165D01*
X193724Y259835D02*
Y264165D01*
X191500Y197630D02*
Y201370D01*
X189630Y199500D02*
X193370D01*
X186776Y201665D02*
X196224D01*
X186776Y197335D02*
X196224D01*
X186776D02*
Y201665D01*
X196224Y197335D02*
Y201665D01*
X159130Y254500D02*
X162870D01*
X161000Y252630D02*
Y256370D01*
X158835Y249776D02*
Y259224D01*
X163165Y249776D02*
Y259224D01*
X158835Y249776D02*
X163165D01*
X158835Y259224D02*
X163165D01*
X159130Y237500D02*
X162870D01*
X161000Y235630D02*
Y239370D01*
X158835Y232776D02*
Y242224D01*
X163165Y232776D02*
Y242224D01*
X158835Y232776D02*
X163165D01*
X158835Y242224D02*
X163165D01*
X172031Y246000D02*
X175969D01*
X174000Y244032D02*
Y247969D01*
X166126Y232811D02*
Y259189D01*
X181874Y232811D02*
Y259189D01*
X166126Y232811D02*
X181874D01*
X166126Y259189D02*
X181874D01*
X174000Y226130D02*
Y229870D01*
X172130Y228000D02*
X175870D01*
X169276Y230165D02*
X178724D01*
X169276Y225835D02*
X178724D01*
X169276D02*
Y230165D01*
X178724Y225835D02*
Y230165D01*
X210000Y260130D02*
Y263870D01*
X208130Y262000D02*
X211870D01*
X205276Y259835D02*
X214724D01*
X205276Y264165D02*
X214724D01*
Y259835D02*
Y264165D01*
X205276Y259835D02*
Y264165D01*
X190130Y246000D02*
X193870D01*
X192000Y244130D02*
Y247870D01*
X194165Y241276D02*
Y250724D01*
X189835Y241276D02*
Y250724D01*
X194165D01*
X189835Y241276D02*
X194165D01*
X184130Y246000D02*
X187870D01*
X186000Y244130D02*
Y247870D01*
X188165Y241276D02*
Y250724D01*
X183835Y241276D02*
Y250724D01*
X188165D01*
X183835Y241276D02*
X188165D01*
X196929Y87748D02*
X213071D01*
X196929Y106252D02*
X213071D01*
X196929Y87748D02*
Y106252D01*
X213071Y87748D02*
Y106252D01*
X205000Y95031D02*
Y98968D01*
X203031Y97000D02*
X206968D01*
X135000Y141130D02*
Y144870D01*
X133130Y143000D02*
X136870D01*
X130276Y140835D02*
X139724D01*
X130276Y145165D02*
X139724D01*
Y140835D02*
Y145165D01*
X130276Y140835D02*
Y145165D01*
X250130Y113000D02*
X253870D01*
X252000Y111130D02*
Y114870D01*
X249835Y108276D02*
Y117724D01*
X254165Y108276D02*
X254165Y117724D01*
X249835Y108276D02*
X254165D01*
X249835Y117724D02*
X254165D01*
X143630Y134000D02*
X147370D01*
X145500Y132130D02*
Y135870D01*
X147665Y129276D02*
Y138724D01*
X143335Y129276D02*
Y138724D01*
X147665D01*
X143335Y129276D02*
X147665D01*
X130630Y134000D02*
X134370D01*
X132500Y132130D02*
Y135870D01*
X134665Y129276D02*
Y138724D01*
X130335Y129276D02*
Y138724D01*
X134665D01*
X130335Y129276D02*
X134665D01*
X216130Y97000D02*
X219870D01*
X218000Y95130D02*
Y98870D01*
X215835Y92276D02*
Y101724D01*
X220165Y92276D02*
Y101724D01*
X215835Y92276D02*
X220165D01*
X215835Y101724D02*
X220165D01*
X120000Y129130D02*
Y132870D01*
X118130Y131000D02*
X121870D01*
X115276Y133165D02*
X124724D01*
X115276Y128835D02*
X124724Y128835D01*
X115276Y128835D02*
Y133165D01*
X124724Y128835D02*
Y133165D01*
X120000Y120130D02*
Y123870D01*
X118130Y122000D02*
X121870D01*
X115276Y124165D02*
X124724D01*
X115276Y119835D02*
X124724Y119835D01*
X115276Y119835D02*
Y124165D01*
X124724Y119835D02*
Y124165D01*
X120000Y114130D02*
Y117870D01*
X118130Y116000D02*
X121870D01*
X115276Y118165D02*
X124724D01*
X115276Y113835D02*
X124724Y113835D01*
X115276Y113835D02*
Y118165D01*
X124724Y113835D02*
Y118165D01*
X127130Y102500D02*
X130870D01*
X129000Y100630D02*
Y104370D01*
X126835Y97776D02*
Y107224D01*
X131165Y97776D02*
X131165Y107224D01*
X126835Y97776D02*
X131165D01*
X126835Y107224D02*
X131165D01*
X120000Y98130D02*
Y101870D01*
X118130Y100000D02*
X121870D01*
X115276Y102165D02*
X124724D01*
X115276Y97835D02*
X124724Y97835D01*
X115276Y97835D02*
Y102165D01*
X124724Y97835D02*
Y102165D01*
X163000Y106630D02*
Y110370D01*
X161130Y108500D02*
X164870D01*
X158276Y110665D02*
X167724D01*
X158276Y106335D02*
X167724D01*
X158276D02*
Y110665D01*
X167724Y106335D02*
Y110665D01*
X158000Y99130D02*
Y102870D01*
X156130Y101000D02*
X159870D01*
X153276Y103165D02*
X162724D01*
X153276Y98835D02*
X162724D01*
Y103165D01*
X153276Y98835D02*
Y103165D01*
X142500Y99130D02*
Y102870D01*
X140630Y101000D02*
X144370D01*
X137776Y103165D02*
X147224D01*
X137776Y98835D02*
X147224D01*
Y103165D01*
X137776Y98835D02*
Y103165D01*
X108626Y126449D02*
X124374D01*
X108626Y107551D02*
X124374D01*
X108626D02*
Y126449D01*
X124374Y107551D02*
Y126449D01*
X116500Y115032D02*
Y118968D01*
X114532Y117000D02*
X118468D01*
X132130Y131000D02*
X135870D01*
X134000Y129130D02*
Y132870D01*
X136165Y126276D02*
Y135724D01*
X131835Y126276D02*
Y135724D01*
Y126276D02*
X136165D01*
X131835Y135724D02*
X136165D01*
X126130Y131000D02*
X129870D01*
X128000Y129130D02*
Y132870D01*
X125835Y126276D02*
Y135724D01*
X130165D02*
X130165Y126276D01*
X125835Y135724D02*
X130165D01*
X125835Y126276D02*
X130165D01*
X126130Y146000D02*
X129870D01*
X128000Y144130D02*
Y147870D01*
X125835Y141276D02*
Y150724D01*
X130165Y141276D02*
Y150724D01*
X125835D02*
X130165D01*
X125835Y141276D02*
X130165D01*
X149630Y146000D02*
X153370D01*
X151500Y144130D02*
Y147870D01*
X149335Y141276D02*
Y150724D01*
X153665Y141276D02*
Y150724D01*
X149335D02*
X153665D01*
X149335Y141276D02*
X153665D01*
X155630Y146000D02*
X159370D01*
X157500Y144130D02*
Y147870D01*
X155335Y141276D02*
Y150724D01*
X159665Y141276D02*
Y150724D01*
X155335D02*
X159665D01*
X155335Y141276D02*
X159665D01*
X141248Y123429D02*
Y139571D01*
X159752Y123429D02*
Y139571D01*
X141248Y123429D02*
X159752D01*
X141248Y139571D02*
X159752D01*
X148531Y131500D02*
X152469D01*
X150500Y129532D02*
Y133468D01*
X170130Y124500D02*
X173870D01*
X172000Y122630D02*
Y126370D01*
X169835Y119776D02*
Y129224D01*
X174165Y119776D02*
Y129224D01*
X169835D02*
X174165D01*
X169835Y119776D02*
X174165D01*
X151130Y114000D02*
X154870D01*
X153000Y112130D02*
Y115870D01*
X155165Y109276D02*
Y118724D01*
X150835Y109276D02*
Y118724D01*
Y109276D02*
X155165D01*
X150835Y118724D02*
X155165D01*
X164130Y124500D02*
X167870D01*
X166000Y122630D02*
Y126370D01*
X163835Y119776D02*
Y129224D01*
X168165Y119776D02*
Y129224D01*
X163835D02*
X168165D01*
X163835Y119776D02*
X168165D01*
X178130Y111000D02*
X181870D01*
X180000Y109130D02*
Y112870D01*
X177835Y106276D02*
Y115724D01*
X182165Y106276D02*
Y115724D01*
X177835Y106276D02*
X182165D01*
X177835Y115724D02*
X182165D01*
X188000Y114032D02*
Y117968D01*
X186031Y116000D02*
X189969D01*
X219000Y130630D02*
Y134370D01*
X217130Y132500D02*
X220870D01*
X214276Y130335D02*
X223724D01*
X214276Y134665D02*
X223724D01*
X214276Y130335D02*
Y134665D01*
X223724Y130335D02*
Y134665D01*
X219000Y142630D02*
Y146370D01*
X217130Y144500D02*
X220870D01*
X214276Y146665D02*
X223724D01*
X214276Y142335D02*
X223724D01*
Y146665D01*
X214276Y142335D02*
Y146665D01*
X219000Y136630D02*
Y140370D01*
X217130Y138500D02*
X220870D01*
X214276Y136335D02*
X223724D01*
X214276Y140665D02*
X223724D01*
X214276Y136335D02*
Y140665D01*
X223724Y136335D02*
Y140665D01*
X214130Y115500D02*
X217870D01*
X216000Y113630D02*
Y117370D01*
X218165Y110776D02*
Y120224D01*
X213835Y110776D02*
Y120224D01*
Y110776D02*
X218165D01*
X213835Y120224D02*
X218165D01*
X220130Y115500D02*
X223870D01*
X222000Y113630D02*
Y117370D01*
X224165Y110776D02*
Y120224D01*
X219835Y110776D02*
Y120224D01*
Y110776D02*
X224165D01*
X219835Y120224D02*
X224165D01*
X231000Y98130D02*
Y101870D01*
X229130Y100000D02*
X232870D01*
X226276Y102165D02*
X235724D01*
X226276Y97835D02*
X235724D01*
Y102165D01*
X226276Y97835D02*
Y102165D01*
X241130Y100000D02*
X244870D01*
X243000Y98130D02*
Y101870D01*
X240835Y95276D02*
Y104724D01*
X245165Y95276D02*
Y104724D01*
X240835D02*
X245165D01*
X240835Y95276D02*
X245165D01*
X247126Y114449D02*
X262874D01*
X247126Y95551D02*
X262874D01*
X247126D02*
Y114449D01*
X262874Y95551D02*
Y114449D01*
X255000Y103032D02*
Y106968D01*
X253031Y105000D02*
X256968D01*
X244252Y116929D02*
Y133071D01*
X225748Y116929D02*
Y133071D01*
X244252D01*
X225748Y116929D02*
X244252D01*
X233032Y125000D02*
X236968D01*
X235000Y123031D02*
Y126969D01*
X237000Y142630D02*
Y146370D01*
X235130Y144500D02*
X238870D01*
X232276Y146665D02*
X241724D01*
X232276Y142335D02*
X241724D01*
Y146665D01*
X232276Y142335D02*
Y146665D01*
X226130Y141500D02*
X229870D01*
X228000Y139630D02*
Y143370D01*
X225835Y136776D02*
Y146224D01*
X230165Y136776D02*
Y146224D01*
X225835D02*
X230165D01*
X225835Y136776D02*
X230165D01*
X249130Y121500D02*
X252870D01*
X251000Y119630D02*
Y123370D01*
X248835Y116776D02*
Y126224D01*
X253165Y116776D02*
Y126224D01*
X248835D02*
X253165D01*
X248835Y116776D02*
X253165D01*
X249130Y133000D02*
X252870D01*
X251000Y131130D02*
Y134870D01*
X248835Y128276D02*
Y137724D01*
X253165Y128276D02*
Y137724D01*
X248835D02*
X253165D01*
X248835Y128276D02*
X253165D01*
X260000Y117130D02*
Y120870D01*
X258130Y119000D02*
X261870D01*
X255276Y116835D02*
X264724D01*
X255276Y121165D02*
X264724D01*
X255276Y116835D02*
Y121165D01*
X264724Y116835D02*
Y121165D01*
X260000Y123130D02*
Y126870D01*
X258130Y125000D02*
X261870D01*
X255276Y122835D02*
X264724D01*
X255276Y127165D02*
X264724D01*
X255276Y122835D02*
Y127165D01*
X264724Y122835D02*
Y127165D01*
X249000Y98130D02*
Y101870D01*
X247130Y100000D02*
X250870D01*
X244276Y102165D02*
X253724Y102165D01*
X244276Y97835D02*
X253724D01*
X244276D02*
Y102165D01*
X253724Y102165D02*
X253724Y97835D01*
X205000Y162630D02*
Y166370D01*
X203130Y164500D02*
X206870D01*
X200276Y166665D02*
X209724D01*
X200276Y162335D02*
X209724D01*
Y166665D01*
X200276Y162335D02*
Y166665D01*
X174000Y203130D02*
Y206870D01*
X172130Y205000D02*
X175870D01*
X169276Y202835D02*
X178724D01*
X169276Y207165D02*
X178724D01*
X169276Y202835D02*
Y207165D01*
X178724Y202835D02*
Y207165D01*
X196000Y203130D02*
Y206870D01*
X194130Y205000D02*
X197870D01*
X191276Y202835D02*
X200724D01*
X191276Y207165D02*
X200724D01*
X191276Y202835D02*
Y207165D01*
X200724Y202835D02*
Y207165D01*
X226000Y192130D02*
Y195870D01*
X224130Y194000D02*
X227870D01*
X221276Y191835D02*
X230724D01*
X221276Y196165D02*
X230724D01*
X221276Y191835D02*
Y196165D01*
X230724Y191835D02*
Y196165D01*
X226000Y186130D02*
Y189870D01*
X224130Y188000D02*
X227870D01*
X221276Y185835D02*
X230724D01*
X221276Y190165D02*
X230724D01*
X221276Y185835D02*
Y190165D01*
X230724Y185835D02*
Y190165D01*
X233130Y179500D02*
X236870D01*
X235000Y177630D02*
Y181370D01*
X232835Y174776D02*
Y184224D01*
X237165Y174776D02*
Y184224D01*
X232835D02*
X237165D01*
X232835Y174776D02*
X237165D01*
X233074Y162709D02*
X236814D01*
X234944Y160839D02*
Y164579D01*
X232779Y157984D02*
Y167433D01*
X237110Y157984D02*
Y167433D01*
X232779D02*
X237110D01*
X232779Y157984D02*
X237110D01*
X214626Y184189D02*
X230374D01*
X214626Y157811D02*
X230374D01*
X214626D02*
Y184189D01*
X230374Y157811D02*
Y184189D01*
X222500Y169032D02*
Y172968D01*
X220532Y171000D02*
X224468D01*
X174000Y156630D02*
Y160370D01*
X172130Y158500D02*
X175870D01*
X169276Y156335D02*
X178724D01*
X169276Y160665D02*
X178724D01*
X169276Y156335D02*
Y160665D01*
X178724Y156335D02*
Y160665D01*
X174000Y162630D02*
Y166370D01*
X172130Y164500D02*
X175870D01*
X169276Y162335D02*
X178724D01*
X169276Y166665D02*
X178724D01*
X169276Y162335D02*
Y166665D01*
X178724Y162335D02*
Y166665D01*
X183835Y166224D02*
X188165D01*
X183835Y156776D02*
X188165D01*
X183835D02*
Y166224D01*
X188165Y156776D02*
Y166224D01*
X186000Y159630D02*
Y163370D01*
X184130Y161500D02*
X187870D01*
X205630Y174000D02*
X209370D01*
X207500Y172130D02*
Y175870D01*
X209665Y169276D02*
Y178724D01*
X205335Y169276D02*
Y178724D01*
Y169276D02*
X209665D01*
X205335Y178724D02*
X209665D01*
X135000Y232031D02*
Y235968D01*
X133031Y234000D02*
X136969D01*
X137031Y119000D02*
X140969D01*
X139000Y117032D02*
Y120968D01*
X183031Y185000D02*
X186969D01*
X185000Y183031D02*
Y186969D01*
X169252Y169252D02*
Y200748D01*
X200748Y169252D02*
Y200748D01*
X169252D02*
X200748D01*
X169252Y169252D02*
X200748D01*
X199031Y222000D02*
X202969D01*
X201000Y220031D02*
Y223969D01*
X187031Y136500D02*
X190969D01*
X189000Y134531D02*
Y138469D01*
X133031Y203000D02*
X136969D01*
X135000Y201031D02*
Y204969D01*
D136*
X125650Y150650D02*
X144350D01*
X125650Y169350D02*
X144350D01*
Y150650D02*
Y169350D01*
X125650Y150650D02*
Y169350D01*
X181209Y121315D02*
X194791D01*
X181209Y110685D02*
X194791D01*
Y121315D01*
X181209Y110685D02*
Y121315D01*
X122795Y243500D02*
X147205D01*
Y224500D02*
Y243500D01*
X122795Y224500D02*
X147205D01*
X122795D02*
Y243500D01*
X147661Y110339D02*
Y127661D01*
X130339Y110339D02*
Y127661D01*
X147661D01*
X130339Y110339D02*
X147661D01*
X215075Y207925D02*
Y236075D01*
X186925Y207925D02*
Y236075D01*
X215075D01*
X186925Y207925D02*
X215075D01*
X176894Y124394D02*
Y148606D01*
X201106Y124394D02*
Y148606D01*
X176894D02*
X201106D01*
X176894Y124394D02*
X201106D01*
X124764Y192764D02*
Y213236D01*
X145236Y192764D02*
Y213236D01*
X124764D02*
X145236D01*
X124764Y192764D02*
X145236D01*
M02*
