G04 Layer_Color=8388736*
%FSLAX25Y25*%
%MOIN*%
G70*
G01*
G75*
%ADD87R,0.01981X0.05524*%
%ADD88R,0.05524X0.01981*%
%ADD89R,0.03950X0.04343*%
%ADD90R,0.04343X0.07493*%
%ADD91R,0.08674X0.04737*%
G04:AMPARAMS|DCode=92|XSize=19.81mil|YSize=33.59mil|CornerRadius=0mil|HoleSize=0mil|Usage=FLASHONLY|Rotation=135.000|XOffset=0mil|YOffset=0mil|HoleType=Round|Shape=Rectangle|*
%AMROTATEDRECTD92*
4,1,4,0.01888,0.00487,-0.00487,-0.01888,-0.01888,-0.00487,0.00487,0.01888,0.01888,0.00487,0.0*
%
%ADD92ROTATEDRECTD92*%

G04:AMPARAMS|DCode=93|XSize=19.81mil|YSize=33.59mil|CornerRadius=0mil|HoleSize=0mil|Usage=FLASHONLY|Rotation=45.000|XOffset=0mil|YOffset=0mil|HoleType=Round|Shape=Rectangle|*
%AMROTATEDRECTD93*
4,1,4,0.00487,-0.01888,-0.01888,0.00487,-0.00487,0.01888,0.01888,-0.00487,0.00487,-0.01888,0.0*
%
%ADD93ROTATEDRECTD93*%

G04:AMPARAMS|DCode=94|XSize=31.62mil|YSize=65.09mil|CornerRadius=0mil|HoleSize=0mil|Usage=FLASHONLY|Rotation=315.000|XOffset=0mil|YOffset=0mil|HoleType=Round|Shape=Rectangle|*
%AMROTATEDRECTD94*
4,1,4,-0.03419,-0.01183,0.01183,0.03419,0.03419,0.01183,-0.01183,-0.03419,-0.03419,-0.01183,0.0*
%
%ADD94ROTATEDRECTD94*%

G04:AMPARAMS|DCode=95|XSize=31.62mil|YSize=65.09mil|CornerRadius=0mil|HoleSize=0mil|Usage=FLASHONLY|Rotation=225.000|XOffset=0mil|YOffset=0mil|HoleType=Round|Shape=Rectangle|*
%AMROTATEDRECTD95*
4,1,4,-0.01183,0.03419,0.03419,-0.01183,0.01183,-0.03419,-0.03419,0.01183,-0.01183,0.03419,0.0*
%
%ADD95ROTATEDRECTD95*%

G04:AMPARAMS|DCode=96|XSize=43.43mil|YSize=39.5mil|CornerRadius=0mil|HoleSize=0mil|Usage=FLASHONLY|Rotation=225.000|XOffset=0mil|YOffset=0mil|HoleType=Round|Shape=Rectangle|*
%AMROTATEDRECTD96*
4,1,4,0.00139,0.02932,0.02932,0.00139,-0.00139,-0.02932,-0.02932,-0.00139,0.00139,0.02932,0.0*
%
%ADD96ROTATEDRECTD96*%

G04:AMPARAMS|DCode=97|XSize=43.43mil|YSize=39.5mil|CornerRadius=0mil|HoleSize=0mil|Usage=FLASHONLY|Rotation=315.000|XOffset=0mil|YOffset=0mil|HoleType=Round|Shape=Rectangle|*
%AMROTATEDRECTD97*
4,1,4,-0.02932,0.00139,-0.00139,0.02932,0.02932,-0.00139,0.00139,-0.02932,-0.02932,0.00139,0.0*
%
%ADD97ROTATEDRECTD97*%

%ADD98R,0.04343X0.03950*%
%ADD99R,0.06312X0.08674*%
%ADD100R,0.03162X0.02768*%
%ADD101R,0.10249X0.08674*%
%ADD102R,0.03556X0.05918*%
%ADD103R,0.03162X0.07099*%
%ADD104R,0.07690X0.07690*%
%ADD105R,0.03162X0.01784*%
%ADD106R,0.01784X0.03162*%
%ADD107R,0.18910X0.18910*%
%ADD108R,0.04147X0.01587*%
%ADD109R,0.01587X0.04147*%
%ADD110R,0.04147X0.01981*%
%ADD111R,0.01981X0.04147*%
%ADD112R,0.11824X0.11824*%
%ADD113C,0.03556*%
%ADD114P,0.06699X4X360.0*%
%ADD115C,0.04737*%
%ADD116P,0.06699X4X90.0*%
%ADD117C,0.29934*%
%ADD118C,0.08674*%
%ADD119R,0.06706X0.06706*%
%ADD120C,0.06706*%
%ADD121R,0.06706X0.06706*%
%ADD122C,0.16084*%
D87*
X132047Y166496D02*
D03*
X134016D02*
D03*
X135984D02*
D03*
X137953D02*
D03*
Y153504D02*
D03*
X135984D02*
D03*
X134016D02*
D03*
X132047D02*
D03*
D88*
X141496Y162953D02*
D03*
Y160984D02*
D03*
Y159016D02*
D03*
Y157047D02*
D03*
X128504D02*
D03*
Y159016D02*
D03*
Y160984D02*
D03*
Y162953D02*
D03*
D89*
X117244Y110000D02*
D03*
X122756D02*
D03*
X93244Y115000D02*
D03*
X98756D02*
D03*
X276756Y255000D02*
D03*
X271244D02*
D03*
X98756D02*
D03*
X93244D02*
D03*
X276756Y115000D02*
D03*
X271244D02*
D03*
X139744Y251000D02*
D03*
X145256D02*
D03*
X150256Y183500D02*
D03*
X144744D02*
D03*
X150256Y174500D02*
D03*
X144744D02*
D03*
X143256Y217000D02*
D03*
X137744D02*
D03*
X147744Y153000D02*
D03*
X153256D02*
D03*
X234756Y243000D02*
D03*
X229244D02*
D03*
X223756D02*
D03*
X218244D02*
D03*
X234756Y253000D02*
D03*
X229244D02*
D03*
X223756D02*
D03*
X218244D02*
D03*
X212756D02*
D03*
X207244D02*
D03*
X212756Y243000D02*
D03*
X207244D02*
D03*
X186244Y262000D02*
D03*
X191756D02*
D03*
X188744Y199500D02*
D03*
X194256D02*
D03*
X171244Y228000D02*
D03*
X176756D02*
D03*
X212756Y262000D02*
D03*
X207244D02*
D03*
X137756Y143000D02*
D03*
X132244D02*
D03*
X117244Y131000D02*
D03*
X122756D02*
D03*
X117244Y122000D02*
D03*
X122756D02*
D03*
X117244Y116000D02*
D03*
X122756D02*
D03*
X117244Y100000D02*
D03*
X122756D02*
D03*
X160244Y108500D02*
D03*
X165756D02*
D03*
X246244Y100000D02*
D03*
X251756D02*
D03*
D90*
X171909Y93480D02*
D03*
X188091Y93480D02*
D03*
D91*
X222476Y169158D02*
D03*
Y179000D02*
D03*
Y188842D02*
D03*
X244524Y169158D02*
D03*
Y179000D02*
D03*
Y188842D02*
D03*
D92*
X291121Y75121D02*
D03*
X294879Y78879D02*
D03*
X75121Y291121D02*
D03*
X78879Y294879D02*
D03*
D93*
X291121D02*
D03*
X294879Y291121D02*
D03*
X75121Y78879D02*
D03*
X78879Y75121D02*
D03*
D94*
X100916Y95626D02*
D03*
X95626Y100916D02*
D03*
X91729Y91729D02*
D03*
X269084Y274374D02*
D03*
X274374Y269084D02*
D03*
X278271Y278271D02*
D03*
D95*
X95626Y269084D02*
D03*
X100916Y274374D02*
D03*
X91729Y278271D02*
D03*
X274374Y100916D02*
D03*
X269084Y95626D02*
D03*
X278271Y91729D02*
D03*
D96*
X301051Y304949D02*
D03*
X304949Y301051D02*
D03*
X90949Y292551D02*
D03*
X87051Y296449D02*
D03*
X68949Y65051D02*
D03*
X65051Y68949D02*
D03*
X279051Y76949D02*
D03*
X282949Y73051D02*
D03*
D97*
X279051Y293051D02*
D03*
X282949Y296949D02*
D03*
X68366Y305196D02*
D03*
X64468Y301299D02*
D03*
X90949Y76949D02*
D03*
X87051Y73051D02*
D03*
X301051Y65051D02*
D03*
X304949Y68949D02*
D03*
D98*
X150000Y164256D02*
D03*
Y158744D02*
D03*
Y203756D02*
D03*
Y198244D02*
D03*
X138500Y174244D02*
D03*
Y179756D02*
D03*
X223000Y215256D02*
D03*
Y209744D02*
D03*
X161000Y251744D02*
D03*
Y257256D02*
D03*
Y234744D02*
D03*
Y240256D02*
D03*
X192000Y248756D02*
D03*
Y243244D02*
D03*
X186000Y248756D02*
D03*
Y243244D02*
D03*
X252000Y110244D02*
D03*
Y115756D02*
D03*
X145500Y136756D02*
D03*
Y131244D02*
D03*
X132500Y136756D02*
D03*
Y131244D02*
D03*
X218000Y94244D02*
D03*
Y99756D02*
D03*
X129000Y99744D02*
D03*
Y105256D02*
D03*
X180000Y108244D02*
D03*
Y113756D02*
D03*
D99*
X166199Y274000D02*
D03*
X203601D02*
D03*
D100*
X201969Y253000D02*
D03*
X198031D02*
D03*
X198031Y242500D02*
D03*
X201969D02*
D03*
X198031Y262000D02*
D03*
X201969D02*
D03*
D101*
X174000Y238126D02*
D03*
Y253874D02*
D03*
D102*
X201260Y92276D02*
D03*
X205000D02*
D03*
X208740D02*
D03*
Y101724D02*
D03*
X205000D02*
D03*
X201260D02*
D03*
D103*
X142382Y239421D02*
D03*
X137461D02*
D03*
X132539D02*
D03*
X127618D02*
D03*
Y228579D02*
D03*
X132539D02*
D03*
X137461D02*
D03*
X142382D02*
D03*
D104*
X139000Y119000D02*
D03*
D105*
X133488Y116047D02*
D03*
Y118016D02*
D03*
Y119984D02*
D03*
Y121953D02*
D03*
X144512D02*
D03*
Y119984D02*
D03*
Y118016D02*
D03*
Y116047D02*
D03*
D106*
X136047Y124512D02*
D03*
X138016D02*
D03*
X139984D02*
D03*
X141953D02*
D03*
Y113488D02*
D03*
X139984D02*
D03*
X138016D02*
D03*
X136047D02*
D03*
D107*
X201000Y222000D02*
D03*
D108*
X189583Y213339D02*
D03*
Y214913D02*
D03*
Y216488D02*
D03*
Y218063D02*
D03*
Y219638D02*
D03*
Y221213D02*
D03*
Y222787D02*
D03*
Y224362D02*
D03*
Y225937D02*
D03*
Y227512D02*
D03*
Y229087D02*
D03*
Y230661D02*
D03*
X212417D02*
D03*
Y229087D02*
D03*
Y227512D02*
D03*
Y225937D02*
D03*
Y224362D02*
D03*
Y222787D02*
D03*
Y221213D02*
D03*
Y219638D02*
D03*
Y218063D02*
D03*
Y216488D02*
D03*
Y214913D02*
D03*
Y213339D02*
D03*
D109*
X192339Y233417D02*
D03*
X193913D02*
D03*
X195488D02*
D03*
X197063D02*
D03*
X198638D02*
D03*
X200213D02*
D03*
X201787D02*
D03*
X203362D02*
D03*
X204937D02*
D03*
X206512D02*
D03*
X208087D02*
D03*
X209661D02*
D03*
Y210583D02*
D03*
X208087D02*
D03*
X206512D02*
D03*
X204937D02*
D03*
X203362D02*
D03*
X201787D02*
D03*
X200213D02*
D03*
X198638D02*
D03*
X197063D02*
D03*
X195488D02*
D03*
X193913D02*
D03*
X192339D02*
D03*
D110*
X127028Y207921D02*
D03*
Y205953D02*
D03*
Y203984D02*
D03*
Y202016D02*
D03*
Y200047D02*
D03*
Y198079D02*
D03*
X142972D02*
D03*
Y200047D02*
D03*
Y202016D02*
D03*
Y203984D02*
D03*
Y205953D02*
D03*
Y207921D02*
D03*
D111*
X130079Y195028D02*
D03*
X132047D02*
D03*
X134016D02*
D03*
X135984D02*
D03*
X137953D02*
D03*
X139921D02*
D03*
Y210972D02*
D03*
X137953D02*
D03*
X135984D02*
D03*
X134016D02*
D03*
X132047D02*
D03*
X130079D02*
D03*
D112*
X135000Y203000D02*
D03*
D113*
X179980Y96866D02*
D03*
X179980Y90134D02*
D03*
D114*
X80232Y83768D02*
D03*
X289768Y286232D02*
D03*
D115*
X83768Y80232D02*
D03*
X289768Y83768D02*
D03*
X286232Y289768D02*
D03*
X80232Y286232D02*
D03*
D116*
X286232Y80232D02*
D03*
X83768Y289768D02*
D03*
D117*
X23622Y346457D02*
D03*
X346457D02*
D03*
Y23622D02*
D03*
X23622D02*
D03*
D118*
X51181Y51181D02*
D03*
Y318898D02*
D03*
X318898D02*
D03*
Y51181D02*
D03*
D119*
X111000Y230000D02*
D03*
X259000Y140000D02*
D03*
D120*
X111000Y220000D02*
D03*
Y200000D02*
D03*
Y190000D02*
D03*
Y180000D02*
D03*
Y170000D02*
D03*
Y160000D02*
D03*
Y150000D02*
D03*
Y140000D02*
D03*
Y210000D02*
D03*
X259000Y160000D02*
D03*
Y230000D02*
D03*
Y220000D02*
D03*
Y210000D02*
D03*
Y200000D02*
D03*
Y190000D02*
D03*
Y180000D02*
D03*
Y170000D02*
D03*
Y150000D02*
D03*
X238000Y112000D02*
D03*
X163000Y93000D02*
D03*
D121*
X228000Y112000D02*
D03*
X153000Y93000D02*
D03*
D122*
X95653Y185004D02*
D03*
X274236Y185083D02*
D03*
M02*
